<?xml version="1.0" encoding="utf-8"?>
<!-- Generator: Adobe Illustrator 28.3.0, SVG Export Plug-In . SVG Version: 6.00 Build 0)  -->
<svg version="1.1" id="Layer_1" xmlns="http://www.w3.org/2000/svg" xmlns:xlink="http://www.w3.org/1999/xlink" x="0px" y="0px"
	 viewBox="0 0 4230 2000" style="enable-background:new 0 0 4230 2000;" xml:space="preserve">
<style type="text/css">
	.st0{fill-rule:evenodd;clip-rule:evenodd;fill:#FFFFFF;}
	.st1{fill:#FFFFFF;}
</style>
<g>
	<path class="st0" d="M2964.3,984.7h-81.8c-16.5,0-25.5,9.1-25.5,25.8v285.3c-31.8-46.4-82.9-72.1-145.6-72.1
		c-144.4,0-230.5,104.2-230.5,284.2c0,179.9,85.6,284,230,284c64,0,116.3-27,148.3-73.2l9,41c2.7,15.4,12.8,23.1,28.2,23.1h67.8
		c16.5,0,25.5-8.9,25.5-25.6v-746.7C2989.8,993.7,2981,984.7,2964.3,984.7z M2737.9,1692.7c-71.4,0-118.8-60.3-118.8-169.5v-30.8
		c0-109,47.1-169.5,118.8-169.5c80.4,0,121.4,57.8,121.4,185.1S2818.4,1692.7,2737.9,1692.7z"/>
	<path class="st0" d="M3127.7,1377.9c20.5-95,107.3-154.1,221.1-154.1c145.7,0,218.5,75.9,218.6,208.1v325.2
		c0,16.5-8.8,25.6-25.5,25.6h-67.8c-15.4,0-25.7-7.7-28.2-23.1l-7.7-41c-31.8,46.2-84.3,73.2-149.4,73.2
		c-108.6,0-180-64.5-180-164.7c0-116.9,81.8-177.2,254.4-177.2h71.4v-20.6c0-70.7-29.5-106.7-85.6-106.7
		c-44.8,0-70.3,19.3-83.1,60.5c-5.2,16.8-14.2,23.1-28.2,23.1h-87C3132.9,1406.2,3123.9,1394.7,3127.7,1377.9z M3326,1692.8
		c65.1,0,108.6-39.6,108.6-134.8v-18h-66.5c-80.6,0-121.3,27-121.4,82.2C3246.8,1665.9,3278.7,1692.8,3326,1692.8z"/>
	<path class="st1" d="M164.7,1782.9c-15.3,0-24.3-6.4-29.3-21.8c-60.2-167-101-332.9-135.4-499.9c-3.9-16.7,3.8-28.3,21.6-28.3h83.1
		c15.4,0,25.5,7.7,28.2,21.8c21.6,118.3,47.3,240.3,81.8,359.9l99.6-359.9c3.8-14.1,14-21.8,29.3-21.8h112.5
		c15.3,0,25.5,7.7,29.3,21.8l99.6,359.9c34.5-119.5,60.2-241.6,81.8-359.9c2.5-14.1,12.9-21.8,28.2-21.8h83.1
		c17.8,0,25.4,11.5,21.6,28.3c-34.4,167-75.2,332.9-135.4,499.9c-5.2,15.4-14,21.8-29.3,21.8h-93.6c-14,0-25.5-6.4-29.3-21.8
		l-112.4-395.9l-112.4,395.9c-3.8,15.4-15.3,21.8-29.3,21.8H164.7z"/>
	<path class="st0" d="M1131.8,1224c-155.9,0-264.5,113.1-264.5,284s108.6,284,264.5,284s264.5-114.4,264.5-284
		S1287.7,1224,1131.8,1224z M1258.2,1523.3c0,113.1-49.8,177.4-126.4,177.4s-126.4-64.3-126.4-177.4v-30.8
		c0-113.1,49.8-177.4,126.4-177.4s126.4,64.3,126.4,177.4V1523.3z"/>
	<path class="st1" d="M3854.1,1771.1c-81.8-140-152.5-319.8-197.1-509.9c-3.8-18.1,5.2-28.3,23.1-28.2h83.1
		c15.3,0,25.6,7.7,28.1,23.1c26.8,133.7,69,263.5,122.6,371.4c47.3-118.3,90.8-241.6,113.8-371.4c2.6-15.4,12.8-23.1,28.1-23.1h85.6
		c17.8,0,26.8,11.6,21.6,29.5c-58.8,235.2-143.1,439.4-215.9,596.2c-47.3,101.5-102.3,141.4-201.9,141.4c-19.1,0-39.4-3.9-56.1-7.7
		c-15.3-3.8-21.6-14.2-21.6-28.3v-61.7c0-18,10.4-24.5,28.2-19.3c15.3,3.8,30.6,6.3,44.6,6.3
		C3799.1,1889.4,3819.6,1850.9,3854.1,1771.1z"/>
	<path class="st1" d="M1641.8,1302.3c28.1-45.1,77.9-75.9,135.4-75.9c21.7,0,40.8,5.2,56.2,16.8c5.2,3.9,9,9.1,9,16.8v75.9
		c0,17.9-7.6,23.1-26.8,15.4c-15.6-6.6-30.9-9.1-48.7-9.1c-77.8,0-122.6,55.3-122.6,135.1l0.1,280.2c0,16.5-8.8,25.4-25.5,25.4h-82
		c-16.5,0-25.5-8.8-25.5-25.6l-0.1-498.7c0-16.5,8.8-25.6,25.5-25.6h67.8c16.7,0,25.7,9,28.2,23.1L1641.8,1302.3z"/>
	<path class="st1" d="M2408.5,1752.2c-56.1-115.6-109.8-195.3-185.2-268.6l176.4-218.5c12.8-18.1,6.5-32.2-14-32.2h-91.9
		c-12.8,0-24.3,5-32,14.1l-178.9,228.7v-465.1c0-16.8-9-25.8-25.7-25.8h-81.8c-16.5,0-25.5,9.1-25.5,25.8v746.7
		c0,16.6,8.8,25.6,25.5,25.6h81.8c16.5,0,25.5-8.9,25.5-25.6l0.2-251.8c79.2,77,134.1,159.2,180,262c5.2,9.1,17.8,15.4,30.6,15.4
		h100.9C2414.8,1783,2418.7,1772.8,2408.5,1752.2z"/>
	<path class="st1" d="M4150.8,1721.4v13.7h-18.1v47.5h-16.2v-47.5h-18v-13.7H4150.8z"/>
	<path class="st1" d="M4206.1,1721.4h24.6v61.2h-15.3v-43l0.2-7l-1.8,6.9l-12.6,43.1h-15.5l-12.6-42.9l-1.8-6.8l0.2,6.8v42.9h-15.4
		v-61.2h25.7l9.7,38.9l1.9,9.5l2.1-9.5L4206.1,1721.4z"/>
	<path class="st1" d="M1172.8,522c250.6-251,584-389.2,938.8-389.2c354.1,0,687.1,137.9,937.5,388.3
		c143.2,143.2,249.5,313.3,314.4,499c2.8,8,10.2,13.3,18.7,13.3h98.4c13.4,0,23.1-13,18.9-25.8c-70.1-216.5-191-414.8-356.5-580.4
		C2867.6,151.7,2501.3,0,2111.8,0c-390.2,0-757.2,152-1032.9,428.1c-165.2,165.4-285.7,363.4-355.6,579.4
		c-4.1,12.8,5.5,25.8,19,25.8h98.4c8.5,0,15.9-5.4,18.7-13.3C924,834.9,1030,665,1172.8,522z"/>
</g>
</svg>
