<svg xmlns="http://www.w3.org/2000/svg" xmlns:xlink="http://www.w3.org/1999/xlink" width="130"
    zoomAndPan="magnify" viewBox="0 0 97.5 30.000001" height="40"
    preserveAspectRatio="xMidYMid meet" version="1.0">
    <defs>
        <g />
    </defs>
    <g fill="#000000" fill-opacity="1">
        <g transform="translate(3.281248, 19.959679)">
            <g>
                <path
                    d="M 7.59375 0.1875 C 6.75 0.1875 5.925781 0.125 5.125 0 C 4.332031 -0.113281 3.59375 -0.285156 2.90625 -0.515625 C 2.226562 -0.753906 1.628906 -1.039062 1.109375 -1.375 L 2.046875 -3.5 C 2.640625 -3.144531 3.226562 -2.863281 3.8125 -2.65625 C 4.40625 -2.445312 5.023438 -2.296875 5.671875 -2.203125 C 6.328125 -2.109375 7.019531 -2.0625 7.75 -2.0625 C 8.851562 -2.0625 9.707031 -2.191406 10.3125 -2.453125 C 10.914062 -2.722656 11.21875 -3.128906 11.21875 -3.671875 C 11.21875 -4.035156 11.125 -4.3125 10.9375 -4.5 C 10.75 -4.6875 10.476562 -4.820312 10.125 -4.90625 C 9.78125 -5 9.359375 -5.078125 8.859375 -5.140625 L 5.765625 -5.5625 C 4.296875 -5.738281 3.207031 -6.132812 2.5 -6.75 C 1.800781 -7.375 1.453125 -8.203125 1.453125 -9.234375 C 1.453125 -10.078125 1.710938 -10.800781 2.234375 -11.40625 C 2.765625 -12.007812 3.5 -12.472656 4.4375 -12.796875 C 5.382812 -13.117188 6.484375 -13.28125 7.734375 -13.28125 C 8.515625 -13.28125 9.257812 -13.21875 9.96875 -13.09375 C 10.675781 -12.96875 11.328125 -12.785156 11.921875 -12.546875 C 12.515625 -12.304688 13.039062 -12.007812 13.5 -11.65625 L 12.5625 -9.609375 C 11.851562 -10.109375 11.101562 -10.46875 10.3125 -10.6875 C 9.53125 -10.914062 8.625 -11.03125 7.59375 -11.03125 C 6.894531 -11.03125 6.285156 -10.96875 5.765625 -10.84375 C 5.253906 -10.71875 4.863281 -10.535156 4.59375 -10.296875 C 4.332031 -10.054688 4.203125 -9.757812 4.203125 -9.40625 C 4.203125 -8.914062 4.390625 -8.5625 4.765625 -8.34375 C 5.140625 -8.132812 5.722656 -7.96875 6.515625 -7.84375 L 9.4375 -7.4375 C 10.9375 -7.238281 12.066406 -6.84375 12.828125 -6.25 C 13.597656 -5.664062 13.984375 -4.847656 13.984375 -3.796875 C 13.984375 -2.972656 13.726562 -2.257812 13.21875 -1.65625 C 12.707031 -1.0625 11.96875 -0.601562 11 -0.28125 C 10.039062 0.03125 8.90625 0.1875 7.59375 0.1875 Z M 7.59375 0.1875 " />
            </g>
        </g>
    </g>
    <g fill="#000000" fill-opacity="1">
        <g transform="translate(18.14214, 19.959679)">
            <g>
                <path
                    d="M 5.390625 0.1875 C 4.566406 0.1875 3.835938 0.0546875 3.203125 -0.203125 C 2.578125 -0.460938 2.085938 -0.816406 1.734375 -1.265625 C 1.378906 -1.710938 1.203125 -2.21875 1.203125 -2.78125 C 1.203125 -3.363281 1.394531 -3.859375 1.78125 -4.265625 C 2.164062 -4.671875 2.796875 -4.976562 3.671875 -5.1875 C 4.554688 -5.394531 5.742188 -5.5 7.234375 -5.5 L 9.328125 -5.5 L 9.328125 -3.953125 L 7.296875 -3.953125 C 6.609375 -3.953125 6.035156 -3.929688 5.578125 -3.890625 C 5.128906 -3.847656 4.773438 -3.78125 4.515625 -3.6875 C 4.253906 -3.601562 4.066406 -3.492188 3.953125 -3.359375 C 3.847656 -3.222656 3.796875 -3.054688 3.796875 -2.859375 C 3.796875 -2.472656 3.976562 -2.175781 4.34375 -1.96875 C 4.707031 -1.757812 5.210938 -1.65625 5.859375 -1.65625 C 6.421875 -1.65625 6.941406 -1.75 7.421875 -1.9375 C 7.898438 -2.132812 8.273438 -2.398438 8.546875 -2.734375 C 8.828125 -3.066406 8.96875 -3.441406 8.96875 -3.859375 L 8.96875 -5.796875 C 8.96875 -6.347656 8.753906 -6.75 8.328125 -7 C 7.898438 -7.25 7.253906 -7.375 6.390625 -7.375 C 5.671875 -7.375 4.976562 -7.289062 4.3125 -7.125 C 3.644531 -6.96875 3.003906 -6.722656 2.390625 -6.390625 L 1.671875 -8.234375 C 2.117188 -8.460938 2.609375 -8.660156 3.140625 -8.828125 C 3.671875 -8.992188 4.226562 -9.125 4.8125 -9.21875 C 5.40625 -9.3125 5.988281 -9.359375 6.5625 -9.359375 C 7.632812 -9.359375 8.535156 -9.21875 9.265625 -8.9375 C 9.992188 -8.65625 10.550781 -8.226562 10.9375 -7.65625 C 11.320312 -7.082031 11.515625 -6.335938 11.515625 -5.421875 L 11.515625 0 L 9.140625 0 L 9.140625 -2 L 9.25 -2 C 9.0625 -1.570312 8.789062 -1.191406 8.4375 -0.859375 C 8.09375 -0.523438 7.664062 -0.265625 7.15625 -0.078125 C 6.644531 0.0976562 6.054688 0.1875 5.390625 0.1875 Z M 5.390625 0.1875 " />
            </g>
        </g>
    </g>
    <g fill="#000000" fill-opacity="1">
        <g transform="translate(31.294026, 19.959679)">
            <g>
                <path
                    d="M 5.484375 0.1875 C 4.234375 0.1875 3.28125 -0.113281 2.625 -0.71875 C 1.976562 -1.332031 1.65625 -2.207031 1.65625 -3.34375 L 1.65625 -13.09375 L 4.3125 -13.09375 L 4.3125 -3.546875 C 4.3125 -3.203125 4.378906 -2.90625 4.515625 -2.65625 C 4.648438 -2.414062 4.851562 -2.226562 5.125 -2.09375 C 5.394531 -1.96875 5.722656 -1.90625 6.109375 -1.90625 C 6.285156 -1.90625 6.472656 -1.914062 6.671875 -1.9375 C 6.867188 -1.957031 7.039062 -1.988281 7.1875 -2.03125 L 7.203125 -0.03125 C 6.929688 0.0390625 6.65625 0.09375 6.375 0.125 C 6.101562 0.164062 5.804688 0.1875 5.484375 0.1875 Z M 5.484375 0.1875 " />
            </g>
        </g>
    </g>
    <g fill="#000000" fill-opacity="1">
        <g transform="translate(38.594419, 19.959679)">
            <g>
                <path
                    d="M 7.265625 0.1875 C 5.972656 0.1875 4.859375 0 3.921875 -0.375 C 2.992188 -0.757812 2.28125 -1.304688 1.78125 -2.015625 C 1.289062 -2.722656 1.046875 -3.5625 1.046875 -4.53125 C 1.046875 -5.488281 1.28125 -6.328125 1.75 -7.046875 C 2.21875 -7.765625 2.882812 -8.328125 3.75 -8.734375 C 4.613281 -9.148438 5.625 -9.359375 6.78125 -9.359375 C 7.851562 -9.359375 8.78125 -9.171875 9.5625 -8.796875 C 10.351562 -8.421875 10.960938 -7.878906 11.390625 -7.171875 C 11.816406 -6.472656 12.03125 -5.632812 12.03125 -4.65625 L 12.03125 -3.921875 L 3.125 -3.921875 L 3.125 -5.484375 L 10.1875 -5.484375 L 9.765625 -5.109375 C 9.753906 -5.921875 9.5 -6.53125 9 -6.9375 C 8.5 -7.351562 7.78125 -7.5625 6.84375 -7.5625 C 6.144531 -7.5625 5.550781 -7.453125 5.0625 -7.234375 C 4.582031 -7.023438 4.210938 -6.71875 3.953125 -6.3125 C 3.691406 -5.914062 3.5625 -5.425781 3.5625 -4.84375 L 3.5625 -4.65625 C 3.5625 -4.039062 3.691406 -3.519531 3.953125 -3.09375 C 4.222656 -2.675781 4.640625 -2.359375 5.203125 -2.140625 C 5.773438 -1.929688 6.519531 -1.828125 7.4375 -1.828125 C 8.175781 -1.828125 8.859375 -1.894531 9.484375 -2.03125 C 10.117188 -2.175781 10.65625 -2.394531 11.09375 -2.6875 L 11.796875 -0.921875 C 11.328125 -0.578125 10.679688 -0.304688 9.859375 -0.109375 C 9.046875 0.0859375 8.179688 0.1875 7.265625 0.1875 Z M 7.265625 0.1875 " />
            </g>
        </g>
    </g>
    <g fill="#000000" fill-opacity="1">
        <g transform="translate(51.486244, 19.959679)">
            <g>
                <path
                    d="M 1.6875 0 L 1.6875 -9.171875 L 4.15625 -9.171875 L 4.15625 -6.875 L 4.03125 -6.875 C 4.289062 -7.625 4.753906 -8.203125 5.421875 -8.609375 C 6.085938 -9.023438 6.910156 -9.265625 7.890625 -9.328125 L 8.875 -9.40625 L 9.078125 -7.109375 L 7.390625 -6.96875 C 6.378906 -6.882812 5.617188 -6.640625 5.109375 -6.234375 C 4.609375 -5.828125 4.359375 -5.296875 4.359375 -4.640625 L 4.359375 0 Z M 1.6875 0 " />
            </g>
        </g>
    </g>
    <g fill="#000000" fill-opacity="1">
        <g transform="translate(60.792882, 19.959679)">
            <g>
                <path
                    d="M 1.6875 0 L 1.6875 -9.171875 L 4.21875 -9.171875 L 4.21875 -7.234375 L 4.125 -7.234375 C 4.519531 -7.898438 5.0625 -8.421875 5.75 -8.796875 C 6.4375 -9.171875 7.25 -9.359375 8.1875 -9.359375 C 9.0625 -9.359375 9.800781 -9.210938 10.40625 -8.921875 C 11.019531 -8.628906 11.488281 -8.164062 11.8125 -7.53125 C 12.144531 -6.90625 12.3125 -6.070312 12.3125 -5.03125 L 12.3125 0 L 9.65625 0 L 9.65625 -4.9375 C 9.65625 -5.507812 9.566406 -5.960938 9.390625 -6.296875 C 9.210938 -6.628906 8.953125 -6.875 8.609375 -7.03125 C 8.265625 -7.1875 7.847656 -7.265625 7.359375 -7.265625 C 6.753906 -7.265625 6.222656 -7.144531 5.765625 -6.90625 C 5.316406 -6.664062 4.960938 -6.34375 4.703125 -5.9375 C 4.453125 -5.53125 4.328125 -5.085938 4.328125 -4.609375 L 4.328125 0 Z M 1.6875 0 " />
            </g>
        </g>
    </g>
    <g fill="#000000" fill-opacity="1">
        <g transform="translate(74.743547, 19.959679)">
            <g>
                <path
                    d="M 6.8125 0.1875 C 5.613281 0.1875 4.582031 -0.015625 3.71875 -0.421875 C 2.851562 -0.835938 2.191406 -1.40625 1.734375 -2.125 C 1.273438 -2.84375 1.046875 -3.664062 1.046875 -4.59375 C 1.046875 -5.53125 1.273438 -6.351562 1.734375 -7.0625 C 2.191406 -7.78125 2.851562 -8.34375 3.71875 -8.75 C 4.582031 -9.15625 5.613281 -9.359375 6.8125 -9.359375 C 8.039062 -9.359375 9.082031 -9.15625 9.9375 -8.75 C 10.789062 -8.34375 11.445312 -7.78125 11.90625 -7.0625 C 12.363281 -6.351562 12.59375 -5.53125 12.59375 -4.59375 C 12.59375 -3.664062 12.363281 -2.84375 11.90625 -2.125 C 11.457031 -1.40625 10.800781 -0.835938 9.9375 -0.421875 C 9.082031 -0.015625 8.039062 0.1875 6.8125 0.1875 Z M 6.8125 -1.859375 C 7.820312 -1.859375 8.597656 -2.109375 9.140625 -2.609375 C 9.679688 -3.117188 9.953125 -3.785156 9.953125 -4.609375 C 9.953125 -5.421875 9.679688 -6.070312 9.140625 -6.5625 C 8.597656 -7.050781 7.820312 -7.296875 6.8125 -7.296875 C 5.8125 -7.296875 5.035156 -7.050781 4.484375 -6.5625 C 3.941406 -6.070312 3.671875 -5.421875 3.671875 -4.609375 C 3.671875 -3.785156 3.941406 -3.117188 4.484375 -2.609375 C 5.035156 -2.109375 5.8125 -1.859375 6.8125 -1.859375 Z M 6.8125 -1.859375 " />
            </g>
        </g>
    </g>
    <g fill="#000000" fill-opacity="1">
        <g transform="translate(87.932479, 19.959679)">
            <g>
                <path
                    d="M 1.40625 0 L 1.40625 -2.859375 L 4.40625 -2.859375 L 4.40625 0 Z M 1.40625 0 " />
            </g>
        </g>
    </g>
</svg>