<svg xmlns="http://www.w3.org/2000/svg" xmlns:xlink="http://www.w3.org/1999/xlink" width="184" zoomAndPan="magnify" viewBox="0 0 138 30.000001" height="40" preserveAspectRatio="xMidYMid meet" version="1.0"><defs><g/><clipPath id="6feaeed9f0"><path d="M 2.226562 1.179688 L 29 1.179688 L 29 28 L 2.226562 28 Z M 2.226562 1.179688 " clip-rule="nonzero"/></clipPath></defs><g clip-path="url(#6feaeed9f0)"><path fill="#ffffff" d="M 20.234375 6.332031 L 20.234375 2.207031 C 20.234375 1.644531 20.695312 1.179688 21.261719 1.179688 L 27.859375 1.179688 C 28.425781 1.179688 28.886719 1.644531 28.886719 2.207031 L 28.886719 6.332031 C 28.886719 6.898438 28.425781 7.359375 27.859375 7.359375 L 26.214844 7.359375 L 26.214844 7.757812 L 26.695312 7.757812 C 27.238281 7.757812 27.636719 8.164062 27.636719 8.597656 L 27.636719 9.175781 C 27.636719 9.414062 27.445312 9.605469 27.207031 9.605469 L 21.914062 9.605469 C 21.675781 9.605469 21.484375 9.414062 21.484375 9.175781 L 21.484375 8.597656 C 21.484375 8.164062 21.882812 7.757812 22.421875 7.757812 L 22.90625 7.757812 L 22.90625 7.359375 L 21.261719 7.359375 C 20.695312 7.359375 20.234375 6.898438 20.234375 6.332031 Z M 28.027344 5.242188 L 28.027344 2.207031 C 28.027344 2.117188 27.953125 2.039062 27.859375 2.039062 L 21.261719 2.039062 C 21.167969 2.039062 21.09375 2.117188 21.09375 2.207031 L 21.09375 5.242188 Z M 25.355469 7.359375 L 23.765625 7.359375 L 23.765625 7.757812 L 25.355469 7.757812 Z M 21.09375 6.101562 L 21.09375 6.332031 C 21.09375 6.425781 21.167969 6.5 21.261719 6.5 L 27.859375 6.5 C 27.953125 6.5 28.027344 6.425781 28.027344 6.332031 L 28.027344 6.101562 Z M 22.34375 8.640625 L 22.34375 8.746094 C 22.34375 8.746094 26.777344 8.746094 26.777344 8.746094 L 26.777344 8.640625 C 26.757812 8.632812 26.722656 8.617188 26.695312 8.617188 L 22.421875 8.617188 C 22.398438 8.617188 22.363281 8.632812 22.34375 8.640625 Z M 20.234375 15.449219 L 20.234375 11.324219 C 20.234375 10.761719 20.695312 10.296875 21.261719 10.296875 L 27.859375 10.296875 C 28.425781 10.296875 28.886719 10.761719 28.886719 11.324219 L 28.886719 15.449219 C 28.886719 16.015625 28.425781 16.476562 27.859375 16.476562 L 26.214844 16.476562 L 26.214844 16.875 L 26.695312 16.875 C 27.238281 16.875 27.636719 17.28125 27.636719 17.714844 L 27.636719 18.292969 C 27.636719 18.53125 27.445312 18.722656 27.207031 18.722656 L 21.914062 18.722656 C 21.675781 18.722656 21.484375 18.53125 21.484375 18.292969 L 21.484375 17.714844 C 21.484375 17.28125 21.882812 16.875 22.421875 16.875 L 22.90625 16.875 L 22.90625 16.476562 L 21.261719 16.476562 C 20.695312 16.476562 20.234375 16.015625 20.234375 15.449219 Z M 28.027344 14.359375 L 28.027344 11.324219 C 28.027344 11.234375 27.953125 11.15625 27.859375 11.15625 L 21.261719 11.15625 C 21.167969 11.15625 21.09375 11.234375 21.09375 11.324219 L 21.09375 14.359375 Z M 25.355469 16.476562 L 23.765625 16.476562 L 23.765625 16.875 L 25.355469 16.875 Z M 21.09375 15.21875 L 21.09375 15.449219 C 21.09375 15.542969 21.167969 15.617188 21.261719 15.617188 L 27.859375 15.617188 C 27.953125 15.617188 28.027344 15.542969 28.027344 15.449219 L 28.027344 15.21875 Z M 22.34375 17.757812 L 22.34375 17.863281 C 22.34375 17.863281 26.777344 17.863281 26.777344 17.863281 L 26.777344 17.757812 C 26.757812 17.75 26.722656 17.734375 26.695312 17.734375 L 22.421875 17.734375 C 22.398438 17.734375 22.363281 17.75 22.34375 17.757812 Z M 20.234375 24.566406 L 20.234375 20.441406 C 20.234375 19.878906 20.695312 19.414062 21.261719 19.414062 L 27.859375 19.414062 C 28.425781 19.414062 28.886719 19.878906 28.886719 20.441406 L 28.886719 24.566406 C 28.886719 25.132812 28.425781 25.59375 27.859375 25.59375 L 26.214844 25.59375 L 26.214844 25.992188 L 26.695312 25.992188 C 27.238281 25.992188 27.636719 26.398438 27.636719 26.832031 L 27.636719 27.410156 C 27.636719 27.648438 27.445312 27.839844 27.207031 27.839844 L 21.914062 27.839844 C 21.675781 27.839844 21.484375 27.648438 21.484375 27.410156 L 21.484375 26.832031 C 21.484375 26.398438 21.882812 25.992188 22.421875 25.992188 L 22.90625 25.992188 L 22.90625 25.59375 L 21.261719 25.59375 C 20.695312 25.59375 20.234375 25.132812 20.234375 24.566406 Z M 28.027344 23.476562 L 28.027344 20.441406 C 28.027344 20.351562 27.953125 20.273438 27.859375 20.273438 L 21.261719 20.273438 C 21.167969 20.273438 21.09375 20.351562 21.09375 20.441406 L 21.09375 23.476562 Z M 25.355469 25.59375 L 23.765625 25.59375 L 23.765625 25.992188 L 25.355469 25.992188 Z M 21.09375 24.335938 L 21.09375 24.566406 C 21.09375 24.660156 21.167969 24.734375 21.261719 24.734375 L 27.859375 24.734375 C 27.953125 24.734375 28.027344 24.660156 28.027344 24.566406 L 28.027344 24.335938 Z M 22.34375 26.875 L 22.34375 26.980469 C 22.34375 26.980469 26.777344 26.980469 26.777344 26.980469 L 26.777344 26.875 C 26.757812 26.867188 26.722656 26.851562 26.695312 26.851562 L 22.421875 26.851562 C 22.398438 26.851562 22.363281 26.867188 22.34375 26.875 Z M 14.421875 16.09375 C 13.726562 15.902344 13.214844 15.265625 13.214844 14.511719 C 13.214844 13.753906 13.726562 13.117188 14.421875 12.929688 L 14.421875 5.394531 C 14.421875 5.15625 14.617188 4.964844 14.851562 4.964844 L 18.15625 4.964844 C 18.390625 4.964844 18.585938 5.15625 18.585938 5.394531 C 18.585938 5.628906 18.390625 5.824219 18.15625 5.824219 L 15.28125 5.824219 L 15.28125 12.929688 C 15.84375 13.082031 16.285156 13.519531 16.433594 14.082031 L 18.15625 14.082031 C 18.390625 14.082031 18.585938 14.273438 18.585938 14.511719 C 18.585938 14.746094 18.390625 14.941406 18.15625 14.941406 L 16.433594 14.941406 C 16.285156 15.5 15.84375 15.941406 15.28125 16.09375 C 15.28125 17.605469 15.28125 23.199219 15.28125 23.199219 L 18.15625 23.199219 C 18.390625 23.199219 18.585938 23.390625 18.585938 23.628906 C 18.585938 23.863281 18.390625 24.058594 18.15625 24.058594 L 14.851562 24.058594 C 14.617188 24.058594 14.421875 23.867188 14.421875 23.628906 Z M 14.851562 13.730469 C 14.421875 13.730469 14.074219 14.082031 14.074219 14.511719 C 14.074219 14.941406 14.421875 15.289062 14.851562 15.289062 C 15.28125 15.289062 15.632812 14.941406 15.632812 14.511719 C 15.632812 14.082031 15.28125 13.730469 14.851562 13.730469 Z M 4.242188 13.605469 L 2.957031 13.605469 C 2.761719 13.605469 2.578125 13.527344 2.441406 13.390625 C 2.300781 13.253906 2.226562 13.070312 2.226562 12.875 L 2.226562 9.5 C 2.226562 9.304688 2.300781 9.121094 2.441406 8.984375 C 2.578125 8.84375 2.761719 8.769531 2.957031 8.769531 L 12.203125 8.769531 C 12.398438 8.769531 12.582031 8.84375 12.71875 8.984375 C 12.855469 9.121094 12.933594 9.304688 12.933594 9.5 L 12.933594 12.875 C 12.933594 13.070312 12.855469 13.253906 12.71875 13.390625 C 12.582031 13.527344 12.398438 13.605469 12.203125 13.605469 L 10.917969 13.605469 L 10.917969 15.414062 L 12.203125 15.414062 C 12.398438 15.414062 12.582031 15.492188 12.71875 15.628906 C 12.855469 15.765625 12.933594 15.953125 12.933594 16.144531 L 12.933594 19.523438 C 12.933594 19.714844 12.855469 19.902344 12.71875 20.039062 C 12.582031 20.175781 12.398438 20.253906 12.203125 20.253906 L 2.957031 20.253906 C 2.761719 20.253906 2.578125 20.175781 2.441406 20.039062 C 2.300781 19.902344 2.226562 19.714844 2.226562 19.523438 L 2.226562 16.144531 C 2.226562 15.953125 2.300781 15.765625 2.441406 15.628906 C 2.578125 15.492188 2.761719 15.414062 2.957031 15.414062 L 4.242188 15.414062 Z M 10.058594 13.605469 L 5.101562 13.605469 L 5.101562 15.414062 L 10.058594 15.414062 Z M 3.085938 16.273438 L 3.085938 19.394531 L 12.074219 19.394531 L 12.074219 16.273438 Z M 8.078125 18.265625 C 7.839844 18.265625 7.644531 18.070312 7.644531 17.835938 C 7.644531 17.597656 7.839844 17.402344 8.078125 17.402344 L 10.746094 17.402344 C 10.980469 17.402344 11.175781 17.597656 11.175781 17.835938 C 11.175781 18.070312 10.980469 18.265625 10.746094 18.265625 Z M 4.925781 16.550781 C 5.632812 16.550781 6.207031 17.125 6.207031 17.835938 C 6.207031 18.542969 5.632812 19.117188 4.925781 19.117188 C 4.21875 19.117188 3.644531 18.542969 3.644531 17.835938 C 3.644531 17.125 4.21875 16.550781 4.925781 16.550781 Z M 4.925781 17.414062 C 4.691406 17.414062 4.503906 17.601562 4.503906 17.835938 C 4.503906 18.066406 4.691406 18.253906 4.925781 18.253906 C 5.15625 18.253906 5.347656 18.066406 5.347656 17.835938 C 5.347656 17.601562 5.15625 17.414062 4.925781 17.414062 Z M 3.085938 9.628906 L 3.085938 12.746094 L 12.074219 12.746094 L 12.074219 9.628906 Z M 4.925781 9.90625 C 5.632812 9.90625 6.207031 10.480469 6.207031 11.1875 C 6.207031 11.894531 5.632812 12.46875 4.925781 12.46875 C 4.21875 12.46875 3.644531 11.894531 3.644531 11.1875 C 3.644531 10.480469 4.21875 9.90625 4.925781 9.90625 Z M 4.925781 10.765625 C 4.691406 10.765625 4.503906 10.953125 4.503906 11.1875 C 4.503906 11.417969 4.691406 11.609375 4.925781 11.609375 C 5.15625 11.609375 5.347656 11.417969 5.347656 11.1875 C 5.347656 10.953125 5.15625 10.765625 4.925781 10.765625 Z M 8.078125 11.617188 C 7.839844 11.617188 7.644531 11.425781 7.644531 11.1875 C 7.644531 10.949219 7.839844 10.757812 8.078125 10.757812 L 10.746094 10.757812 C 10.980469 10.757812 11.175781 10.949219 11.175781 11.1875 C 11.175781 11.425781 10.980469 11.617188 10.746094 11.617188 Z M 8.078125 11.617188 " fill-opacity="1" fill-rule="evenodd"/></g><g fill="#ffffff" fill-opacity="1"><g transform="translate(35.358507, 18.145163)"><g><path d="M 0.875 0 L 0.875 -7.5625 L 3.015625 -7.5625 C 3.671875 -7.5625 4.25 -7.414062 4.75 -7.125 C 5.257812 -6.832031 5.648438 -6.414062 5.921875 -5.875 C 6.203125 -5.34375 6.34375 -4.726562 6.34375 -4.03125 L 6.34375 -3.546875 C 6.34375 -2.835938 6.203125 -2.210938 5.921875 -1.671875 C 5.648438 -1.140625 5.257812 -0.726562 4.75 -0.4375 C 4.238281 -0.15625 3.644531 -0.0078125 2.96875 0 Z M 1.875 -6.75 L 1.875 -0.8125 L 2.921875 -0.8125 C 3.691406 -0.8125 4.289062 -1.050781 4.71875 -1.53125 C 5.144531 -2.007812 5.359375 -2.691406 5.359375 -3.578125 L 5.359375 -4.015625 C 5.359375 -4.878906 5.15625 -5.546875 4.75 -6.015625 C 4.351562 -6.492188 3.785156 -6.738281 3.046875 -6.75 Z M 1.875 -6.75 "/></g></g></g><g fill="#ffffff" fill-opacity="1"><g transform="translate(42.334238, 18.145163)"><g><path d="M 1.765625 0 L 0.8125 0 L 0.8125 -5.625 L 1.765625 -5.625 Z M 0.734375 -7.109375 C 0.734375 -7.265625 0.78125 -7.394531 0.875 -7.5 C 0.96875 -7.613281 1.109375 -7.671875 1.296875 -7.671875 C 1.484375 -7.671875 1.625 -7.613281 1.71875 -7.5 C 1.820312 -7.394531 1.875 -7.265625 1.875 -7.109375 C 1.875 -6.953125 1.820312 -6.820312 1.71875 -6.71875 C 1.625 -6.613281 1.484375 -6.5625 1.296875 -6.5625 C 1.109375 -6.5625 0.96875 -6.613281 0.875 -6.71875 C 0.78125 -6.820312 0.734375 -6.953125 0.734375 -7.109375 Z M 0.734375 -7.109375 "/></g></g></g><g fill="#ffffff" fill-opacity="1"><g transform="translate(44.915726, 18.145163)"><g><path d="M 4 -1.484375 C 4 -1.742188 3.898438 -1.945312 3.703125 -2.09375 C 3.503906 -2.238281 3.160156 -2.363281 2.671875 -2.46875 C 2.191406 -2.570312 1.804688 -2.695312 1.515625 -2.84375 C 1.234375 -2.988281 1.023438 -3.160156 0.890625 -3.359375 C 0.753906 -3.554688 0.6875 -3.796875 0.6875 -4.078125 C 0.6875 -4.535156 0.878906 -4.921875 1.265625 -5.234375 C 1.660156 -5.554688 2.160156 -5.71875 2.765625 -5.71875 C 3.398438 -5.71875 3.914062 -5.550781 4.3125 -5.21875 C 4.707031 -4.894531 4.90625 -4.476562 4.90625 -3.96875 L 3.9375 -3.96875 C 3.9375 -4.226562 3.820312 -4.453125 3.59375 -4.640625 C 3.375 -4.835938 3.097656 -4.9375 2.765625 -4.9375 C 2.410156 -4.9375 2.132812 -4.859375 1.9375 -4.703125 C 1.738281 -4.554688 1.640625 -4.359375 1.640625 -4.109375 C 1.640625 -3.878906 1.734375 -3.703125 1.921875 -3.578125 C 2.109375 -3.460938 2.441406 -3.351562 2.921875 -3.25 C 3.398438 -3.144531 3.785156 -3.015625 4.078125 -2.859375 C 4.378906 -2.710938 4.601562 -2.535156 4.75 -2.328125 C 4.894531 -2.117188 4.96875 -1.863281 4.96875 -1.5625 C 4.96875 -1.0625 4.765625 -0.65625 4.359375 -0.34375 C 3.953125 -0.0390625 3.429688 0.109375 2.796875 0.109375 C 2.347656 0.109375 1.945312 0.03125 1.59375 -0.125 C 1.25 -0.289062 0.976562 -0.515625 0.78125 -0.796875 C 0.59375 -1.085938 0.5 -1.398438 0.5 -1.734375 L 1.453125 -1.734375 C 1.472656 -1.410156 1.601562 -1.15625 1.84375 -0.96875 C 2.082031 -0.78125 2.398438 -0.6875 2.796875 -0.6875 C 3.160156 -0.6875 3.453125 -0.757812 3.671875 -0.90625 C 3.890625 -1.050781 4 -1.242188 4 -1.484375 Z M 4 -1.484375 "/></g></g></g><g fill="#ffffff" fill-opacity="1"><g transform="translate(50.400739, 18.145163)"><g><path d="M 2.03125 -6.984375 L 2.03125 -5.625 L 3.078125 -5.625 L 3.078125 -4.875 L 2.03125 -4.875 L 2.03125 -1.390625 C 2.03125 -1.171875 2.078125 -1.003906 2.171875 -0.890625 C 2.265625 -0.773438 2.425781 -0.71875 2.65625 -0.71875 C 2.757812 -0.71875 2.910156 -0.738281 3.109375 -0.78125 L 3.109375 0 C 2.859375 0.0703125 2.613281 0.109375 2.375 0.109375 C 1.9375 0.109375 1.609375 -0.0195312 1.390625 -0.28125 C 1.171875 -0.539062 1.0625 -0.910156 1.0625 -1.390625 L 1.0625 -4.875 L 0.046875 -4.875 L 0.046875 -5.625 L 1.0625 -5.625 L 1.0625 -6.984375 Z M 2.03125 -6.984375 "/></g></g></g><g fill="#ffffff" fill-opacity="1"><g transform="translate(53.87562, 18.145163)"><g><path d="M 3.4375 -4.765625 C 3.289062 -4.785156 3.132812 -4.796875 2.96875 -4.796875 C 2.34375 -4.796875 1.914062 -4.523438 1.6875 -3.984375 L 1.6875 0 L 0.734375 0 L 0.734375 -5.625 L 1.65625 -5.625 L 1.671875 -4.96875 C 1.992188 -5.46875 2.441406 -5.71875 3.015625 -5.71875 C 3.203125 -5.71875 3.34375 -5.695312 3.4375 -5.65625 Z M 3.4375 -4.765625 "/></g></g></g><g fill="#ffffff" fill-opacity="1"><g transform="translate(57.475159, 18.145163)"><g><path d="M 1.765625 0 L 0.8125 0 L 0.8125 -5.625 L 1.765625 -5.625 Z M 0.734375 -7.109375 C 0.734375 -7.265625 0.78125 -7.394531 0.875 -7.5 C 0.96875 -7.613281 1.109375 -7.671875 1.296875 -7.671875 C 1.484375 -7.671875 1.625 -7.613281 1.71875 -7.5 C 1.820312 -7.394531 1.875 -7.265625 1.875 -7.109375 C 1.875 -6.953125 1.820312 -6.820312 1.71875 -6.71875 C 1.625 -6.613281 1.484375 -6.5625 1.296875 -6.5625 C 1.109375 -6.5625 0.96875 -6.613281 0.875 -6.71875 C 0.78125 -6.820312 0.734375 -6.953125 0.734375 -7.109375 Z M 0.734375 -7.109375 "/></g></g></g><g fill="#ffffff" fill-opacity="1"><g transform="translate(60.056647, 18.145163)"><g><path d="M 5.484375 -2.75 C 5.484375 -1.882812 5.285156 -1.191406 4.890625 -0.671875 C 4.492188 -0.148438 3.960938 0.109375 3.296875 0.109375 C 2.585938 0.109375 2.039062 -0.144531 1.65625 -0.65625 L 1.609375 0 L 0.734375 0 L 0.734375 -7.984375 L 1.6875 -7.984375 L 1.6875 -5 C 2.070312 -5.476562 2.601562 -5.71875 3.28125 -5.71875 C 3.96875 -5.71875 4.503906 -5.457031 4.890625 -4.9375 C 5.285156 -4.425781 5.484375 -3.722656 5.484375 -2.828125 Z M 4.53125 -2.859375 C 4.53125 -3.515625 4.398438 -4.019531 4.140625 -4.375 C 3.890625 -4.726562 3.53125 -4.90625 3.0625 -4.90625 C 2.425781 -4.90625 1.96875 -4.613281 1.6875 -4.03125 L 1.6875 -1.59375 C 1.976562 -1.007812 2.4375 -0.71875 3.0625 -0.71875 C 3.519531 -0.71875 3.878906 -0.894531 4.140625 -1.25 C 4.398438 -1.601562 4.53125 -2.140625 4.53125 -2.859375 Z M 4.53125 -2.859375 "/></g></g></g><g fill="#ffffff" fill-opacity="1"><g transform="translate(66.024715, 18.145163)"><g><path d="M 4.203125 -0.5625 C 3.828125 -0.113281 3.273438 0.109375 2.546875 0.109375 C 1.953125 0.109375 1.5 -0.0625 1.1875 -0.40625 C 0.875 -0.757812 0.710938 -1.28125 0.703125 -1.96875 L 0.703125 -5.625 L 1.671875 -5.625 L 1.671875 -1.984375 C 1.671875 -1.140625 2.015625 -0.71875 2.703125 -0.71875 C 3.441406 -0.71875 3.929688 -0.988281 4.171875 -1.53125 L 4.171875 -5.625 L 5.140625 -5.625 L 5.140625 0 L 4.21875 0 Z M 4.203125 -0.5625 "/></g></g></g><g fill="#ffffff" fill-opacity="1"><g transform="translate(71.888901, 18.145163)"><g><path d="M 2.03125 -6.984375 L 2.03125 -5.625 L 3.078125 -5.625 L 3.078125 -4.875 L 2.03125 -4.875 L 2.03125 -1.390625 C 2.03125 -1.171875 2.078125 -1.003906 2.171875 -0.890625 C 2.265625 -0.773438 2.425781 -0.71875 2.65625 -0.71875 C 2.757812 -0.71875 2.910156 -0.738281 3.109375 -0.78125 L 3.109375 0 C 2.859375 0.0703125 2.613281 0.109375 2.375 0.109375 C 1.9375 0.109375 1.609375 -0.0195312 1.390625 -0.28125 C 1.171875 -0.539062 1.0625 -0.910156 1.0625 -1.390625 L 1.0625 -4.875 L 0.046875 -4.875 L 0.046875 -5.625 L 1.0625 -5.625 L 1.0625 -6.984375 Z M 2.03125 -6.984375 "/></g></g></g><g fill="#ffffff" fill-opacity="1"><g transform="translate(75.363781, 18.145163)"><g><path d="M 3.0625 0.109375 C 2.300781 0.109375 1.679688 -0.140625 1.203125 -0.640625 C 0.722656 -1.140625 0.484375 -1.8125 0.484375 -2.65625 L 0.484375 -2.828125 C 0.484375 -3.390625 0.585938 -3.890625 0.796875 -4.328125 C 1.015625 -4.765625 1.3125 -5.101562 1.6875 -5.34375 C 2.070312 -5.59375 2.488281 -5.71875 2.9375 -5.71875 C 3.664062 -5.71875 4.234375 -5.476562 4.640625 -5 C 5.046875 -4.519531 5.25 -3.832031 5.25 -2.9375 L 5.25 -2.53125 L 1.4375 -2.53125 C 1.457031 -1.976562 1.617188 -1.53125 1.921875 -1.1875 C 2.234375 -0.851562 2.628906 -0.6875 3.109375 -0.6875 C 3.453125 -0.6875 3.738281 -0.753906 3.96875 -0.890625 C 4.207031 -1.023438 4.414062 -1.207031 4.59375 -1.4375 L 5.1875 -0.984375 C 4.707031 -0.253906 4 0.109375 3.0625 0.109375 Z M 2.9375 -4.9375 C 2.550781 -4.9375 2.222656 -4.796875 1.953125 -4.515625 C 1.691406 -4.234375 1.53125 -3.835938 1.46875 -3.328125 L 4.296875 -3.328125 L 4.296875 -3.390625 C 4.265625 -3.878906 4.128906 -4.257812 3.890625 -4.53125 C 3.660156 -4.800781 3.34375 -4.9375 2.9375 -4.9375 Z M 2.9375 -4.9375 "/></g></g></g><g fill="#ffffff" fill-opacity="1"><g transform="translate(80.999424, 18.145163)"><g><path d="M 0.5 -2.859375 C 0.5 -3.722656 0.703125 -4.414062 1.109375 -4.9375 C 1.515625 -5.457031 2.050781 -5.71875 2.71875 -5.71875 C 3.375 -5.71875 3.894531 -5.492188 4.28125 -5.046875 L 4.28125 -7.984375 L 5.234375 -7.984375 L 5.234375 0 L 4.359375 0 L 4.3125 -0.609375 C 3.925781 -0.128906 3.390625 0.109375 2.703125 0.109375 C 2.046875 0.109375 1.515625 -0.15625 1.109375 -0.6875 C 0.703125 -1.226562 0.5 -1.925781 0.5 -2.78125 Z M 1.453125 -2.75 C 1.453125 -2.113281 1.582031 -1.613281 1.84375 -1.25 C 2.113281 -0.894531 2.476562 -0.71875 2.9375 -0.71875 C 3.550781 -0.71875 4 -0.988281 4.28125 -1.53125 L 4.28125 -4.109375 C 3.988281 -4.640625 3.546875 -4.90625 2.953125 -4.90625 C 2.484375 -4.90625 2.113281 -4.722656 1.84375 -4.359375 C 1.582031 -3.992188 1.453125 -3.457031 1.453125 -2.75 Z M 1.453125 -2.75 "/></g></g></g><g fill="#ffffff" fill-opacity="1"><g transform="translate(89.632086, 18.145163)"><g><path d="M 3.109375 -3.375 C 2.253906 -3.613281 1.628906 -3.910156 1.234375 -4.265625 C 0.847656 -4.628906 0.65625 -5.078125 0.65625 -5.609375 C 0.65625 -6.203125 0.890625 -6.691406 1.359375 -7.078125 C 1.835938 -7.472656 2.457031 -7.671875 3.21875 -7.671875 C 3.738281 -7.671875 4.203125 -7.566406 4.609375 -7.359375 C 5.023438 -7.160156 5.34375 -6.882812 5.5625 -6.53125 C 5.78125 -6.175781 5.890625 -5.789062 5.890625 -5.375 L 4.890625 -5.375 C 4.890625 -5.832031 4.742188 -6.191406 4.453125 -6.453125 C 4.160156 -6.710938 3.75 -6.84375 3.21875 -6.84375 C 2.726562 -6.84375 2.34375 -6.734375 2.0625 -6.515625 C 1.789062 -6.304688 1.65625 -6.007812 1.65625 -5.625 C 1.65625 -5.3125 1.785156 -5.046875 2.046875 -4.828125 C 2.316406 -4.617188 2.765625 -4.425781 3.390625 -4.25 C 4.015625 -4.070312 4.503906 -3.875 4.859375 -3.65625 C 5.210938 -3.445312 5.472656 -3.203125 5.640625 -2.921875 C 5.816406 -2.640625 5.90625 -2.304688 5.90625 -1.921875 C 5.90625 -1.304688 5.664062 -0.8125 5.1875 -0.4375 C 4.71875 -0.0703125 4.082031 0.109375 3.28125 0.109375 C 2.757812 0.109375 2.269531 0.0078125 1.8125 -0.1875 C 1.363281 -0.394531 1.019531 -0.671875 0.78125 -1.015625 C 0.539062 -1.359375 0.421875 -1.75 0.421875 -2.1875 L 1.421875 -2.1875 C 1.421875 -1.726562 1.585938 -1.367188 1.921875 -1.109375 C 2.265625 -0.847656 2.71875 -0.71875 3.28125 -0.71875 C 3.800781 -0.71875 4.203125 -0.820312 4.484375 -1.03125 C 4.765625 -1.25 4.90625 -1.539062 4.90625 -1.90625 C 4.90625 -2.28125 4.773438 -2.566406 4.515625 -2.765625 C 4.253906 -2.972656 3.785156 -3.175781 3.109375 -3.375 Z M 3.109375 -3.375 "/></g></g></g><g fill="#ffffff" fill-opacity="1"><g transform="translate(95.942967, 18.145163)"><g><path d="M 2.5625 -1.40625 L 3.875 -5.625 L 4.90625 -5.625 L 2.640625 0.875 C 2.296875 1.800781 1.742188 2.265625 0.984375 2.265625 L 0.796875 2.25 L 0.4375 2.1875 L 0.4375 1.40625 L 0.703125 1.421875 C 1.023438 1.421875 1.273438 1.351562 1.453125 1.21875 C 1.640625 1.09375 1.789062 0.859375 1.90625 0.515625 L 2.125 -0.0625 L 0.109375 -5.625 L 1.15625 -5.625 Z M 2.5625 -1.40625 "/></g></g></g><g fill="#ffffff" fill-opacity="1"><g transform="translate(100.97609, 18.145163)"><g><path d="M 4 -1.484375 C 4 -1.742188 3.898438 -1.945312 3.703125 -2.09375 C 3.503906 -2.238281 3.160156 -2.363281 2.671875 -2.46875 C 2.191406 -2.570312 1.804688 -2.695312 1.515625 -2.84375 C 1.234375 -2.988281 1.023438 -3.160156 0.890625 -3.359375 C 0.753906 -3.554688 0.6875 -3.796875 0.6875 -4.078125 C 0.6875 -4.535156 0.878906 -4.921875 1.265625 -5.234375 C 1.660156 -5.554688 2.160156 -5.71875 2.765625 -5.71875 C 3.398438 -5.71875 3.914062 -5.550781 4.3125 -5.21875 C 4.707031 -4.894531 4.90625 -4.476562 4.90625 -3.96875 L 3.9375 -3.96875 C 3.9375 -4.226562 3.820312 -4.453125 3.59375 -4.640625 C 3.375 -4.835938 3.097656 -4.9375 2.765625 -4.9375 C 2.410156 -4.9375 2.132812 -4.859375 1.9375 -4.703125 C 1.738281 -4.554688 1.640625 -4.359375 1.640625 -4.109375 C 1.640625 -3.878906 1.734375 -3.703125 1.921875 -3.578125 C 2.109375 -3.460938 2.441406 -3.351562 2.921875 -3.25 C 3.398438 -3.144531 3.785156 -3.015625 4.078125 -2.859375 C 4.378906 -2.710938 4.601562 -2.535156 4.75 -2.328125 C 4.894531 -2.117188 4.96875 -1.863281 4.96875 -1.5625 C 4.96875 -1.0625 4.765625 -0.65625 4.359375 -0.34375 C 3.953125 -0.0390625 3.429688 0.109375 2.796875 0.109375 C 2.347656 0.109375 1.945312 0.03125 1.59375 -0.125 C 1.25 -0.289062 0.976562 -0.515625 0.78125 -0.796875 C 0.59375 -1.085938 0.5 -1.398438 0.5 -1.734375 L 1.453125 -1.734375 C 1.472656 -1.410156 1.601562 -1.15625 1.84375 -0.96875 C 2.082031 -0.78125 2.398438 -0.6875 2.796875 -0.6875 C 3.160156 -0.6875 3.453125 -0.757812 3.671875 -0.90625 C 3.890625 -1.050781 4 -1.242188 4 -1.484375 Z M 4 -1.484375 "/></g></g></g><g fill="#ffffff" fill-opacity="1"><g transform="translate(106.461103, 18.145163)"><g><path d="M 2.03125 -6.984375 L 2.03125 -5.625 L 3.078125 -5.625 L 3.078125 -4.875 L 2.03125 -4.875 L 2.03125 -1.390625 C 2.03125 -1.171875 2.078125 -1.003906 2.171875 -0.890625 C 2.265625 -0.773438 2.425781 -0.71875 2.65625 -0.71875 C 2.757812 -0.71875 2.910156 -0.738281 3.109375 -0.78125 L 3.109375 0 C 2.859375 0.0703125 2.613281 0.109375 2.375 0.109375 C 1.9375 0.109375 1.609375 -0.0195312 1.390625 -0.28125 C 1.171875 -0.539062 1.0625 -0.910156 1.0625 -1.390625 L 1.0625 -4.875 L 0.046875 -4.875 L 0.046875 -5.625 L 1.0625 -5.625 L 1.0625 -6.984375 Z M 2.03125 -6.984375 "/></g></g></g><g fill="#ffffff" fill-opacity="1"><g transform="translate(109.935983, 18.145163)"><g><path d="M 3.0625 0.109375 C 2.300781 0.109375 1.679688 -0.140625 1.203125 -0.640625 C 0.722656 -1.140625 0.484375 -1.8125 0.484375 -2.65625 L 0.484375 -2.828125 C 0.484375 -3.390625 0.585938 -3.890625 0.796875 -4.328125 C 1.015625 -4.765625 1.3125 -5.101562 1.6875 -5.34375 C 2.070312 -5.59375 2.488281 -5.71875 2.9375 -5.71875 C 3.664062 -5.71875 4.234375 -5.476562 4.640625 -5 C 5.046875 -4.519531 5.25 -3.832031 5.25 -2.9375 L 5.25 -2.53125 L 1.4375 -2.53125 C 1.457031 -1.976562 1.617188 -1.53125 1.921875 -1.1875 C 2.234375 -0.851562 2.628906 -0.6875 3.109375 -0.6875 C 3.453125 -0.6875 3.738281 -0.753906 3.96875 -0.890625 C 4.207031 -1.023438 4.414062 -1.207031 4.59375 -1.4375 L 5.1875 -0.984375 C 4.707031 -0.253906 4 0.109375 3.0625 0.109375 Z M 2.9375 -4.9375 C 2.550781 -4.9375 2.222656 -4.796875 1.953125 -4.515625 C 1.691406 -4.234375 1.53125 -3.835938 1.46875 -3.328125 L 4.296875 -3.328125 L 4.296875 -3.390625 C 4.265625 -3.878906 4.128906 -4.257812 3.890625 -4.53125 C 3.660156 -4.800781 3.34375 -4.9375 2.9375 -4.9375 Z M 2.9375 -4.9375 "/></g></g></g><g fill="#ffffff" fill-opacity="1"><g transform="translate(115.571626, 18.145163)"><g><path d="M 1.625 -5.625 L 1.65625 -5 C 2.070312 -5.476562 2.628906 -5.71875 3.328125 -5.71875 C 4.109375 -5.71875 4.644531 -5.421875 4.9375 -4.828125 C 5.125 -5.097656 5.363281 -5.3125 5.65625 -5.46875 C 5.957031 -5.632812 6.3125 -5.71875 6.71875 -5.71875 C 7.957031 -5.71875 8.585938 -5.066406 8.609375 -3.765625 L 8.609375 0 L 7.640625 0 L 7.640625 -3.703125 C 7.640625 -4.109375 7.546875 -4.410156 7.359375 -4.609375 C 7.179688 -4.804688 6.875 -4.90625 6.4375 -4.90625 C 6.082031 -4.90625 5.785156 -4.796875 5.546875 -4.578125 C 5.316406 -4.367188 5.179688 -4.085938 5.140625 -3.734375 L 5.140625 0 L 4.171875 0 L 4.171875 -3.6875 C 4.171875 -4.5 3.773438 -4.90625 2.984375 -4.90625 C 2.347656 -4.90625 1.914062 -4.640625 1.6875 -4.109375 L 1.6875 0 L 0.71875 0 L 0.71875 -5.625 Z M 1.625 -5.625 "/></g></g></g><g fill="#ffffff" fill-opacity="1"><g transform="translate(124.895109, 18.145163)"><g><path d="M 4 -1.484375 C 4 -1.742188 3.898438 -1.945312 3.703125 -2.09375 C 3.503906 -2.238281 3.160156 -2.363281 2.671875 -2.46875 C 2.191406 -2.570312 1.804688 -2.695312 1.515625 -2.84375 C 1.234375 -2.988281 1.023438 -3.160156 0.890625 -3.359375 C 0.753906 -3.554688 0.6875 -3.796875 0.6875 -4.078125 C 0.6875 -4.535156 0.878906 -4.921875 1.265625 -5.234375 C 1.660156 -5.554688 2.160156 -5.71875 2.765625 -5.71875 C 3.398438 -5.71875 3.914062 -5.550781 4.3125 -5.21875 C 4.707031 -4.894531 4.90625 -4.476562 4.90625 -3.96875 L 3.9375 -3.96875 C 3.9375 -4.226562 3.820312 -4.453125 3.59375 -4.640625 C 3.375 -4.835938 3.097656 -4.9375 2.765625 -4.9375 C 2.410156 -4.9375 2.132812 -4.859375 1.9375 -4.703125 C 1.738281 -4.554688 1.640625 -4.359375 1.640625 -4.109375 C 1.640625 -3.878906 1.734375 -3.703125 1.921875 -3.578125 C 2.109375 -3.460938 2.441406 -3.351562 2.921875 -3.25 C 3.398438 -3.144531 3.785156 -3.015625 4.078125 -2.859375 C 4.378906 -2.710938 4.601562 -2.535156 4.75 -2.328125 C 4.894531 -2.117188 4.96875 -1.863281 4.96875 -1.5625 C 4.96875 -1.0625 4.765625 -0.65625 4.359375 -0.34375 C 3.953125 -0.0390625 3.429688 0.109375 2.796875 0.109375 C 2.347656 0.109375 1.945312 0.03125 1.59375 -0.125 C 1.25 -0.289062 0.976562 -0.515625 0.78125 -0.796875 C 0.59375 -1.085938 0.5 -1.398438 0.5 -1.734375 L 1.453125 -1.734375 C 1.472656 -1.410156 1.601562 -1.15625 1.84375 -0.96875 C 2.082031 -0.78125 2.398438 -0.6875 2.796875 -0.6875 C 3.160156 -0.6875 3.453125 -0.757812 3.671875 -0.90625 C 3.890625 -1.050781 4 -1.242188 4 -1.484375 Z M 4 -1.484375 "/></g></g></g></svg>