<svg xmlns="http://www.w3.org/2000/svg" xmlns:xlink="http://www.w3.org/1999/xlink" width="184" zoomAndPan="magnify" viewBox="0 0 138 30.000001" height="40" preserveAspectRatio="xMidYMid meet" version="1.0"><defs><g/><clipPath id="b3a791ef91"><path d="M 11 2.3125 L 24 2.3125 L 24 11 L 11 11 Z M 11 2.3125 " clip-rule="nonzero"/></clipPath><clipPath id="df2e256474"><path d="M 4 16 L 26.902344 16 L 26.902344 26.988281 L 4 26.988281 Z M 4 16 " clip-rule="nonzero"/></clipPath><clipPath id="4a97fc4d8d"><path d="M 2.226562 16 L 22 16 L 22 26 L 2.226562 26 Z M 2.226562 16 " clip-rule="nonzero"/></clipPath></defs><g clip-path="url(#b3a791ef91)"><path fill="#ff8d8d" d="M 22.914062 5.148438 L 19.832031 2.457031 C 19.71875 2.355469 19.554688 2.332031 19.417969 2.394531 C 19.28125 2.457031 19.191406 2.59375 19.191406 2.746094 L 19.191406 3.910156 C 17.46875 3.984375 15.839844 4.570312 14.460938 5.609375 C 13.027344 6.695312 11.957031 8.230469 11.445312 9.941406 C 11.410156 10.058594 11.433594 10.183594 11.507812 10.28125 C 11.578125 10.378906 11.695312 10.4375 11.816406 10.4375 L 14.273438 10.4375 C 14.429688 10.4375 14.566406 10.347656 14.628906 10.207031 C 15.4375 8.363281 17.199219 7.132812 19.191406 6.988281 L 19.191406 8.128906 C 19.191406 8.28125 19.28125 8.417969 19.417969 8.480469 C 19.554688 8.542969 19.714844 8.519531 19.832031 8.417969 L 22.914062 5.726562 C 23 5.65625 23.046875 5.550781 23.046875 5.4375 C 23.046875 5.328125 23 5.222656 22.914062 5.148438 Z M 22.914062 5.148438 " fill-opacity="1" fill-rule="nonzero"/></g><g clip-path="url(#df2e256474)"><path fill="#61adf7" d="M 26.773438 23.605469 L 23.6875 20.914062 C 23.574219 20.8125 23.410156 20.789062 23.273438 20.851562 C 23.136719 20.914062 23.046875 21.050781 23.046875 21.203125 L 23.046875 22.355469 L 13.023438 22.355469 C 10.046875 22.355469 7.625 19.941406 7.625 16.972656 C 7.625 16.761719 7.453125 16.589844 7.238281 16.589844 L 4.925781 16.589844 C 4.710938 16.589844 4.539062 16.761719 4.539062 16.972656 C 4.539062 21.636719 8.34375 25.433594 13.023438 25.433594 L 23.046875 25.433594 L 23.046875 26.585938 C 23.046875 26.738281 23.136719 26.875 23.273438 26.9375 C 23.324219 26.960938 23.378906 26.96875 23.433594 26.96875 C 23.523438 26.96875 23.613281 26.9375 23.6875 26.875 L 26.773438 24.183594 C 26.855469 24.109375 26.902344 24.003906 26.902344 23.894531 C 26.902344 23.785156 26.855469 23.679688 26.773438 23.605469 Z M 26.773438 23.605469 " fill-opacity="1" fill-rule="nonzero"/></g><path fill="#62d090" d="M 13.023438 8.515625 C 8.34375 8.515625 4.539062 12.308594 4.539062 16.972656 L 7.625 16.972656 C 7.625 14.003906 10.046875 11.589844 13.023438 11.589844 C 13.234375 11.589844 13.40625 11.417969 13.40625 11.207031 L 13.40625 8.898438 C 13.40625 8.6875 13.234375 8.515625 13.023438 8.515625 Z M 13.023438 8.515625 " fill-opacity="1" fill-rule="nonzero"/><path fill="#ffd467" d="M 13.023438 8.515625 L 13.023438 11.589844 C 16 11.589844 18.421875 14.003906 18.421875 16.972656 C 18.421875 17.183594 18.59375 17.359375 18.804688 17.359375 L 21.121094 17.359375 C 21.332031 17.359375 21.503906 17.183594 21.503906 16.972656 C 21.503906 12.308594 17.699219 8.515625 13.023438 8.515625 Z M 13.023438 8.515625 " fill-opacity="1" fill-rule="nonzero"/><g clip-path="url(#4a97fc4d8d)"><path fill="#ff8d8d" d="M 18.421875 16.914062 C 18.421875 19.882812 16 22.296875 13.023438 22.296875 L 2.613281 22.296875 C 2.398438 22.296875 2.226562 22.46875 2.226562 22.683594 L 2.226562 24.988281 C 2.226562 25.203125 2.398438 25.375 2.613281 25.375 L 13.023438 25.375 C 17.699219 25.375 21.503906 21.578125 21.503906 16.914062 Z M 18.421875 16.914062 " fill-opacity="1" fill-rule="nonzero"/></g><g fill="#3b8bc2" fill-opacity="1"><g transform="translate(30.713344, 18.145163)"><g><path d="M 5.515625 -2.15625 L 2.0625 -2.15625 L 1.28125 0 L 0.15625 0 L 3.3125 -8.25 L 4.265625 -8.25 L 7.421875 0 L 6.296875 0 Z M 2.390625 -3.046875 L 5.1875 -3.046875 L 3.78125 -6.90625 Z M 2.390625 -3.046875 "/></g></g><g transform="translate(38.288949, 18.145163)"><g><path d="M 0.546875 -3.125 C 0.546875 -4.070312 0.765625 -4.828125 1.203125 -5.390625 C 1.648438 -5.960938 2.238281 -6.25 2.96875 -6.25 C 3.71875 -6.25 4.300781 -5.984375 4.71875 -5.453125 L 4.765625 -6.140625 L 5.71875 -6.140625 L 5.71875 -0.140625 C 5.71875 0.648438 5.484375 1.273438 5.015625 1.734375 C 4.546875 2.191406 3.914062 2.421875 3.125 2.421875 C 2.675781 2.421875 2.238281 2.320312 1.8125 2.125 C 1.394531 1.9375 1.078125 1.679688 0.859375 1.359375 L 1.40625 0.71875 C 1.851562 1.28125 2.398438 1.5625 3.046875 1.5625 C 3.554688 1.5625 3.953125 1.414062 4.234375 1.125 C 4.523438 0.84375 4.671875 0.441406 4.671875 -0.078125 L 4.671875 -0.609375 C 4.253906 -0.128906 3.679688 0.109375 2.953125 0.109375 C 2.234375 0.109375 1.648438 -0.175781 1.203125 -0.75 C 0.765625 -1.332031 0.546875 -2.125 0.546875 -3.125 Z M 1.59375 -3 C 1.59375 -2.3125 1.734375 -1.769531 2.015625 -1.375 C 2.304688 -0.976562 2.707031 -0.78125 3.21875 -0.78125 C 3.875 -0.78125 4.359375 -1.078125 4.671875 -1.671875 L 4.671875 -4.484375 C 4.347656 -5.066406 3.863281 -5.359375 3.21875 -5.359375 C 2.707031 -5.359375 2.304688 -5.160156 2.015625 -4.765625 C 1.734375 -4.367188 1.59375 -3.78125 1.59375 -3 Z M 1.59375 -3 "/></g></g><g transform="translate(44.804196, 18.145163)"><g><path d="M 1.9375 0 L 0.890625 0 L 0.890625 -6.140625 L 1.9375 -6.140625 Z M 0.796875 -7.765625 C 0.796875 -7.929688 0.847656 -8.070312 0.953125 -8.1875 C 1.054688 -8.300781 1.207031 -8.359375 1.40625 -8.359375 C 1.613281 -8.359375 1.769531 -8.300781 1.875 -8.1875 C 1.988281 -8.070312 2.046875 -7.925781 2.046875 -7.75 C 2.046875 -7.582031 1.988281 -7.441406 1.875 -7.328125 C 1.769531 -7.222656 1.613281 -7.171875 1.40625 -7.171875 C 1.207031 -7.171875 1.054688 -7.222656 0.953125 -7.328125 C 0.847656 -7.441406 0.796875 -7.585938 0.796875 -7.765625 Z M 0.796875 -7.765625 "/></g></g><g transform="translate(47.622366, 18.145163)"><g><path d="M 1.9375 0 L 0.890625 0 L 0.890625 -8.703125 L 1.9375 -8.703125 Z M 1.9375 0 "/></g></g><g transform="translate(50.440536, 18.145163)"><g><path d="M 3.34375 0.109375 C 2.507812 0.109375 1.832031 -0.160156 1.3125 -0.703125 C 0.789062 -1.253906 0.53125 -1.984375 0.53125 -2.890625 L 0.53125 -3.09375 C 0.53125 -3.695312 0.644531 -4.238281 0.875 -4.71875 C 1.101562 -5.195312 1.425781 -5.570312 1.84375 -5.84375 C 2.269531 -6.113281 2.722656 -6.25 3.203125 -6.25 C 4.003906 -6.25 4.625 -5.984375 5.0625 -5.453125 C 5.507812 -4.929688 5.734375 -4.179688 5.734375 -3.203125 L 5.734375 -2.765625 L 1.578125 -2.765625 C 1.585938 -2.160156 1.757812 -1.671875 2.09375 -1.296875 C 2.4375 -0.929688 2.867188 -0.75 3.390625 -0.75 C 3.765625 -0.75 4.078125 -0.820312 4.328125 -0.96875 C 4.585938 -1.125 4.816406 -1.320312 5.015625 -1.5625 L 5.65625 -1.078125 C 5.132812 -0.285156 4.363281 0.109375 3.34375 0.109375 Z M 3.203125 -5.390625 C 2.785156 -5.390625 2.429688 -5.234375 2.140625 -4.921875 C 1.859375 -4.617188 1.679688 -4.1875 1.609375 -3.625 L 4.6875 -3.625 L 4.6875 -3.703125 C 4.65625 -4.234375 4.507812 -4.644531 4.25 -4.9375 C 3.988281 -5.238281 3.640625 -5.390625 3.203125 -5.390625 Z M 3.203125 -5.390625 "/></g></g><g transform="translate(56.59288, 18.145163)"><g/></g><g transform="translate(59.467754, 18.145163)"><g><path d="M 2.046875 -0.890625 L 5.96875 -0.890625 L 5.96875 0 L 0.953125 0 L 0.953125 -8.25 L 2.046875 -8.25 Z M 2.046875 -0.890625 "/></g></g><g transform="translate(65.716494, 18.145163)"><g><path d="M 3.34375 0.109375 C 2.507812 0.109375 1.832031 -0.160156 1.3125 -0.703125 C 0.789062 -1.253906 0.53125 -1.984375 0.53125 -2.890625 L 0.53125 -3.09375 C 0.53125 -3.695312 0.644531 -4.238281 0.875 -4.71875 C 1.101562 -5.195312 1.425781 -5.570312 1.84375 -5.84375 C 2.269531 -6.113281 2.722656 -6.25 3.203125 -6.25 C 4.003906 -6.25 4.625 -5.984375 5.0625 -5.453125 C 5.507812 -4.929688 5.734375 -4.179688 5.734375 -3.203125 L 5.734375 -2.765625 L 1.578125 -2.765625 C 1.585938 -2.160156 1.757812 -1.671875 2.09375 -1.296875 C 2.4375 -0.929688 2.867188 -0.75 3.390625 -0.75 C 3.765625 -0.75 4.078125 -0.820312 4.328125 -0.96875 C 4.585938 -1.125 4.816406 -1.320312 5.015625 -1.5625 L 5.65625 -1.078125 C 5.132812 -0.285156 4.363281 0.109375 3.34375 0.109375 Z M 3.203125 -5.390625 C 2.785156 -5.390625 2.429688 -5.234375 2.140625 -4.921875 C 1.859375 -4.617188 1.679688 -4.1875 1.609375 -3.625 L 4.6875 -3.625 L 4.6875 -3.703125 C 4.65625 -4.234375 4.507812 -4.644531 4.25 -4.9375 C 3.988281 -5.238281 3.640625 -5.390625 3.203125 -5.390625 Z M 3.203125 -5.390625 "/></g></g><g transform="translate(71.868838, 18.145163)"><g><path d="M 4.578125 0 C 4.515625 -0.125 4.46875 -0.335938 4.4375 -0.640625 C 3.945312 -0.140625 3.363281 0.109375 2.6875 0.109375 C 2.082031 0.109375 1.585938 -0.0546875 1.203125 -0.390625 C 0.816406 -0.734375 0.625 -1.171875 0.625 -1.703125 C 0.625 -2.335938 0.863281 -2.832031 1.34375 -3.1875 C 1.832031 -3.539062 2.515625 -3.71875 3.390625 -3.71875 L 4.421875 -3.71875 L 4.421875 -4.203125 C 4.421875 -4.566406 4.3125 -4.859375 4.09375 -5.078125 C 3.875 -5.296875 3.550781 -5.40625 3.125 -5.40625 C 2.75 -5.40625 2.429688 -5.304688 2.171875 -5.109375 C 1.921875 -4.921875 1.796875 -4.695312 1.796875 -4.4375 L 0.75 -4.4375 C 0.75 -4.738281 0.851562 -5.03125 1.0625 -5.3125 C 1.28125 -5.601562 1.578125 -5.832031 1.953125 -6 C 2.328125 -6.164062 2.738281 -6.25 3.1875 -6.25 C 3.882812 -6.25 4.429688 -6.070312 4.828125 -5.71875 C 5.234375 -5.363281 5.445312 -4.875 5.46875 -4.25 L 5.46875 -1.4375 C 5.46875 -0.875 5.539062 -0.425781 5.6875 -0.09375 L 5.6875 0 Z M 2.84375 -0.796875 C 3.164062 -0.796875 3.472656 -0.878906 3.765625 -1.046875 C 4.066406 -1.222656 4.285156 -1.445312 4.421875 -1.71875 L 4.421875 -2.96875 L 3.59375 -2.96875 C 2.3125 -2.96875 1.671875 -2.59375 1.671875 -1.84375 C 1.671875 -1.519531 1.78125 -1.265625 2 -1.078125 C 2.21875 -0.890625 2.5 -0.796875 2.84375 -0.796875 Z M 2.84375 -0.796875 "/></g></g><g transform="translate(78.185622, 18.145163)"><g><path d="M 0.53125 -3.125 C 0.53125 -4.0625 0.753906 -4.816406 1.203125 -5.390625 C 1.648438 -5.960938 2.234375 -6.25 2.953125 -6.25 C 3.671875 -6.25 4.242188 -6.003906 4.671875 -5.515625 L 4.671875 -8.703125 L 5.71875 -8.703125 L 5.71875 0 L 4.75 0 L 4.703125 -0.65625 C 4.273438 -0.144531 3.691406 0.109375 2.953125 0.109375 C 2.234375 0.109375 1.648438 -0.175781 1.203125 -0.75 C 0.753906 -1.332031 0.53125 -2.09375 0.53125 -3.03125 Z M 1.59375 -3 C 1.59375 -2.300781 1.734375 -1.753906 2.015625 -1.359375 C 2.304688 -0.972656 2.703125 -0.78125 3.203125 -0.78125 C 3.867188 -0.78125 4.359375 -1.078125 4.671875 -1.671875 L 4.671875 -4.484375 C 4.347656 -5.066406 3.863281 -5.359375 3.21875 -5.359375 C 2.707031 -5.359375 2.304688 -5.160156 2.015625 -4.765625 C 1.734375 -4.367188 1.59375 -3.78125 1.59375 -3 Z M 1.59375 -3 "/></g></g><g transform="translate(84.734891, 18.145163)"><g><path d="M 3.34375 0.109375 C 2.507812 0.109375 1.832031 -0.160156 1.3125 -0.703125 C 0.789062 -1.253906 0.53125 -1.984375 0.53125 -2.890625 L 0.53125 -3.09375 C 0.53125 -3.695312 0.644531 -4.238281 0.875 -4.71875 C 1.101562 -5.195312 1.425781 -5.570312 1.84375 -5.84375 C 2.269531 -6.113281 2.722656 -6.25 3.203125 -6.25 C 4.003906 -6.25 4.625 -5.984375 5.0625 -5.453125 C 5.507812 -4.929688 5.734375 -4.179688 5.734375 -3.203125 L 5.734375 -2.765625 L 1.578125 -2.765625 C 1.585938 -2.160156 1.757812 -1.671875 2.09375 -1.296875 C 2.4375 -0.929688 2.867188 -0.75 3.390625 -0.75 C 3.765625 -0.75 4.078125 -0.820312 4.328125 -0.96875 C 4.585938 -1.125 4.816406 -1.320312 5.015625 -1.5625 L 5.65625 -1.078125 C 5.132812 -0.285156 4.363281 0.109375 3.34375 0.109375 Z M 3.203125 -5.390625 C 2.785156 -5.390625 2.429688 -5.234375 2.140625 -4.921875 C 1.859375 -4.617188 1.679688 -4.1875 1.609375 -3.625 L 4.6875 -3.625 L 4.6875 -3.703125 C 4.65625 -4.234375 4.507812 -4.644531 4.25 -4.9375 C 3.988281 -5.238281 3.640625 -5.390625 3.203125 -5.390625 Z M 3.203125 -5.390625 "/></g></g><g transform="translate(90.887235, 18.145163)"><g><path d="M 3.765625 -5.1875 C 3.597656 -5.21875 3.425781 -5.234375 3.25 -5.234375 C 2.550781 -5.234375 2.082031 -4.941406 1.84375 -4.359375 L 1.84375 0 L 0.796875 0 L 0.796875 -6.140625 L 1.8125 -6.140625 L 1.828125 -5.421875 C 2.171875 -5.972656 2.660156 -6.25 3.296875 -6.25 C 3.492188 -6.25 3.648438 -6.222656 3.765625 -6.171875 Z M 3.765625 -5.1875 "/></g></g><g transform="translate(94.816796, 18.145163)"><g><path d="M 4.359375 -1.625 C 4.359375 -1.90625 4.25 -2.125 4.03125 -2.28125 C 3.820312 -2.4375 3.453125 -2.570312 2.921875 -2.6875 C 2.390625 -2.800781 1.96875 -2.9375 1.65625 -3.09375 C 1.351562 -3.257812 1.125 -3.453125 0.96875 -3.671875 C 0.820312 -3.890625 0.75 -4.148438 0.75 -4.453125 C 0.75 -4.953125 0.960938 -5.375 1.390625 -5.71875 C 1.816406 -6.070312 2.359375 -6.25 3.015625 -6.25 C 3.710938 -6.25 4.273438 -6.066406 4.703125 -5.703125 C 5.140625 -5.347656 5.359375 -4.890625 5.359375 -4.328125 L 4.296875 -4.328125 C 4.296875 -4.617188 4.175781 -4.867188 3.9375 -5.078125 C 3.695312 -5.285156 3.390625 -5.390625 3.015625 -5.390625 C 2.628906 -5.390625 2.328125 -5.304688 2.109375 -5.140625 C 1.898438 -4.972656 1.796875 -4.753906 1.796875 -4.484375 C 1.796875 -4.234375 1.894531 -4.039062 2.09375 -3.90625 C 2.289062 -3.78125 2.648438 -3.65625 3.171875 -3.53125 C 3.703125 -3.414062 4.128906 -3.273438 4.453125 -3.109375 C 4.773438 -2.953125 5.015625 -2.757812 5.171875 -2.53125 C 5.328125 -2.300781 5.40625 -2.023438 5.40625 -1.703125 C 5.40625 -1.148438 5.1875 -0.707031 4.75 -0.375 C 4.3125 -0.0507812 3.742188 0.109375 3.046875 0.109375 C 2.554688 0.109375 2.117188 0.0234375 1.734375 -0.140625 C 1.359375 -0.316406 1.0625 -0.5625 0.84375 -0.875 C 0.632812 -1.1875 0.53125 -1.523438 0.53125 -1.890625 L 1.59375 -1.890625 C 1.601562 -1.535156 1.738281 -1.253906 2 -1.046875 C 2.269531 -0.847656 2.617188 -0.75 3.046875 -0.75 C 3.441406 -0.75 3.757812 -0.828125 4 -0.984375 C 4.238281 -1.140625 4.359375 -1.351562 4.359375 -1.625 Z M 4.359375 -1.625 "/></g></g><g transform="translate(100.804699, 18.145163)"><g><path d="M 1.84375 -5.390625 C 2.3125 -5.960938 2.914062 -6.25 3.65625 -6.25 C 4.945312 -6.25 5.601562 -5.515625 5.625 -4.046875 L 5.625 0 L 4.5625 0 L 4.5625 -4.0625 C 4.5625 -4.5 4.460938 -4.820312 4.265625 -5.03125 C 4.066406 -5.25 3.757812 -5.359375 3.34375 -5.359375 C 3 -5.359375 2.695312 -5.265625 2.4375 -5.078125 C 2.1875 -4.898438 1.988281 -4.664062 1.84375 -4.375 L 1.84375 0 L 0.796875 0 L 0.796875 -8.703125 L 1.84375 -8.703125 Z M 1.84375 -5.390625 "/></g></g><g transform="translate(107.200869, 18.145163)"><g><path d="M 1.9375 0 L 0.890625 0 L 0.890625 -6.140625 L 1.9375 -6.140625 Z M 0.796875 -7.765625 C 0.796875 -7.929688 0.847656 -8.070312 0.953125 -8.1875 C 1.054688 -8.300781 1.207031 -8.359375 1.40625 -8.359375 C 1.613281 -8.359375 1.769531 -8.300781 1.875 -8.1875 C 1.988281 -8.070312 2.046875 -7.925781 2.046875 -7.75 C 2.046875 -7.582031 1.988281 -7.441406 1.875 -7.328125 C 1.769531 -7.222656 1.613281 -7.171875 1.40625 -7.171875 C 1.207031 -7.171875 1.054688 -7.222656 0.953125 -7.328125 C 0.847656 -7.441406 0.796875 -7.585938 0.796875 -7.765625 Z M 0.796875 -7.765625 "/></g></g><g transform="translate(110.019039, 18.145163)"><g><path d="M 5.96875 -3 C 5.96875 -2.0625 5.753906 -1.304688 5.328125 -0.734375 C 4.898438 -0.171875 4.320312 0.109375 3.59375 0.109375 C 2.851562 0.109375 2.269531 -0.125 1.84375 -0.59375 L 1.84375 2.359375 L 0.796875 2.359375 L 0.796875 -6.140625 L 1.75 -6.140625 L 1.796875 -5.453125 C 2.222656 -5.984375 2.816406 -6.25 3.578125 -6.25 C 4.316406 -6.25 4.898438 -5.96875 5.328125 -5.40625 C 5.753906 -4.851562 5.96875 -4.082031 5.96875 -3.09375 Z M 4.921875 -3.125 C 4.921875 -3.8125 4.773438 -4.351562 4.484375 -4.75 C 4.191406 -5.15625 3.785156 -5.359375 3.265625 -5.359375 C 2.628906 -5.359375 2.15625 -5.078125 1.84375 -4.515625 L 1.84375 -1.578125 C 2.15625 -1.023438 2.632812 -0.75 3.28125 -0.75 C 3.78125 -0.75 4.175781 -0.945312 4.46875 -1.34375 C 4.769531 -1.738281 4.921875 -2.332031 4.921875 -3.125 Z M 4.921875 -3.125 "/></g></g></g></svg>