<svg xmlns="http://www.w3.org/2000/svg" xmlns:xlink="http://www.w3.org/1999/xlink" width="184" zoomAndPan="magnify" viewBox="0 0 138 30.000001" height="40" preserveAspectRatio="xMidYMid meet" version="1.0"><defs><clipPath id="644d74aee0"><path d="M 2.226562 6 L 21 6 L 21 15 L 2.226562 15 Z M 2.226562 6 " clip-rule="nonzero"/></clipPath><clipPath id="275b09a389"><path d="M 2.226562 14 L 21 14 L 21 23 L 2.226562 23 Z M 2.226562 14 " clip-rule="nonzero"/></clipPath><clipPath id="bc8ed42e36"><path d="M 2.226562 12 L 3 12 L 3 13 L 2.226562 13 Z M 2.226562 12 " clip-rule="nonzero"/></clipPath><clipPath id="129c3e2e5f"><path d="M 2.226562 0 L 21 0 L 21 11 L 2.226562 11 Z M 2.226562 0 " clip-rule="nonzero"/></clipPath><clipPath id="a686010e7a"><path d="M 2.226562 8 L 21 8 L 21 20 L 2.226562 20 Z M 2.226562 8 " clip-rule="nonzero"/></clipPath><clipPath id="7c60bb3650"><path d="M 2.226562 17 L 21 17 L 21 28 L 2.226562 28 Z M 2.226562 17 " clip-rule="nonzero"/></clipPath></defs><path fill="#380d09" d="M 24.984375 16.609375 C 25.765625 18.128906 27.015625 18.878906 28.769531 18.878906 C 30.652344 18.878906 31.324219 17.894531 31.324219 16.929688 C 31.324219 16.265625 31.085938 15.816406 30.457031 15.40625 C 29.832031 14.980469 29.375 14.785156 28.25 14.375 C 26.867188 13.859375 26.066406 13.472656 25.199219 12.789062 C 24.335938 12.082031 23.921875 11.113281 23.921875 9.855469 C 23.910156 9.292969 24.019531 8.757812 24.253906 8.246094 C 24.488281 7.734375 24.828125 7.300781 25.265625 6.941406 C 26.175781 6.191406 27.277344 5.828125 28.597656 5.828125 C 30.652344 5.828125 32.210938 6.640625 33.25 8.25 L 31.324219 9.5625 C 30.742188 8.683594 29.851562 8.230469 28.640625 8.230469 C 27.449219 8.230469 26.585938 8.898438 26.585938 9.816406 C 26.585938 10.4375 26.84375 10.738281 27.210938 11.109375 C 27.449219 11.28125 28.054688 11.535156 28.335938 11.6875 L 29.121094 11.984375 L 30.007812 12.328125 C 31.441406 12.90625 32.453125 13.527344 33.078125 14.191406 C 33.707031 14.855469 34.03125 15.757812 34.03125 16.871094 C 34.03125 19.503906 32.191406 21.28125 28.75 21.28125 C 25.960938 21.28125 23.902344 19.992188 22.953125 17.875 Z M 24.984375 16.609375 " fill-opacity="1" fill-rule="nonzero"/><path fill="#380d09" d="M 45 11.746094 L 43.40625 13.394531 C 43.050781 13.011719 42.628906 12.714844 42.148438 12.511719 C 41.664062 12.304688 41.160156 12.207031 40.636719 12.214844 C 39.695312 12.195312 38.894531 12.515625 38.234375 13.179688 C 37.925781 13.511719 37.691406 13.882812 37.527344 14.300781 C 37.363281 14.71875 37.28125 15.152344 37.28125 15.601562 C 37.28125 16.050781 37.363281 16.480469 37.527344 16.898438 C 37.691406 17.316406 37.925781 17.691406 38.234375 18.023438 C 38.894531 18.6875 39.695312 19.007812 40.636719 18.984375 C 41.160156 18.996094 41.664062 18.894531 42.148438 18.691406 C 42.628906 18.484375 43.050781 18.191406 43.40625 17.808594 L 45.007812 19.457031 C 43.832031 20.699219 42.386719 21.320312 40.636719 21.320312 C 38.96875 21.320312 37.5625 20.785156 36.414062 19.691406 C 35.269531 18.597656 34.703125 17.226562 34.703125 15.601562 C 34.703125 13.972656 35.269531 12.621094 36.414062 11.53125 C 37.5625 10.441406 38.96875 9.882812 40.636719 9.882812 C 42.382812 9.882812 43.832031 10.503906 45 11.746094 Z M 45 11.746094 " fill-opacity="1" fill-rule="nonzero"/><path fill="#380d09" d="M 50.167969 14.445312 C 52.007812 14.273438 52.660156 14.039062 52.660156 13.203125 C 52.660156 12.539062 52.054688 12.023438 50.84375 12.023438 C 49.675781 12.023438 48.703125 12.496094 47.921875 13.4375 L 46.320312 12.085938 C 47.378906 10.609375 48.875 9.882812 50.800781 9.882812 C 53.503906 9.882812 55.195312 11.171875 55.195312 13.371094 L 55.195312 18.148438 C 55.195312 18.898438 55.472656 18.984375 56.105469 18.984375 L 56.171875 18.984375 L 56.171875 20.972656 C 55.910156 21.125 55.5 21.210938 54.960938 21.210938 C 54.375 21.210938 53.917969 21.039062 53.574219 20.695312 C 53.390625 20.488281 53.257812 20.253906 53.183594 19.988281 C 52.425781 20.863281 51.191406 21.316406 49.480469 21.316406 C 47.082031 21.316406 45.457031 20.007812 45.457031 18.039062 C 45.453125 15.835938 46.945312 14.722656 50.167969 14.445312 Z M 49.867188 19.136719 C 51.597656 19.136719 52.65625 18.363281 52.65625 16.996094 L 52.65625 15.796875 C 52.503906 15.949219 52.324219 16.054688 52.117188 16.117188 C 51.617188 16.289062 51.292969 16.332031 50.253906 16.4375 C 48.742188 16.609375 47.984375 17.082031 47.984375 17.832031 C 47.984375 18.664062 48.675781 19.136719 49.867188 19.136719 Z M 49.867188 19.136719 " fill-opacity="1" fill-rule="nonzero"/><path fill="#380d09" d="M 56.8125 6.089844 L 59.410156 6.089844 L 59.410156 17.484375 C 59.410156 18.535156 59.753906 18.984375 60.710938 18.984375 C 60.976562 18.992188 61.238281 18.964844 61.496094 18.898438 L 61.496094 21.191406 C 61.089844 21.289062 60.675781 21.332031 60.261719 21.320312 C 57.964844 21.320312 56.820312 20.160156 56.820312 17.828125 Z M 56.8125 6.089844 " fill-opacity="1" fill-rule="nonzero"/><path fill="#380d09" d="M 66.832031 14.445312 C 68.671875 14.273438 69.320312 14.039062 69.320312 13.203125 C 69.320312 12.539062 68.71875 12.023438 67.503906 12.023438 C 66.335938 12.023438 65.363281 12.496094 64.582031 13.4375 L 62.980469 12.085938 C 64.042969 10.609375 65.535156 9.882812 67.460938 9.882812 C 70.167969 9.882812 71.855469 11.171875 71.855469 13.371094 L 71.855469 18.148438 C 71.855469 18.898438 72.136719 18.984375 72.765625 18.984375 L 72.832031 18.984375 L 72.832031 20.972656 C 72.570312 21.125 72.160156 21.210938 71.621094 21.210938 C 71.035156 21.210938 70.578125 21.039062 70.234375 20.695312 C 70.050781 20.488281 69.921875 20.253906 69.84375 19.988281 C 69.085938 20.863281 67.855469 21.316406 66.144531 21.316406 C 63.742188 21.316406 62.117188 20.007812 62.117188 18.039062 C 62.117188 15.835938 63.613281 14.722656 66.832031 14.445312 Z M 66.53125 19.136719 C 68.261719 19.136719 69.320312 18.363281 69.320312 16.996094 L 69.320312 15.796875 C 69.167969 15.949219 68.988281 16.054688 68.78125 16.117188 C 68.285156 16.289062 67.960938 16.332031 66.921875 16.4375 C 65.40625 16.609375 64.648438 17.082031 64.648438 17.832031 C 64.65625 18.664062 65.339844 19.136719 66.53125 19.136719 Z M 66.53125 19.136719 " fill-opacity="1" fill-rule="nonzero"/><g clip-path="url(#644d74aee0)"><path fill="#380d09" d="M 2.800781 10.472656 C 3.042969 10.800781 5.074219 11.421875 8.109375 12.066406 C 11.144531 12.640625 14.296875 14.914062 16.75 14.214844 C 18.410156 13.738281 20.210938 9.507812 20.210938 8.878906 L 20.210938 8.816406 C 20.210938 8.375 19.878906 8.023438 19.316406 7.730469 C 17 6.5625 16.5625 6.128906 15.703125 6.363281 C 11.25 7.582031 3.390625 6.957031 2.800781 10.472656 Z M 2.800781 10.472656 " fill-opacity="1" fill-rule="evenodd"/></g><g clip-path="url(#275b09a389)"><path fill="#380d09" d="M 2.800781 19.0625 C 3.042969 19.394531 5.074219 20.011719 8.109375 20.660156 C 11.5 21.269531 14.445312 23.265625 16.902344 22.5625 C 18.5625 22.085938 20.210938 18.101562 20.210938 17.472656 L 20.210938 17.410156 C 20.210938 16.972656 19.878906 16.617188 19.316406 16.328125 C 17.550781 15.398438 15.21875 14.375 14.359375 14.609375 C 9.898438 15.820312 3.9375 16.089844 2.800781 19.0625 Z M 2.800781 19.0625 " fill-opacity="1" fill-rule="evenodd"/></g><g clip-path="url(#bc8ed42e36)"><path fill="#555555" d="M 2.777344 12.316406 L 2.777344 12.378906 C 2.773438 12.359375 2.773438 12.335938 2.777344 12.316406 Z M 2.777344 12.316406 " fill-opacity="1" fill-rule="evenodd"/></g><g clip-path="url(#129c3e2e5f)"><path fill="#de3423" d="M 16.894531 1.949219 C 12.792969 3.121094 6.285156 3.78125 2.78125 3.78125 L 2.78125 10.410156 C 2.78125 10.433594 2.789062 10.453125 2.804688 10.472656 C 5.199219 10.472656 12.582031 9.695312 17.039062 8.484375 C 17.816406 8.289062 18.578125 8.039062 19.320312 7.734375 C 19.863281 7.492188 20.21875 7.234375 20.21875 6.96875 L 20.21875 0.289062 C 20.210938 0.917969 18.554688 1.476562 16.894531 1.949219 Z M 16.894531 1.949219 " fill-opacity="1" fill-rule="evenodd"/></g><g clip-path="url(#a686010e7a)"><path fill="#de3423" d="M 16.894531 10.539062 C 14.441406 11.242188 11.128906 11.761719 8.109375 12.066406 C 6.082031 12.273438 4.191406 12.378906 2.78125 12.378906 L 2.78125 19 C 2.78125 19.023438 2.789062 19.042969 2.804688 19.0625 C 5.199219 19.0625 12.582031 18.289062 17.039062 17.074219 C 17.816406 16.878906 18.578125 16.628906 19.320312 16.328125 C 19.863281 16.082031 20.21875 15.828125 20.21875 15.5625 L 20.21875 8.878906 C 20.210938 9.507812 18.554688 10.066406 16.894531 10.539062 Z M 16.894531 10.539062 " fill-opacity="1" fill-rule="evenodd"/></g><g clip-path="url(#7c60bb3650)"><path fill="#de3423" d="M 16.894531 19.136719 C 14.441406 19.839844 11.128906 20.359375 8.109375 20.664062 C 6.082031 20.871094 4.183594 20.976562 2.777344 20.976562 L 2.777344 27.652344 C 5.144531 27.652344 12.566406 26.886719 17.035156 25.667969 C 18.679688 25.21875 20.210938 24.707031 20.210938 24.152344 L 20.210938 17.472656 C 20.210938 18.105469 18.554688 18.65625 16.894531 19.136719 Z M 16.894531 19.136719 " fill-opacity="1" fill-rule="evenodd"/></g></svg>