<svg xmlns="http://www.w3.org/2000/svg" xmlns:xlink="http://www.w3.org/1999/xlink" width="184" zoomAndPan="magnify" viewBox="0 0 138 30.000001" height="40" preserveAspectRatio="xMidYMid meet" version="1.0"><defs><clipPath id="c15ff0dd3a"><path d="M 2.226562 1 L 41 1 L 41 28 L 2.226562 28 Z M 2.226562 1 " clip-rule="nonzero"/></clipPath><clipPath id="29cece6264"><path d="M 2.226562 0 L 35 0 L 35 29.03125 L 2.226562 29.03125 Z M 2.226562 0 " clip-rule="nonzero"/></clipPath><clipPath id="7e1ca43f0c"><path d="M 40 8 L 85.695312 8 L 85.695312 22 L 40 22 Z M 40 8 " clip-rule="nonzero"/></clipPath></defs><path fill="#00d8ff" d="M 21.070312 14.492188 C 21.070312 14.859375 21 15.214844 20.859375 15.558594 C 20.71875 15.898438 20.515625 16.199219 20.253906 16.460938 C 19.988281 16.722656 19.6875 16.925781 19.34375 17.066406 C 19.003906 17.207031 18.644531 17.277344 18.273438 17.277344 C 17.902344 17.277344 17.546875 17.207031 17.203125 17.066406 C 16.859375 16.925781 16.558594 16.722656 16.296875 16.460938 C 16.035156 16.199219 15.832031 15.898438 15.6875 15.558594 C 15.546875 15.214844 15.476562 14.859375 15.476562 14.492188 C 15.476562 14.121094 15.546875 13.765625 15.6875 13.421875 C 15.832031 13.082031 16.035156 12.78125 16.296875 12.519531 C 16.558594 12.257812 16.859375 12.058594 17.203125 11.914062 C 17.546875 11.773438 17.902344 11.703125 18.273438 11.703125 C 18.644531 11.703125 19.003906 11.773438 19.34375 11.914062 C 19.6875 12.058594 19.988281 12.257812 20.253906 12.519531 C 20.515625 12.78125 20.71875 13.082031 20.859375 13.421875 C 21 13.765625 21.070312 14.121094 21.070312 14.492188 Z M 21.070312 14.492188 " fill-opacity="1" fill-rule="nonzero"/><g clip-path="url(#c15ff0dd3a)"><path stroke-linecap="butt" transform="matrix(0.0557669, 0, 0, 0.0555623, 3.243263, 1.287206)" fill="none" stroke-linejoin="miter" d="M 269.517968 135.649791 C 336.902282 135.649791 399.453419 145.281436 446.664467 161.521656 C 503.471826 181.136466 538.424812 210.804746 538.424812 237.660866 C 538.424812 265.64185 501.370444 297.138034 440.360321 317.38558 C 394.199964 332.641544 333.470025 340.656197 269.517968 340.656197 C 203.95485 340.656197 141.894037 333.133671 95.243357 317.174668 C 36.194524 296.997426 0.611123 265.079419 0.611123 237.660866 C 0.611123 211.015658 34.023096 181.55829 90.059948 162.013784 C 137.411088 145.492348 201.503238 135.649791 269.517968 135.649791 Z M 269.517968 135.649791 " stroke="#00d8ff" stroke-width="24" stroke-opacity="1" stroke-miterlimit="4"/></g><g clip-path="url(#29cece6264)"><path stroke-linecap="butt" transform="matrix(0.0557669, 0, 0, 0.0555623, 3.243263, 1.287206)" fill="none" stroke-linejoin="miter" d="M 180.769603 186.901393 C 214.391714 128.549089 254.037787 79.195695 291.652524 46.43404 C 337.042375 6.993507 380.190751 -8.473368 403.446045 4.954692 C 427.681983 18.945184 436.437741 66.75189 423.479219 129.744257 C 413.67277 177.340051 390.277384 233.934755 358.336378 289.334292 C 325.55482 346.139908 288.080175 396.126038 250.95576 428.606477 C 203.95485 469.664001 158.565 484.568445 134.749338 470.788865 C 111.704182 457.501412 102.878378 413.912945 113.945656 355.560641 C 123.261783 306.347855 146.727215 245.816128 180.699557 186.901393 Z M 180.769603 186.901393 " stroke="#00d8ff" stroke-width="24" stroke-opacity="1" stroke-miterlimit="4"/><path stroke-linecap="butt" transform="matrix(0.0557669, 0, 0, 0.0555623, 3.243263, 1.287206)" fill="none" stroke-linejoin="miter" d="M 180.839649 289.4749 C 147.077445 231.1929 124.102336 172.207861 114.506025 123.205987 C 102.948424 64.220947 111.143814 19.085792 134.399108 5.657732 C 158.565 -8.33276 204.445173 7.907459 252.496774 50.581975 C 288.850682 82.851502 326.185234 131.431552 358.266332 186.760785 C 391.047891 243.496097 415.704106 301.004752 425.300417 349.373891 C 437.418386 410.538354 427.611937 457.360804 403.796275 471.070081 C 380.751119 484.427837 338.583388 470.296737 293.543768 431.559244 C 255.578801 398.867893 214.882037 348.319331 180.839649 289.4749 Z M 180.839649 289.4749 " stroke="#00d8ff" stroke-width="24" stroke-opacity="1" stroke-miterlimit="4"/></g><g clip-path="url(#7e1ca43f0c)"><path fill="#00d8ff" d="M 49.328125 21.613281 L 45.898438 16.449219 C 47.632812 16.296875 49.195312 15.046875 49.195312 12.761719 C 49.195312 10.4375 47.539062 8.945312 45.214844 8.945312 L 40.109375 8.945312 L 40.109375 21.601562 L 41.691406 21.601562 L 41.691406 16.574219 L 44.222656 16.574219 L 47.460938 21.601562 Z M 45.023438 15.199219 L 41.691406 15.199219 L 41.691406 10.359375 L 45.023438 10.359375 C 46.53125 10.359375 47.558594 11.347656 47.558594 12.769531 C 47.558594 14.195312 46.527344 15.199219 45.023438 15.199219 Z M 55.214844 21.839844 C 56.71875 21.839844 57.957031 21.347656 58.871094 20.4375 L 58.183594 19.503906 C 57.460938 20.246094 56.394531 20.664062 55.347656 20.664062 C 53.367188 20.664062 52.148438 19.21875 52.035156 17.496094 L 59.480469 17.496094 L 59.480469 17.132812 C 59.480469 14.382812 57.839844 12.21875 55.058594 12.21875 C 52.433594 12.21875 50.527344 14.363281 50.527344 17.019531 C 50.527344 19.886719 52.488281 21.832031 55.210938 21.832031 Z M 58.070312 16.449219 L 52.035156 16.449219 C 52.109375 15.046875 53.082031 13.394531 55.042969 13.394531 C 57.136719 13.394531 58.050781 15.082031 58.070312 16.449219 Z M 68.964844 21.613281 L 68.964844 15.3125 C 68.964844 13.089844 67.347656 12.21875 65.40625 12.21875 C 63.898438 12.21875 62.71875 12.710938 61.730469 13.738281 L 62.394531 14.722656 C 63.214844 13.851562 64.109375 13.453125 65.214844 13.453125 C 66.546875 13.453125 67.539062 14.152344 67.539062 15.386719 L 67.539062 17.039062 C 66.796875 16.183594 65.746094 15.785156 64.492188 15.785156 C 62.929688 15.785156 61.269531 16.753906 61.269531 18.800781 C 61.269531 20.792969 62.925781 21.839844 64.492188 21.839844 C 65.730469 21.839844 66.777344 21.402344 67.539062 20.566406 L 67.539062 21.609375 Z M 65.003906 20.8125 C 63.671875 20.8125 62.738281 19.980469 62.738281 18.820312 C 62.738281 17.644531 63.671875 16.8125 65.003906 16.8125 C 66.015625 16.8125 66.984375 17.191406 67.539062 17.949219 L 67.539062 19.675781 C 66.984375 20.433594 66.015625 20.816406 65.003906 20.816406 Z M 75.871094 21.839844 C 77.546875 21.839844 78.539062 21.15625 79.242188 20.246094 L 78.289062 19.371094 C 77.679688 20.1875 76.902344 20.566406 75.957031 20.566406 C 73.996094 20.566406 72.777344 19.050781 72.777344 17.019531 C 72.777344 14.988281 73.996094 13.492188 75.957031 13.492188 C 76.910156 13.492188 77.691406 13.851562 78.289062 14.6875 L 79.242188 13.8125 C 78.539062 12.902344 77.546875 12.21875 75.871094 12.21875 C 73.128906 12.21875 71.28125 14.308594 71.28125 17.019531 C 71.28125 19.753906 73.128906 21.832031 75.871094 21.832031 Z M 83.566406 21.839844 C 84.40625 21.839844 84.917969 21.59375 85.28125 21.25 L 84.863281 20.1875 C 84.671875 20.398438 84.300781 20.566406 83.890625 20.566406 C 83.265625 20.566406 82.957031 20.074219 82.957031 19.390625 L 82.957031 13.699219 L 84.824219 13.699219 L 84.824219 12.445312 L 82.957031 12.445312 L 82.957031 9.941406 L 81.527344 9.941406 L 81.527344 12.445312 L 80.003906 12.445312 L 80.003906 13.699219 L 81.527344 13.699219 L 81.527344 19.695312 C 81.527344 21.0625 82.214844 21.839844 83.566406 21.839844 Z M 83.566406 21.839844 " fill-opacity="1" fill-rule="evenodd"/></g></svg>