<svg xmlns="http://www.w3.org/2000/svg" xmlns:xlink="http://www.w3.org/1999/xlink" width="184" zoomAndPan="magnify" viewBox="0 0 138 30.000001" height="40" preserveAspectRatio="xMidYMid meet" version="1.0"><defs><clipPath id="12887ca6db"><path d="M 2.226562 15 L 24 15 L 24 29 L 2.226562 29 Z M 2.226562 15 " clip-rule="nonzero"/></clipPath><clipPath id="ab1ee6fb44"><path d="M 31 5 L 64.789062 5 L 64.789062 24 L 31 24 Z M 31 5 " clip-rule="nonzero"/></clipPath></defs><g clip-path="url(#12887ca6db)"><path fill="#1e1e1e" d="M 9.371094 22.25 C 9.371094 22.25 8.265625 22.921875 10.140625 23.117188 C 12.394531 23.402344 13.601562 23.355469 16.101562 22.875 C 16.101562 22.875 16.773438 23.308594 17.6875 23.644531 C 12.0625 26.046875 4.953125 23.5 9.371094 22.253906 Z M 8.652344 19.128906 C 8.652344 19.128906 7.449219 20.042969 9.324219 20.234375 C 11.773438 20.472656 13.703125 20.519531 17.011719 19.847656 C 17.011719 19.847656 17.445312 20.328125 18.167969 20.570312 C 11.390625 22.589844 3.796875 20.761719 8.652344 19.128906 Z M 21.914062 24.605469 C 21.914062 24.605469 22.734375 25.277344 21.003906 25.808594 C 17.78125 26.769531 7.496094 27.058594 4.613281 25.808594 C 3.605469 25.375 5.527344 24.742188 6.152344 24.652344 C 6.777344 24.511719 7.113281 24.511719 7.113281 24.511719 C 6.007812 23.742188 -0.238281 26.097656 3.941406 26.761719 C 15.425781 28.636719 24.894531 25.945312 21.914062 24.601562 Z M 9.898438 15.859375 C 9.898438 15.859375 4.660156 17.109375 8.027344 17.542969 C 9.46875 17.734375 12.300781 17.683594 14.945312 17.492188 C 17.109375 17.300781 19.269531 16.917969 19.269531 16.917969 C 19.269531 16.917969 18.5 17.253906 17.972656 17.589844 C 12.640625 18.980469 2.402344 18.359375 5.335938 16.917969 C 7.832031 15.714844 9.898438 15.851562 9.898438 15.851562 Z M 19.273438 21.097656 C 24.652344 18.308594 22.15625 15.621094 20.425781 15.957031 C 19.992188 16.050781 19.800781 16.148438 19.800781 16.148438 C 19.800781 16.148438 19.941406 15.859375 20.28125 15.765625 C 23.691406 14.5625 26.382812 19.367188 19.175781 21.242188 C 19.175781 21.242188 19.222656 21.195312 19.269531 21.097656 Z M 10.429688 28.691406 C 15.621094 29.027344 23.550781 28.5 23.742188 26.046875 C 23.742188 26.046875 23.359375 27.007812 19.464844 27.730469 C 15.042969 28.546875 9.566406 28.449219 6.34375 27.921875 C 6.34375 27.921875 7.015625 28.5 10.429688 28.691406 Z M 10.429688 28.691406 " fill-opacity="1" fill-rule="nonzero"/></g><path fill="#1e1e1e" d="M 16.003906 0 C 16.003906 0 18.984375 3.027344 13.167969 7.59375 C 8.507812 11.292969 12.105469 13.410156 13.167969 15.8125 C 10.429688 13.359375 8.457031 11.199219 9.804688 9.179688 C 11.773438 6.199219 17.203125 4.757812 16.003906 0 Z M 14.464844 13.792969 C 15.859375 15.378906 14.082031 16.820312 14.082031 16.820312 C 14.082031 16.820312 17.636719 14.996094 16.003906 12.734375 C 14.515625 10.574219 13.359375 9.515625 19.605469 5.910156 C 19.605469 5.910156 9.753906 8.363281 14.464844 13.792969 Z M 14.464844 13.792969 " fill-opacity="1" fill-rule="nonzero"/><g clip-path="url(#ab1ee6fb44)"><path fill="#1e1e1e" d="M 45.261719 19.496094 L 45.261719 12.191406 C 45.261719 10.328125 44.21875 9.0625 41.609375 9.0625 C 40.121094 9.0625 38.851562 9.433594 37.734375 9.878906 L 38.105469 11.222656 C 38.925781 10.925781 39.972656 10.625 41.089844 10.625 C 42.503906 10.625 43.175781 11.222656 43.175781 12.414062 L 43.175781 13.386719 L 42.4375 13.386719 C 38.855469 13.386719 37.21875 14.726562 37.21875 16.890625 C 37.21875 18.679688 38.335938 19.722656 40.347656 19.722656 C 41.617188 19.722656 42.585938 19.125 43.480469 18.378906 L 43.628906 19.5 L 45.269531 19.5 Z M 43.175781 17.113281 C 42.429688 17.785156 41.609375 18.15625 40.863281 18.15625 C 39.894531 18.15625 39.296875 17.558594 39.296875 16.515625 C 39.296875 15.472656 39.894531 14.726562 42.28125 14.726562 L 43.175781 14.726562 Z M 52.269531 19.5 L 49.660156 19.5 L 46.53125 9.285156 L 48.765625 9.285156 L 50.707031 15.546875 L 51.152344 17.414062 C 52.121094 14.730469 52.867188 11.972656 53.164062 9.289062 L 55.402344 9.289062 C 54.804688 12.640625 53.761719 16.296875 52.269531 19.5 Z M 64.347656 19.5 L 64.347656 12.191406 C 64.347656 10.328125 63.304688 9.0625 60.691406 9.0625 C 59.203125 9.0625 57.933594 9.433594 56.816406 9.878906 L 57.113281 11.222656 C 58.007812 10.925781 59.054688 10.625 60.171875 10.625 C 61.585938 10.625 62.257812 11.222656 62.257812 12.414062 L 62.257812 13.386719 L 61.511719 13.386719 C 57.933594 13.386719 56.296875 14.726562 56.296875 16.890625 C 56.296875 18.679688 57.339844 19.722656 59.351562 19.722656 C 60.695312 19.722656 61.664062 19.125 62.558594 18.378906 L 62.707031 19.5 Z M 62.257812 17.113281 C 61.515625 17.785156 60.695312 18.15625 59.949219 18.15625 C 58.976562 18.15625 58.382812 17.558594 58.382812 16.515625 C 58.382812 15.472656 58.980469 14.726562 61.363281 14.726562 L 62.257812 14.726562 Z M 34.898438 21.214844 C 34.304688 22.109375 33.40625 22.777344 32.289062 23.152344 L 31.320312 21.957031 C 32.066406 21.511719 32.8125 20.839844 33.109375 20.246094 C 33.40625 19.722656 33.484375 18.976562 33.484375 17.261719 L 33.484375 5.632812 L 35.71875 5.632812 L 35.71875 17.113281 C 35.71875 19.425781 35.496094 20.316406 34.898438 21.214844 Z M 34.898438 21.214844 " fill-opacity="1" fill-rule="nonzero"/></g></svg>