<svg xmlns="http://www.w3.org/2000/svg" xmlns:xlink="http://www.w3.org/1999/xlink" width="184" zoomAndPan="magnify" viewBox="0 0 138 30.000001" height="40" preserveAspectRatio="xMidYMid meet" version="1.0"><defs><g/><clipPath id="ca0e2077b4"><path d="M 11 2.3125 L 23 2.3125 L 23 11 L 11 11 Z M 11 2.3125 " clip-rule="nonzero"/></clipPath><clipPath id="70abf05656"><path d="M 4 16 L 26.902344 16 L 26.902344 26.988281 L 4 26.988281 Z M 4 16 " clip-rule="nonzero"/></clipPath><clipPath id="2e3725e5c3"><path d="M 2.226562 16 L 22 16 L 22 26 L 2.226562 26 Z M 2.226562 16 " clip-rule="nonzero"/></clipPath></defs><g clip-path="url(#ca0e2077b4)"><path fill="#555555" d="M 22.628906 5.117188 L 19.589844 2.457031 C 19.476562 2.355469 19.316406 2.332031 19.179688 2.394531 C 19.046875 2.457031 18.957031 2.59375 18.957031 2.742188 L 18.957031 3.890625 C 17.257812 3.964844 15.652344 4.542969 14.292969 5.574219 C 12.878906 6.644531 11.824219 8.167969 11.320312 9.859375 C 11.285156 9.972656 11.308594 10.097656 11.378906 10.195312 C 11.449219 10.289062 11.5625 10.347656 11.683594 10.347656 L 14.109375 10.347656 C 14.261719 10.347656 14.398438 10.257812 14.457031 10.117188 C 15.253906 8.296875 16.992188 7.078125 18.957031 6.9375 L 18.957031 8.066406 C 18.957031 8.214844 19.042969 8.351562 19.179688 8.410156 C 19.316406 8.472656 19.476562 8.449219 19.585938 8.351562 L 22.628906 5.691406 C 22.710938 5.617188 22.757812 5.515625 22.757812 5.402344 C 22.757812 5.292969 22.710938 5.191406 22.628906 5.117188 Z M 22.628906 5.117188 " fill-opacity="1" fill-rule="nonzero"/></g><g clip-path="url(#70abf05656)"><path fill="#000000" d="M 26.433594 23.371094 L 23.390625 20.707031 C 23.277344 20.609375 23.121094 20.585938 22.984375 20.648438 C 22.847656 20.710938 22.761719 20.84375 22.761719 20.996094 L 22.761719 22.136719 L 12.875 22.136719 C 9.9375 22.136719 7.550781 19.746094 7.550781 16.8125 C 7.550781 16.601562 7.378906 16.429688 7.167969 16.429688 L 4.886719 16.429688 C 4.679688 16.429688 4.507812 16.601562 4.507812 16.8125 C 4.507812 21.425781 8.261719 25.175781 12.875 25.175781 L 22.761719 25.175781 L 22.761719 26.320312 C 22.761719 26.46875 22.847656 26.601562 22.984375 26.664062 C 23.035156 26.6875 23.085938 26.699219 23.140625 26.699219 C 23.230469 26.699219 23.320312 26.667969 23.390625 26.605469 L 26.433594 23.941406 C 26.515625 23.871094 26.5625 23.765625 26.5625 23.65625 C 26.5625 23.546875 26.515625 23.441406 26.433594 23.371094 Z M 26.433594 23.371094 " fill-opacity="1" fill-rule="nonzero"/></g><path fill="#555555" d="M 12.875 8.445312 C 8.261719 8.445312 4.507812 12.199219 4.507812 16.8125 L 7.550781 16.8125 C 7.550781 13.875 9.9375 11.488281 12.875 11.488281 C 13.082031 11.488281 13.253906 11.316406 13.253906 11.105469 L 13.253906 8.824219 C 13.253906 8.617188 13.082031 8.445312 12.875 8.445312 Z M 12.875 8.445312 " fill-opacity="1" fill-rule="nonzero"/><path fill="#000000" d="M 12.875 8.445312 L 12.875 11.488281 C 15.808594 11.488281 18.195312 13.875 18.195312 16.8125 C 18.195312 17.019531 18.367188 17.191406 18.578125 17.191406 L 20.859375 17.191406 C 21.070312 17.191406 21.238281 17.019531 21.238281 16.8125 C 21.238281 12.199219 17.488281 8.445312 12.875 8.445312 Z M 12.875 8.445312 " fill-opacity="1" fill-rule="nonzero"/><g clip-path="url(#2e3725e5c3)"><path fill="#555555" d="M 18.195312 16.753906 C 18.195312 19.6875 15.808594 22.078125 12.875 22.078125 L 2.605469 22.078125 C 2.394531 22.078125 2.226562 22.246094 2.226562 22.457031 L 2.226562 24.738281 C 2.226562 24.949219 2.394531 25.121094 2.605469 25.121094 L 12.875 25.121094 C 17.488281 25.121094 21.238281 21.367188 21.238281 16.753906 Z M 18.195312 16.753906 " fill-opacity="1" fill-rule="nonzero"/></g><g fill="#000000" fill-opacity="1"><g transform="translate(30.713344, 18.145163)"><g><path d="M 5.515625 -2.15625 L 2.0625 -2.15625 L 1.28125 0 L 0.15625 0 L 3.3125 -8.25 L 4.265625 -8.25 L 7.421875 0 L 6.296875 0 Z M 2.390625 -3.046875 L 5.1875 -3.046875 L 3.78125 -6.90625 Z M 2.390625 -3.046875 "/></g></g><g transform="translate(38.288949, 18.145163)"><g><path d="M 0.546875 -3.125 C 0.546875 -4.070312 0.765625 -4.828125 1.203125 -5.390625 C 1.648438 -5.960938 2.238281 -6.25 2.96875 -6.25 C 3.71875 -6.25 4.300781 -5.984375 4.71875 -5.453125 L 4.765625 -6.140625 L 5.71875 -6.140625 L 5.71875 -0.140625 C 5.71875 0.648438 5.484375 1.273438 5.015625 1.734375 C 4.546875 2.191406 3.914062 2.421875 3.125 2.421875 C 2.675781 2.421875 2.238281 2.320312 1.8125 2.125 C 1.394531 1.9375 1.078125 1.679688 0.859375 1.359375 L 1.40625 0.71875 C 1.851562 1.28125 2.398438 1.5625 3.046875 1.5625 C 3.554688 1.5625 3.953125 1.414062 4.234375 1.125 C 4.523438 0.84375 4.671875 0.441406 4.671875 -0.078125 L 4.671875 -0.609375 C 4.253906 -0.128906 3.679688 0.109375 2.953125 0.109375 C 2.234375 0.109375 1.648438 -0.175781 1.203125 -0.75 C 0.765625 -1.332031 0.546875 -2.125 0.546875 -3.125 Z M 1.59375 -3 C 1.59375 -2.3125 1.734375 -1.769531 2.015625 -1.375 C 2.304688 -0.976562 2.707031 -0.78125 3.21875 -0.78125 C 3.875 -0.78125 4.359375 -1.078125 4.671875 -1.671875 L 4.671875 -4.484375 C 4.347656 -5.066406 3.863281 -5.359375 3.21875 -5.359375 C 2.707031 -5.359375 2.304688 -5.160156 2.015625 -4.765625 C 1.734375 -4.367188 1.59375 -3.78125 1.59375 -3 Z M 1.59375 -3 "/></g></g><g transform="translate(44.804196, 18.145163)"><g><path d="M 1.9375 0 L 0.890625 0 L 0.890625 -6.140625 L 1.9375 -6.140625 Z M 0.796875 -7.765625 C 0.796875 -7.929688 0.847656 -8.070312 0.953125 -8.1875 C 1.054688 -8.300781 1.207031 -8.359375 1.40625 -8.359375 C 1.613281 -8.359375 1.769531 -8.300781 1.875 -8.1875 C 1.988281 -8.070312 2.046875 -7.925781 2.046875 -7.75 C 2.046875 -7.582031 1.988281 -7.441406 1.875 -7.328125 C 1.769531 -7.222656 1.613281 -7.171875 1.40625 -7.171875 C 1.207031 -7.171875 1.054688 -7.222656 0.953125 -7.328125 C 0.847656 -7.441406 0.796875 -7.585938 0.796875 -7.765625 Z M 0.796875 -7.765625 "/></g></g><g transform="translate(47.622366, 18.145163)"><g><path d="M 1.9375 0 L 0.890625 0 L 0.890625 -8.703125 L 1.9375 -8.703125 Z M 1.9375 0 "/></g></g><g transform="translate(50.440536, 18.145163)"><g><path d="M 3.34375 0.109375 C 2.507812 0.109375 1.832031 -0.160156 1.3125 -0.703125 C 0.789062 -1.253906 0.53125 -1.984375 0.53125 -2.890625 L 0.53125 -3.09375 C 0.53125 -3.695312 0.644531 -4.238281 0.875 -4.71875 C 1.101562 -5.195312 1.425781 -5.570312 1.84375 -5.84375 C 2.269531 -6.113281 2.722656 -6.25 3.203125 -6.25 C 4.003906 -6.25 4.625 -5.984375 5.0625 -5.453125 C 5.507812 -4.929688 5.734375 -4.179688 5.734375 -3.203125 L 5.734375 -2.765625 L 1.578125 -2.765625 C 1.585938 -2.160156 1.757812 -1.671875 2.09375 -1.296875 C 2.4375 -0.929688 2.867188 -0.75 3.390625 -0.75 C 3.765625 -0.75 4.078125 -0.820312 4.328125 -0.96875 C 4.585938 -1.125 4.816406 -1.320312 5.015625 -1.5625 L 5.65625 -1.078125 C 5.132812 -0.285156 4.363281 0.109375 3.34375 0.109375 Z M 3.203125 -5.390625 C 2.785156 -5.390625 2.429688 -5.234375 2.140625 -4.921875 C 1.859375 -4.617188 1.679688 -4.1875 1.609375 -3.625 L 4.6875 -3.625 L 4.6875 -3.703125 C 4.65625 -4.234375 4.507812 -4.644531 4.25 -4.9375 C 3.988281 -5.238281 3.640625 -5.390625 3.203125 -5.390625 Z M 3.203125 -5.390625 "/></g></g><g transform="translate(56.59288, 18.145163)"><g/></g><g transform="translate(59.467754, 18.145163)"><g><path d="M 2.046875 -0.890625 L 5.96875 -0.890625 L 5.96875 0 L 0.953125 0 L 0.953125 -8.25 L 2.046875 -8.25 Z M 2.046875 -0.890625 "/></g></g><g transform="translate(65.716494, 18.145163)"><g><path d="M 3.34375 0.109375 C 2.507812 0.109375 1.832031 -0.160156 1.3125 -0.703125 C 0.789062 -1.253906 0.53125 -1.984375 0.53125 -2.890625 L 0.53125 -3.09375 C 0.53125 -3.695312 0.644531 -4.238281 0.875 -4.71875 C 1.101562 -5.195312 1.425781 -5.570312 1.84375 -5.84375 C 2.269531 -6.113281 2.722656 -6.25 3.203125 -6.25 C 4.003906 -6.25 4.625 -5.984375 5.0625 -5.453125 C 5.507812 -4.929688 5.734375 -4.179688 5.734375 -3.203125 L 5.734375 -2.765625 L 1.578125 -2.765625 C 1.585938 -2.160156 1.757812 -1.671875 2.09375 -1.296875 C 2.4375 -0.929688 2.867188 -0.75 3.390625 -0.75 C 3.765625 -0.75 4.078125 -0.820312 4.328125 -0.96875 C 4.585938 -1.125 4.816406 -1.320312 5.015625 -1.5625 L 5.65625 -1.078125 C 5.132812 -0.285156 4.363281 0.109375 3.34375 0.109375 Z M 3.203125 -5.390625 C 2.785156 -5.390625 2.429688 -5.234375 2.140625 -4.921875 C 1.859375 -4.617188 1.679688 -4.1875 1.609375 -3.625 L 4.6875 -3.625 L 4.6875 -3.703125 C 4.65625 -4.234375 4.507812 -4.644531 4.25 -4.9375 C 3.988281 -5.238281 3.640625 -5.390625 3.203125 -5.390625 Z M 3.203125 -5.390625 "/></g></g><g transform="translate(71.868838, 18.145163)"><g><path d="M 4.578125 0 C 4.515625 -0.125 4.46875 -0.335938 4.4375 -0.640625 C 3.945312 -0.140625 3.363281 0.109375 2.6875 0.109375 C 2.082031 0.109375 1.585938 -0.0546875 1.203125 -0.390625 C 0.816406 -0.734375 0.625 -1.171875 0.625 -1.703125 C 0.625 -2.335938 0.863281 -2.832031 1.34375 -3.1875 C 1.832031 -3.539062 2.515625 -3.71875 3.390625 -3.71875 L 4.421875 -3.71875 L 4.421875 -4.203125 C 4.421875 -4.566406 4.3125 -4.859375 4.09375 -5.078125 C 3.875 -5.296875 3.550781 -5.40625 3.125 -5.40625 C 2.75 -5.40625 2.429688 -5.304688 2.171875 -5.109375 C 1.921875 -4.921875 1.796875 -4.695312 1.796875 -4.4375 L 0.75 -4.4375 C 0.75 -4.738281 0.851562 -5.03125 1.0625 -5.3125 C 1.28125 -5.601562 1.578125 -5.832031 1.953125 -6 C 2.328125 -6.164062 2.738281 -6.25 3.1875 -6.25 C 3.882812 -6.25 4.429688 -6.070312 4.828125 -5.71875 C 5.234375 -5.363281 5.445312 -4.875 5.46875 -4.25 L 5.46875 -1.4375 C 5.46875 -0.875 5.539062 -0.425781 5.6875 -0.09375 L 5.6875 0 Z M 2.84375 -0.796875 C 3.164062 -0.796875 3.472656 -0.878906 3.765625 -1.046875 C 4.066406 -1.222656 4.285156 -1.445312 4.421875 -1.71875 L 4.421875 -2.96875 L 3.59375 -2.96875 C 2.3125 -2.96875 1.671875 -2.59375 1.671875 -1.84375 C 1.671875 -1.519531 1.78125 -1.265625 2 -1.078125 C 2.21875 -0.890625 2.5 -0.796875 2.84375 -0.796875 Z M 2.84375 -0.796875 "/></g></g><g transform="translate(78.185622, 18.145163)"><g><path d="M 0.53125 -3.125 C 0.53125 -4.0625 0.753906 -4.816406 1.203125 -5.390625 C 1.648438 -5.960938 2.234375 -6.25 2.953125 -6.25 C 3.671875 -6.25 4.242188 -6.003906 4.671875 -5.515625 L 4.671875 -8.703125 L 5.71875 -8.703125 L 5.71875 0 L 4.75 0 L 4.703125 -0.65625 C 4.273438 -0.144531 3.691406 0.109375 2.953125 0.109375 C 2.234375 0.109375 1.648438 -0.175781 1.203125 -0.75 C 0.753906 -1.332031 0.53125 -2.09375 0.53125 -3.03125 Z M 1.59375 -3 C 1.59375 -2.300781 1.734375 -1.753906 2.015625 -1.359375 C 2.304688 -0.972656 2.703125 -0.78125 3.203125 -0.78125 C 3.867188 -0.78125 4.359375 -1.078125 4.671875 -1.671875 L 4.671875 -4.484375 C 4.347656 -5.066406 3.863281 -5.359375 3.21875 -5.359375 C 2.707031 -5.359375 2.304688 -5.160156 2.015625 -4.765625 C 1.734375 -4.367188 1.59375 -3.78125 1.59375 -3 Z M 1.59375 -3 "/></g></g><g transform="translate(84.734891, 18.145163)"><g><path d="M 3.34375 0.109375 C 2.507812 0.109375 1.832031 -0.160156 1.3125 -0.703125 C 0.789062 -1.253906 0.53125 -1.984375 0.53125 -2.890625 L 0.53125 -3.09375 C 0.53125 -3.695312 0.644531 -4.238281 0.875 -4.71875 C 1.101562 -5.195312 1.425781 -5.570312 1.84375 -5.84375 C 2.269531 -6.113281 2.722656 -6.25 3.203125 -6.25 C 4.003906 -6.25 4.625 -5.984375 5.0625 -5.453125 C 5.507812 -4.929688 5.734375 -4.179688 5.734375 -3.203125 L 5.734375 -2.765625 L 1.578125 -2.765625 C 1.585938 -2.160156 1.757812 -1.671875 2.09375 -1.296875 C 2.4375 -0.929688 2.867188 -0.75 3.390625 -0.75 C 3.765625 -0.75 4.078125 -0.820312 4.328125 -0.96875 C 4.585938 -1.125 4.816406 -1.320312 5.015625 -1.5625 L 5.65625 -1.078125 C 5.132812 -0.285156 4.363281 0.109375 3.34375 0.109375 Z M 3.203125 -5.390625 C 2.785156 -5.390625 2.429688 -5.234375 2.140625 -4.921875 C 1.859375 -4.617188 1.679688 -4.1875 1.609375 -3.625 L 4.6875 -3.625 L 4.6875 -3.703125 C 4.65625 -4.234375 4.507812 -4.644531 4.25 -4.9375 C 3.988281 -5.238281 3.640625 -5.390625 3.203125 -5.390625 Z M 3.203125 -5.390625 "/></g></g><g transform="translate(90.887235, 18.145163)"><g><path d="M 3.765625 -5.1875 C 3.597656 -5.21875 3.425781 -5.234375 3.25 -5.234375 C 2.550781 -5.234375 2.082031 -4.941406 1.84375 -4.359375 L 1.84375 0 L 0.796875 0 L 0.796875 -6.140625 L 1.8125 -6.140625 L 1.828125 -5.421875 C 2.171875 -5.972656 2.660156 -6.25 3.296875 -6.25 C 3.492188 -6.25 3.648438 -6.222656 3.765625 -6.171875 Z M 3.765625 -5.1875 "/></g></g><g transform="translate(94.816796, 18.145163)"><g><path d="M 4.359375 -1.625 C 4.359375 -1.90625 4.25 -2.125 4.03125 -2.28125 C 3.820312 -2.4375 3.453125 -2.570312 2.921875 -2.6875 C 2.390625 -2.800781 1.96875 -2.9375 1.65625 -3.09375 C 1.351562 -3.257812 1.125 -3.453125 0.96875 -3.671875 C 0.820312 -3.890625 0.75 -4.148438 0.75 -4.453125 C 0.75 -4.953125 0.960938 -5.375 1.390625 -5.71875 C 1.816406 -6.070312 2.359375 -6.25 3.015625 -6.25 C 3.710938 -6.25 4.273438 -6.066406 4.703125 -5.703125 C 5.140625 -5.347656 5.359375 -4.890625 5.359375 -4.328125 L 4.296875 -4.328125 C 4.296875 -4.617188 4.175781 -4.867188 3.9375 -5.078125 C 3.695312 -5.285156 3.390625 -5.390625 3.015625 -5.390625 C 2.628906 -5.390625 2.328125 -5.304688 2.109375 -5.140625 C 1.898438 -4.972656 1.796875 -4.753906 1.796875 -4.484375 C 1.796875 -4.234375 1.894531 -4.039062 2.09375 -3.90625 C 2.289062 -3.78125 2.648438 -3.65625 3.171875 -3.53125 C 3.703125 -3.414062 4.128906 -3.273438 4.453125 -3.109375 C 4.773438 -2.953125 5.015625 -2.757812 5.171875 -2.53125 C 5.328125 -2.300781 5.40625 -2.023438 5.40625 -1.703125 C 5.40625 -1.148438 5.1875 -0.707031 4.75 -0.375 C 4.3125 -0.0507812 3.742188 0.109375 3.046875 0.109375 C 2.554688 0.109375 2.117188 0.0234375 1.734375 -0.140625 C 1.359375 -0.316406 1.0625 -0.5625 0.84375 -0.875 C 0.632812 -1.1875 0.53125 -1.523438 0.53125 -1.890625 L 1.59375 -1.890625 C 1.601562 -1.535156 1.738281 -1.253906 2 -1.046875 C 2.269531 -0.847656 2.617188 -0.75 3.046875 -0.75 C 3.441406 -0.75 3.757812 -0.828125 4 -0.984375 C 4.238281 -1.140625 4.359375 -1.351562 4.359375 -1.625 Z M 4.359375 -1.625 "/></g></g><g transform="translate(100.804699, 18.145163)"><g><path d="M 1.84375 -5.390625 C 2.3125 -5.960938 2.914062 -6.25 3.65625 -6.25 C 4.945312 -6.25 5.601562 -5.515625 5.625 -4.046875 L 5.625 0 L 4.5625 0 L 4.5625 -4.0625 C 4.5625 -4.5 4.460938 -4.820312 4.265625 -5.03125 C 4.066406 -5.25 3.757812 -5.359375 3.34375 -5.359375 C 3 -5.359375 2.695312 -5.265625 2.4375 -5.078125 C 2.1875 -4.898438 1.988281 -4.664062 1.84375 -4.375 L 1.84375 0 L 0.796875 0 L 0.796875 -8.703125 L 1.84375 -8.703125 Z M 1.84375 -5.390625 "/></g></g><g transform="translate(107.200869, 18.145163)"><g><path d="M 1.9375 0 L 0.890625 0 L 0.890625 -6.140625 L 1.9375 -6.140625 Z M 0.796875 -7.765625 C 0.796875 -7.929688 0.847656 -8.070312 0.953125 -8.1875 C 1.054688 -8.300781 1.207031 -8.359375 1.40625 -8.359375 C 1.613281 -8.359375 1.769531 -8.300781 1.875 -8.1875 C 1.988281 -8.070312 2.046875 -7.925781 2.046875 -7.75 C 2.046875 -7.582031 1.988281 -7.441406 1.875 -7.328125 C 1.769531 -7.222656 1.613281 -7.171875 1.40625 -7.171875 C 1.207031 -7.171875 1.054688 -7.222656 0.953125 -7.328125 C 0.847656 -7.441406 0.796875 -7.585938 0.796875 -7.765625 Z M 0.796875 -7.765625 "/></g></g><g transform="translate(110.019039, 18.145163)"><g><path d="M 5.96875 -3 C 5.96875 -2.0625 5.753906 -1.304688 5.328125 -0.734375 C 4.898438 -0.171875 4.320312 0.109375 3.59375 0.109375 C 2.851562 0.109375 2.269531 -0.125 1.84375 -0.59375 L 1.84375 2.359375 L 0.796875 2.359375 L 0.796875 -6.140625 L 1.75 -6.140625 L 1.796875 -5.453125 C 2.222656 -5.984375 2.816406 -6.25 3.578125 -6.25 C 4.316406 -6.25 4.898438 -5.96875 5.328125 -5.40625 C 5.753906 -4.851562 5.96875 -4.082031 5.96875 -3.09375 Z M 4.921875 -3.125 C 4.921875 -3.8125 4.773438 -4.351562 4.484375 -4.75 C 4.191406 -5.15625 3.785156 -5.359375 3.265625 -5.359375 C 2.628906 -5.359375 2.15625 -5.078125 1.84375 -4.515625 L 1.84375 -1.578125 C 2.15625 -1.023438 2.632812 -0.75 3.28125 -0.75 C 3.78125 -0.75 4.175781 -0.945312 4.46875 -1.34375 C 4.769531 -1.738281 4.921875 -2.332031 4.921875 -3.125 Z M 4.921875 -3.125 "/></g></g></g></svg>