<svg xmlns="http://www.w3.org/2000/svg" xmlns:xlink="http://www.w3.org/1999/xlink" width="184" zoomAndPan="magnify" viewBox="0 0 138 30.000001" height="40" preserveAspectRatio="xMidYMid meet" version="1.0"><defs><g/><clipPath id="84a848cf78"><path d="M 2.226562 1.179688 L 29.082031 1.179688 L 29.082031 28.035156 L 2.226562 28.035156 Z M 2.226562 1.179688 " clip-rule="nonzero"/></clipPath></defs><g clip-path="url(#84a848cf78)"><path fill="#000000" d="M 20.363281 6.367188 L 20.363281 2.214844 C 20.363281 1.644531 20.828125 1.179688 21.398438 1.179688 L 28.042969 1.179688 C 28.613281 1.179688 29.082031 1.644531 29.082031 2.214844 L 29.082031 6.367188 C 29.082031 6.9375 28.613281 7.40625 28.042969 7.40625 L 26.390625 7.40625 L 26.390625 7.804688 L 26.875 7.804688 C 27.417969 7.804688 27.820312 8.214844 27.820312 8.652344 L 27.820312 9.234375 C 27.820312 9.472656 27.628906 9.667969 27.390625 9.667969 L 22.054688 9.667969 C 21.816406 9.667969 21.621094 9.472656 21.621094 9.234375 L 21.621094 8.652344 C 21.621094 8.214844 22.023438 7.804688 22.570312 7.804688 L 23.054688 7.804688 L 23.054688 7.40625 L 21.398438 7.40625 C 20.828125 7.40625 20.363281 6.9375 20.363281 6.367188 Z M 28.214844 5.269531 L 28.214844 2.214844 C 28.214844 2.121094 28.136719 2.046875 28.042969 2.046875 L 21.398438 2.046875 C 21.304688 2.046875 21.230469 2.121094 21.230469 2.214844 L 21.230469 5.269531 Z M 25.523438 7.40625 L 23.921875 7.40625 L 23.921875 7.804688 L 25.523438 7.804688 Z M 21.230469 6.136719 L 21.230469 6.367188 C 21.230469 6.460938 21.304688 6.539062 21.398438 6.539062 L 28.042969 6.539062 C 28.136719 6.539062 28.214844 6.460938 28.214844 6.367188 L 28.214844 6.136719 Z M 22.488281 8.695312 L 22.488281 8.800781 C 22.488281 8.800781 26.957031 8.800781 26.957031 8.800781 L 26.957031 8.695312 C 26.9375 8.6875 26.902344 8.671875 26.875 8.671875 L 22.570312 8.671875 C 22.542969 8.671875 22.507812 8.6875 22.488281 8.695312 Z M 20.363281 15.550781 L 20.363281 11.398438 C 20.363281 10.828125 20.828125 10.363281 21.398438 10.363281 L 28.042969 10.363281 C 28.613281 10.363281 29.082031 10.828125 29.082031 11.398438 L 29.082031 15.550781 C 29.082031 16.121094 28.613281 16.589844 28.042969 16.589844 L 26.390625 16.589844 L 26.390625 16.988281 L 26.875 16.988281 C 27.417969 16.988281 27.820312 17.398438 27.820312 17.832031 L 27.820312 18.417969 C 27.820312 18.65625 27.628906 18.851562 27.390625 18.851562 L 22.054688 18.851562 C 21.816406 18.851562 21.621094 18.65625 21.621094 18.417969 L 21.621094 17.832031 C 21.621094 17.398438 22.023438 16.988281 22.570312 16.988281 L 23.054688 16.988281 L 23.054688 16.589844 L 21.398438 16.589844 C 20.828125 16.589844 20.363281 16.121094 20.363281 15.550781 Z M 28.214844 14.453125 L 28.214844 11.398438 C 28.214844 11.304688 28.136719 11.230469 28.042969 11.230469 L 21.398438 11.230469 C 21.304688 11.230469 21.230469 11.304688 21.230469 11.398438 L 21.230469 14.453125 Z M 25.523438 16.589844 L 23.921875 16.589844 L 23.921875 16.988281 L 25.523438 16.988281 Z M 21.230469 15.320312 L 21.230469 15.550781 C 21.230469 15.644531 21.304688 15.722656 21.398438 15.722656 L 28.042969 15.722656 C 28.136719 15.722656 28.214844 15.644531 28.214844 15.550781 L 28.214844 15.320312 Z M 22.488281 17.878906 L 22.488281 17.984375 C 22.488281 17.984375 26.957031 17.984375 26.957031 17.984375 L 26.957031 17.878906 C 26.9375 17.871094 26.902344 17.855469 26.875 17.855469 L 22.570312 17.855469 C 22.542969 17.855469 22.507812 17.871094 22.488281 17.878906 Z M 20.363281 24.734375 L 20.363281 20.582031 C 20.363281 20.011719 20.828125 19.546875 21.398438 19.546875 L 28.042969 19.546875 C 28.613281 19.546875 29.082031 20.011719 29.082031 20.582031 L 29.082031 24.734375 C 29.082031 25.304688 28.613281 25.769531 28.042969 25.769531 L 26.390625 25.769531 L 26.390625 26.171875 L 26.875 26.171875 C 27.417969 26.171875 27.820312 26.582031 27.820312 27.015625 L 27.820312 27.601562 C 27.820312 27.839844 27.628906 28.035156 27.390625 28.035156 L 22.054688 28.035156 C 21.816406 28.035156 21.621094 27.839844 21.621094 27.601562 L 21.621094 27.015625 C 21.621094 26.582031 22.023438 26.171875 22.570312 26.171875 L 23.054688 26.171875 L 23.054688 25.769531 L 21.398438 25.769531 C 20.828125 25.769531 20.363281 25.304688 20.363281 24.734375 Z M 28.214844 23.636719 L 28.214844 20.582031 C 28.214844 20.488281 28.136719 20.410156 28.042969 20.410156 L 21.398438 20.410156 C 21.304688 20.410156 21.230469 20.488281 21.230469 20.582031 L 21.230469 23.636719 Z M 25.523438 25.769531 L 23.921875 25.769531 L 23.921875 26.171875 L 25.523438 26.171875 Z M 21.230469 24.503906 L 21.230469 24.734375 C 21.230469 24.828125 21.304688 24.90625 21.398438 24.90625 L 28.042969 24.90625 C 28.136719 24.90625 28.214844 24.828125 28.214844 24.734375 L 28.214844 24.503906 Z M 22.488281 27.0625 L 22.488281 27.167969 C 22.488281 27.167969 26.957031 27.167969 26.957031 27.167969 L 26.957031 27.0625 C 26.9375 27.050781 26.902344 27.039062 26.875 27.039062 L 22.570312 27.039062 C 22.542969 27.039062 22.507812 27.050781 22.488281 27.0625 Z M 14.511719 16.199219 C 13.808594 16.011719 13.292969 15.367188 13.292969 14.605469 C 13.292969 13.84375 13.808594 13.203125 14.511719 13.011719 L 14.511719 5.425781 C 14.511719 5.183594 14.703125 4.992188 14.945312 4.992188 L 18.269531 4.992188 C 18.507812 4.992188 18.703125 5.183594 18.703125 5.425781 C 18.703125 5.664062 18.507812 5.855469 18.269531 5.855469 L 15.378906 5.855469 L 15.378906 13.011719 C 15.941406 13.167969 16.386719 13.609375 16.539062 14.175781 L 18.269531 14.175781 C 18.507812 14.175781 18.703125 14.367188 18.703125 14.605469 C 18.703125 14.847656 18.507812 15.039062 18.269531 15.039062 L 16.539062 15.039062 C 16.386719 15.605469 15.941406 16.046875 15.378906 16.199219 C 15.378906 17.722656 15.378906 23.355469 15.378906 23.355469 L 18.269531 23.355469 C 18.507812 23.355469 18.703125 23.550781 18.703125 23.789062 C 18.703125 24.027344 18.507812 24.222656 18.269531 24.222656 L 14.945312 24.222656 C 14.703125 24.222656 14.511719 24.03125 14.511719 23.789062 Z M 14.945312 13.820312 C 14.511719 13.820312 14.160156 14.171875 14.160156 14.605469 C 14.160156 15.039062 14.511719 15.390625 14.945312 15.390625 C 15.378906 15.390625 15.730469 15.039062 15.730469 14.605469 C 15.730469 14.171875 15.378906 13.820312 14.945312 13.820312 Z M 4.253906 13.695312 L 2.960938 13.695312 C 2.765625 13.695312 2.578125 13.617188 2.441406 13.480469 C 2.304688 13.34375 2.226562 13.15625 2.226562 12.960938 L 2.226562 9.558594 C 2.226562 9.363281 2.304688 9.175781 2.441406 9.039062 C 2.578125 8.902344 2.765625 8.824219 2.960938 8.824219 L 12.277344 8.824219 C 12.472656 8.824219 12.660156 8.902344 12.796875 9.039062 C 12.933594 9.175781 13.011719 9.363281 13.011719 9.558594 L 13.011719 12.960938 C 13.011719 13.15625 12.933594 13.34375 12.796875 13.480469 C 12.660156 13.617188 12.472656 13.695312 12.277344 13.695312 L 10.980469 13.695312 L 10.980469 15.519531 L 12.277344 15.519531 C 12.472656 15.519531 12.660156 15.597656 12.796875 15.734375 C 12.933594 15.871094 13.011719 16.058594 13.011719 16.253906 L 13.011719 19.65625 C 13.011719 19.851562 12.933594 20.039062 12.796875 20.175781 C 12.660156 20.3125 12.472656 20.390625 12.277344 20.390625 L 2.960938 20.390625 C 2.765625 20.390625 2.578125 20.3125 2.441406 20.175781 C 2.304688 20.039062 2.226562 19.851562 2.226562 19.65625 L 2.226562 16.253906 C 2.226562 16.058594 2.304688 15.871094 2.441406 15.734375 C 2.578125 15.597656 2.765625 15.519531 2.960938 15.519531 L 4.253906 15.519531 Z M 10.117188 13.695312 L 5.121094 13.695312 L 5.121094 15.519531 L 10.117188 15.519531 Z M 3.09375 16.382812 L 3.09375 19.523438 L 12.144531 19.523438 L 12.144531 16.382812 Z M 8.117188 18.386719 C 7.878906 18.386719 7.6875 18.195312 7.6875 17.953125 C 7.6875 17.714844 7.878906 17.519531 8.117188 17.519531 L 10.804688 17.519531 C 11.042969 17.519531 11.238281 17.714844 11.238281 17.953125 C 11.238281 18.195312 11.042969 18.386719 10.804688 18.386719 Z M 4.945312 16.664062 C 5.65625 16.664062 6.234375 17.242188 6.234375 17.953125 C 6.234375 18.667969 5.65625 19.246094 4.945312 19.246094 C 4.234375 19.246094 3.652344 18.667969 3.652344 17.953125 C 3.652344 17.242188 4.234375 16.664062 4.945312 16.664062 Z M 4.945312 17.53125 C 4.710938 17.53125 4.519531 17.71875 4.519531 17.953125 C 4.519531 18.1875 4.710938 18.378906 4.945312 18.378906 C 5.179688 18.378906 5.371094 18.1875 5.371094 17.953125 C 5.371094 17.71875 5.179688 17.53125 4.945312 17.53125 Z M 3.09375 9.691406 L 3.09375 12.828125 L 12.144531 12.828125 L 12.144531 9.691406 Z M 4.945312 9.96875 C 5.65625 9.96875 6.234375 10.546875 6.234375 11.257812 C 6.234375 11.972656 5.65625 12.550781 4.945312 12.550781 C 4.234375 12.550781 3.652344 11.972656 3.652344 11.257812 C 3.652344 10.546875 4.234375 9.96875 4.945312 9.96875 Z M 4.945312 10.835938 C 4.710938 10.835938 4.519531 11.023438 4.519531 11.257812 C 4.519531 11.492188 4.710938 11.683594 4.945312 11.683594 C 5.179688 11.683594 5.371094 11.492188 5.371094 11.257812 C 5.371094 11.023438 5.179688 10.835938 4.945312 10.835938 Z M 8.117188 11.691406 C 7.878906 11.691406 7.6875 11.5 7.6875 11.257812 C 7.6875 11.019531 7.878906 10.828125 8.117188 10.828125 L 10.804688 10.828125 C 11.042969 10.828125 11.238281 11.019531 11.238281 11.257812 C 11.238281 11.5 11.042969 11.691406 10.804688 11.691406 Z M 8.117188 11.691406 " fill-opacity="1" fill-rule="evenodd"/></g><g fill="#000000" fill-opacity="1"><g transform="translate(35.358507, 18.145163)"><g><path d="M 0.875 0 L 0.875 -7.5625 L 3.015625 -7.5625 C 3.671875 -7.5625 4.25 -7.414062 4.75 -7.125 C 5.257812 -6.832031 5.648438 -6.414062 5.921875 -5.875 C 6.203125 -5.34375 6.34375 -4.726562 6.34375 -4.03125 L 6.34375 -3.546875 C 6.34375 -2.835938 6.203125 -2.210938 5.921875 -1.671875 C 5.648438 -1.140625 5.257812 -0.726562 4.75 -0.4375 C 4.238281 -0.15625 3.644531 -0.0078125 2.96875 0 Z M 1.875 -6.75 L 1.875 -0.8125 L 2.921875 -0.8125 C 3.691406 -0.8125 4.289062 -1.050781 4.71875 -1.53125 C 5.144531 -2.007812 5.359375 -2.691406 5.359375 -3.578125 L 5.359375 -4.015625 C 5.359375 -4.878906 5.15625 -5.546875 4.75 -6.015625 C 4.351562 -6.492188 3.785156 -6.738281 3.046875 -6.75 Z M 1.875 -6.75 "/></g></g></g><g fill="#000000" fill-opacity="1"><g transform="translate(42.334238, 18.145163)"><g><path d="M 1.765625 0 L 0.8125 0 L 0.8125 -5.625 L 1.765625 -5.625 Z M 0.734375 -7.109375 C 0.734375 -7.265625 0.78125 -7.394531 0.875 -7.5 C 0.96875 -7.613281 1.109375 -7.671875 1.296875 -7.671875 C 1.484375 -7.671875 1.625 -7.613281 1.71875 -7.5 C 1.820312 -7.394531 1.875 -7.265625 1.875 -7.109375 C 1.875 -6.953125 1.820312 -6.820312 1.71875 -6.71875 C 1.625 -6.613281 1.484375 -6.5625 1.296875 -6.5625 C 1.109375 -6.5625 0.96875 -6.613281 0.875 -6.71875 C 0.78125 -6.820312 0.734375 -6.953125 0.734375 -7.109375 Z M 0.734375 -7.109375 "/></g></g></g><g fill="#000000" fill-opacity="1"><g transform="translate(44.915726, 18.145163)"><g><path d="M 4 -1.484375 C 4 -1.742188 3.898438 -1.945312 3.703125 -2.09375 C 3.503906 -2.238281 3.160156 -2.363281 2.671875 -2.46875 C 2.191406 -2.570312 1.804688 -2.695312 1.515625 -2.84375 C 1.234375 -2.988281 1.023438 -3.160156 0.890625 -3.359375 C 0.753906 -3.554688 0.6875 -3.796875 0.6875 -4.078125 C 0.6875 -4.535156 0.878906 -4.921875 1.265625 -5.234375 C 1.660156 -5.554688 2.160156 -5.71875 2.765625 -5.71875 C 3.398438 -5.71875 3.914062 -5.550781 4.3125 -5.21875 C 4.707031 -4.894531 4.90625 -4.476562 4.90625 -3.96875 L 3.9375 -3.96875 C 3.9375 -4.226562 3.820312 -4.453125 3.59375 -4.640625 C 3.375 -4.835938 3.097656 -4.9375 2.765625 -4.9375 C 2.410156 -4.9375 2.132812 -4.859375 1.9375 -4.703125 C 1.738281 -4.554688 1.640625 -4.359375 1.640625 -4.109375 C 1.640625 -3.878906 1.734375 -3.703125 1.921875 -3.578125 C 2.109375 -3.460938 2.441406 -3.351562 2.921875 -3.25 C 3.398438 -3.144531 3.785156 -3.015625 4.078125 -2.859375 C 4.378906 -2.710938 4.601562 -2.535156 4.75 -2.328125 C 4.894531 -2.117188 4.96875 -1.863281 4.96875 -1.5625 C 4.96875 -1.0625 4.765625 -0.65625 4.359375 -0.34375 C 3.953125 -0.0390625 3.429688 0.109375 2.796875 0.109375 C 2.347656 0.109375 1.945312 0.03125 1.59375 -0.125 C 1.25 -0.289062 0.976562 -0.515625 0.78125 -0.796875 C 0.59375 -1.085938 0.5 -1.398438 0.5 -1.734375 L 1.453125 -1.734375 C 1.472656 -1.410156 1.601562 -1.15625 1.84375 -0.96875 C 2.082031 -0.78125 2.398438 -0.6875 2.796875 -0.6875 C 3.160156 -0.6875 3.453125 -0.757812 3.671875 -0.90625 C 3.890625 -1.050781 4 -1.242188 4 -1.484375 Z M 4 -1.484375 "/></g></g></g><g fill="#000000" fill-opacity="1"><g transform="translate(50.400739, 18.145163)"><g><path d="M 2.03125 -6.984375 L 2.03125 -5.625 L 3.078125 -5.625 L 3.078125 -4.875 L 2.03125 -4.875 L 2.03125 -1.390625 C 2.03125 -1.171875 2.078125 -1.003906 2.171875 -0.890625 C 2.265625 -0.773438 2.425781 -0.71875 2.65625 -0.71875 C 2.757812 -0.71875 2.910156 -0.738281 3.109375 -0.78125 L 3.109375 0 C 2.859375 0.0703125 2.613281 0.109375 2.375 0.109375 C 1.9375 0.109375 1.609375 -0.0195312 1.390625 -0.28125 C 1.171875 -0.539062 1.0625 -0.910156 1.0625 -1.390625 L 1.0625 -4.875 L 0.046875 -4.875 L 0.046875 -5.625 L 1.0625 -5.625 L 1.0625 -6.984375 Z M 2.03125 -6.984375 "/></g></g></g><g fill="#000000" fill-opacity="1"><g transform="translate(53.87562, 18.145163)"><g><path d="M 3.4375 -4.765625 C 3.289062 -4.785156 3.132812 -4.796875 2.96875 -4.796875 C 2.34375 -4.796875 1.914062 -4.523438 1.6875 -3.984375 L 1.6875 0 L 0.734375 0 L 0.734375 -5.625 L 1.65625 -5.625 L 1.671875 -4.96875 C 1.992188 -5.46875 2.441406 -5.71875 3.015625 -5.71875 C 3.203125 -5.71875 3.34375 -5.695312 3.4375 -5.65625 Z M 3.4375 -4.765625 "/></g></g></g><g fill="#000000" fill-opacity="1"><g transform="translate(57.475159, 18.145163)"><g><path d="M 1.765625 0 L 0.8125 0 L 0.8125 -5.625 L 1.765625 -5.625 Z M 0.734375 -7.109375 C 0.734375 -7.265625 0.78125 -7.394531 0.875 -7.5 C 0.96875 -7.613281 1.109375 -7.671875 1.296875 -7.671875 C 1.484375 -7.671875 1.625 -7.613281 1.71875 -7.5 C 1.820312 -7.394531 1.875 -7.265625 1.875 -7.109375 C 1.875 -6.953125 1.820312 -6.820312 1.71875 -6.71875 C 1.625 -6.613281 1.484375 -6.5625 1.296875 -6.5625 C 1.109375 -6.5625 0.96875 -6.613281 0.875 -6.71875 C 0.78125 -6.820312 0.734375 -6.953125 0.734375 -7.109375 Z M 0.734375 -7.109375 "/></g></g></g><g fill="#000000" fill-opacity="1"><g transform="translate(60.056647, 18.145163)"><g><path d="M 5.484375 -2.75 C 5.484375 -1.882812 5.285156 -1.191406 4.890625 -0.671875 C 4.492188 -0.148438 3.960938 0.109375 3.296875 0.109375 C 2.585938 0.109375 2.039062 -0.144531 1.65625 -0.65625 L 1.609375 0 L 0.734375 0 L 0.734375 -7.984375 L 1.6875 -7.984375 L 1.6875 -5 C 2.070312 -5.476562 2.601562 -5.71875 3.28125 -5.71875 C 3.96875 -5.71875 4.503906 -5.457031 4.890625 -4.9375 C 5.285156 -4.425781 5.484375 -3.722656 5.484375 -2.828125 Z M 4.53125 -2.859375 C 4.53125 -3.515625 4.398438 -4.019531 4.140625 -4.375 C 3.890625 -4.726562 3.53125 -4.90625 3.0625 -4.90625 C 2.425781 -4.90625 1.96875 -4.613281 1.6875 -4.03125 L 1.6875 -1.59375 C 1.976562 -1.007812 2.4375 -0.71875 3.0625 -0.71875 C 3.519531 -0.71875 3.878906 -0.894531 4.140625 -1.25 C 4.398438 -1.601562 4.53125 -2.140625 4.53125 -2.859375 Z M 4.53125 -2.859375 "/></g></g></g><g fill="#000000" fill-opacity="1"><g transform="translate(66.024715, 18.145163)"><g><path d="M 4.203125 -0.5625 C 3.828125 -0.113281 3.273438 0.109375 2.546875 0.109375 C 1.953125 0.109375 1.5 -0.0625 1.1875 -0.40625 C 0.875 -0.757812 0.710938 -1.28125 0.703125 -1.96875 L 0.703125 -5.625 L 1.671875 -5.625 L 1.671875 -1.984375 C 1.671875 -1.140625 2.015625 -0.71875 2.703125 -0.71875 C 3.441406 -0.71875 3.929688 -0.988281 4.171875 -1.53125 L 4.171875 -5.625 L 5.140625 -5.625 L 5.140625 0 L 4.21875 0 Z M 4.203125 -0.5625 "/></g></g></g><g fill="#000000" fill-opacity="1"><g transform="translate(71.888901, 18.145163)"><g><path d="M 2.03125 -6.984375 L 2.03125 -5.625 L 3.078125 -5.625 L 3.078125 -4.875 L 2.03125 -4.875 L 2.03125 -1.390625 C 2.03125 -1.171875 2.078125 -1.003906 2.171875 -0.890625 C 2.265625 -0.773438 2.425781 -0.71875 2.65625 -0.71875 C 2.757812 -0.71875 2.910156 -0.738281 3.109375 -0.78125 L 3.109375 0 C 2.859375 0.0703125 2.613281 0.109375 2.375 0.109375 C 1.9375 0.109375 1.609375 -0.0195312 1.390625 -0.28125 C 1.171875 -0.539062 1.0625 -0.910156 1.0625 -1.390625 L 1.0625 -4.875 L 0.046875 -4.875 L 0.046875 -5.625 L 1.0625 -5.625 L 1.0625 -6.984375 Z M 2.03125 -6.984375 "/></g></g></g><g fill="#000000" fill-opacity="1"><g transform="translate(75.363781, 18.145163)"><g><path d="M 3.0625 0.109375 C 2.300781 0.109375 1.679688 -0.140625 1.203125 -0.640625 C 0.722656 -1.140625 0.484375 -1.8125 0.484375 -2.65625 L 0.484375 -2.828125 C 0.484375 -3.390625 0.585938 -3.890625 0.796875 -4.328125 C 1.015625 -4.765625 1.3125 -5.101562 1.6875 -5.34375 C 2.070312 -5.59375 2.488281 -5.71875 2.9375 -5.71875 C 3.664062 -5.71875 4.234375 -5.476562 4.640625 -5 C 5.046875 -4.519531 5.25 -3.832031 5.25 -2.9375 L 5.25 -2.53125 L 1.4375 -2.53125 C 1.457031 -1.976562 1.617188 -1.53125 1.921875 -1.1875 C 2.234375 -0.851562 2.628906 -0.6875 3.109375 -0.6875 C 3.453125 -0.6875 3.738281 -0.753906 3.96875 -0.890625 C 4.207031 -1.023438 4.414062 -1.207031 4.59375 -1.4375 L 5.1875 -0.984375 C 4.707031 -0.253906 4 0.109375 3.0625 0.109375 Z M 2.9375 -4.9375 C 2.550781 -4.9375 2.222656 -4.796875 1.953125 -4.515625 C 1.691406 -4.234375 1.53125 -3.835938 1.46875 -3.328125 L 4.296875 -3.328125 L 4.296875 -3.390625 C 4.265625 -3.878906 4.128906 -4.257812 3.890625 -4.53125 C 3.660156 -4.800781 3.34375 -4.9375 2.9375 -4.9375 Z M 2.9375 -4.9375 "/></g></g></g><g fill="#000000" fill-opacity="1"><g transform="translate(80.999424, 18.145163)"><g><path d="M 0.5 -2.859375 C 0.5 -3.722656 0.703125 -4.414062 1.109375 -4.9375 C 1.515625 -5.457031 2.050781 -5.71875 2.71875 -5.71875 C 3.375 -5.71875 3.894531 -5.492188 4.28125 -5.046875 L 4.28125 -7.984375 L 5.234375 -7.984375 L 5.234375 0 L 4.359375 0 L 4.3125 -0.609375 C 3.925781 -0.128906 3.390625 0.109375 2.703125 0.109375 C 2.046875 0.109375 1.515625 -0.15625 1.109375 -0.6875 C 0.703125 -1.226562 0.5 -1.925781 0.5 -2.78125 Z M 1.453125 -2.75 C 1.453125 -2.113281 1.582031 -1.613281 1.84375 -1.25 C 2.113281 -0.894531 2.476562 -0.71875 2.9375 -0.71875 C 3.550781 -0.71875 4 -0.988281 4.28125 -1.53125 L 4.28125 -4.109375 C 3.988281 -4.640625 3.546875 -4.90625 2.953125 -4.90625 C 2.484375 -4.90625 2.113281 -4.722656 1.84375 -4.359375 C 1.582031 -3.992188 1.453125 -3.457031 1.453125 -2.75 Z M 1.453125 -2.75 "/></g></g></g><g fill="#000000" fill-opacity="1"><g transform="translate(89.632086, 18.145163)"><g><path d="M 3.109375 -3.375 C 2.253906 -3.613281 1.628906 -3.910156 1.234375 -4.265625 C 0.847656 -4.628906 0.65625 -5.078125 0.65625 -5.609375 C 0.65625 -6.203125 0.890625 -6.691406 1.359375 -7.078125 C 1.835938 -7.472656 2.457031 -7.671875 3.21875 -7.671875 C 3.738281 -7.671875 4.203125 -7.566406 4.609375 -7.359375 C 5.023438 -7.160156 5.34375 -6.882812 5.5625 -6.53125 C 5.78125 -6.175781 5.890625 -5.789062 5.890625 -5.375 L 4.890625 -5.375 C 4.890625 -5.832031 4.742188 -6.191406 4.453125 -6.453125 C 4.160156 -6.710938 3.75 -6.84375 3.21875 -6.84375 C 2.726562 -6.84375 2.34375 -6.734375 2.0625 -6.515625 C 1.789062 -6.304688 1.65625 -6.007812 1.65625 -5.625 C 1.65625 -5.3125 1.785156 -5.046875 2.046875 -4.828125 C 2.316406 -4.617188 2.765625 -4.425781 3.390625 -4.25 C 4.015625 -4.070312 4.503906 -3.875 4.859375 -3.65625 C 5.210938 -3.445312 5.472656 -3.203125 5.640625 -2.921875 C 5.816406 -2.640625 5.90625 -2.304688 5.90625 -1.921875 C 5.90625 -1.304688 5.664062 -0.8125 5.1875 -0.4375 C 4.71875 -0.0703125 4.082031 0.109375 3.28125 0.109375 C 2.757812 0.109375 2.269531 0.0078125 1.8125 -0.1875 C 1.363281 -0.394531 1.019531 -0.671875 0.78125 -1.015625 C 0.539062 -1.359375 0.421875 -1.75 0.421875 -2.1875 L 1.421875 -2.1875 C 1.421875 -1.726562 1.585938 -1.367188 1.921875 -1.109375 C 2.265625 -0.847656 2.71875 -0.71875 3.28125 -0.71875 C 3.800781 -0.71875 4.203125 -0.820312 4.484375 -1.03125 C 4.765625 -1.25 4.90625 -1.539062 4.90625 -1.90625 C 4.90625 -2.28125 4.773438 -2.566406 4.515625 -2.765625 C 4.253906 -2.972656 3.785156 -3.175781 3.109375 -3.375 Z M 3.109375 -3.375 "/></g></g></g><g fill="#000000" fill-opacity="1"><g transform="translate(95.942967, 18.145163)"><g><path d="M 2.5625 -1.40625 L 3.875 -5.625 L 4.90625 -5.625 L 2.640625 0.875 C 2.296875 1.800781 1.742188 2.265625 0.984375 2.265625 L 0.796875 2.25 L 0.4375 2.1875 L 0.4375 1.40625 L 0.703125 1.421875 C 1.023438 1.421875 1.273438 1.351562 1.453125 1.21875 C 1.640625 1.09375 1.789062 0.859375 1.90625 0.515625 L 2.125 -0.0625 L 0.109375 -5.625 L 1.15625 -5.625 Z M 2.5625 -1.40625 "/></g></g></g><g fill="#000000" fill-opacity="1"><g transform="translate(100.97609, 18.145163)"><g><path d="M 4 -1.484375 C 4 -1.742188 3.898438 -1.945312 3.703125 -2.09375 C 3.503906 -2.238281 3.160156 -2.363281 2.671875 -2.46875 C 2.191406 -2.570312 1.804688 -2.695312 1.515625 -2.84375 C 1.234375 -2.988281 1.023438 -3.160156 0.890625 -3.359375 C 0.753906 -3.554688 0.6875 -3.796875 0.6875 -4.078125 C 0.6875 -4.535156 0.878906 -4.921875 1.265625 -5.234375 C 1.660156 -5.554688 2.160156 -5.71875 2.765625 -5.71875 C 3.398438 -5.71875 3.914062 -5.550781 4.3125 -5.21875 C 4.707031 -4.894531 4.90625 -4.476562 4.90625 -3.96875 L 3.9375 -3.96875 C 3.9375 -4.226562 3.820312 -4.453125 3.59375 -4.640625 C 3.375 -4.835938 3.097656 -4.9375 2.765625 -4.9375 C 2.410156 -4.9375 2.132812 -4.859375 1.9375 -4.703125 C 1.738281 -4.554688 1.640625 -4.359375 1.640625 -4.109375 C 1.640625 -3.878906 1.734375 -3.703125 1.921875 -3.578125 C 2.109375 -3.460938 2.441406 -3.351562 2.921875 -3.25 C 3.398438 -3.144531 3.785156 -3.015625 4.078125 -2.859375 C 4.378906 -2.710938 4.601562 -2.535156 4.75 -2.328125 C 4.894531 -2.117188 4.96875 -1.863281 4.96875 -1.5625 C 4.96875 -1.0625 4.765625 -0.65625 4.359375 -0.34375 C 3.953125 -0.0390625 3.429688 0.109375 2.796875 0.109375 C 2.347656 0.109375 1.945312 0.03125 1.59375 -0.125 C 1.25 -0.289062 0.976562 -0.515625 0.78125 -0.796875 C 0.59375 -1.085938 0.5 -1.398438 0.5 -1.734375 L 1.453125 -1.734375 C 1.472656 -1.410156 1.601562 -1.15625 1.84375 -0.96875 C 2.082031 -0.78125 2.398438 -0.6875 2.796875 -0.6875 C 3.160156 -0.6875 3.453125 -0.757812 3.671875 -0.90625 C 3.890625 -1.050781 4 -1.242188 4 -1.484375 Z M 4 -1.484375 "/></g></g></g><g fill="#000000" fill-opacity="1"><g transform="translate(106.461103, 18.145163)"><g><path d="M 2.03125 -6.984375 L 2.03125 -5.625 L 3.078125 -5.625 L 3.078125 -4.875 L 2.03125 -4.875 L 2.03125 -1.390625 C 2.03125 -1.171875 2.078125 -1.003906 2.171875 -0.890625 C 2.265625 -0.773438 2.425781 -0.71875 2.65625 -0.71875 C 2.757812 -0.71875 2.910156 -0.738281 3.109375 -0.78125 L 3.109375 0 C 2.859375 0.0703125 2.613281 0.109375 2.375 0.109375 C 1.9375 0.109375 1.609375 -0.0195312 1.390625 -0.28125 C 1.171875 -0.539062 1.0625 -0.910156 1.0625 -1.390625 L 1.0625 -4.875 L 0.046875 -4.875 L 0.046875 -5.625 L 1.0625 -5.625 L 1.0625 -6.984375 Z M 2.03125 -6.984375 "/></g></g></g><g fill="#000000" fill-opacity="1"><g transform="translate(109.935983, 18.145163)"><g><path d="M 3.0625 0.109375 C 2.300781 0.109375 1.679688 -0.140625 1.203125 -0.640625 C 0.722656 -1.140625 0.484375 -1.8125 0.484375 -2.65625 L 0.484375 -2.828125 C 0.484375 -3.390625 0.585938 -3.890625 0.796875 -4.328125 C 1.015625 -4.765625 1.3125 -5.101562 1.6875 -5.34375 C 2.070312 -5.59375 2.488281 -5.71875 2.9375 -5.71875 C 3.664062 -5.71875 4.234375 -5.476562 4.640625 -5 C 5.046875 -4.519531 5.25 -3.832031 5.25 -2.9375 L 5.25 -2.53125 L 1.4375 -2.53125 C 1.457031 -1.976562 1.617188 -1.53125 1.921875 -1.1875 C 2.234375 -0.851562 2.628906 -0.6875 3.109375 -0.6875 C 3.453125 -0.6875 3.738281 -0.753906 3.96875 -0.890625 C 4.207031 -1.023438 4.414062 -1.207031 4.59375 -1.4375 L 5.1875 -0.984375 C 4.707031 -0.253906 4 0.109375 3.0625 0.109375 Z M 2.9375 -4.9375 C 2.550781 -4.9375 2.222656 -4.796875 1.953125 -4.515625 C 1.691406 -4.234375 1.53125 -3.835938 1.46875 -3.328125 L 4.296875 -3.328125 L 4.296875 -3.390625 C 4.265625 -3.878906 4.128906 -4.257812 3.890625 -4.53125 C 3.660156 -4.800781 3.34375 -4.9375 2.9375 -4.9375 Z M 2.9375 -4.9375 "/></g></g></g><g fill="#000000" fill-opacity="1"><g transform="translate(115.571626, 18.145163)"><g><path d="M 1.625 -5.625 L 1.65625 -5 C 2.070312 -5.476562 2.628906 -5.71875 3.328125 -5.71875 C 4.109375 -5.71875 4.644531 -5.421875 4.9375 -4.828125 C 5.125 -5.097656 5.363281 -5.3125 5.65625 -5.46875 C 5.957031 -5.632812 6.3125 -5.71875 6.71875 -5.71875 C 7.957031 -5.71875 8.585938 -5.066406 8.609375 -3.765625 L 8.609375 0 L 7.640625 0 L 7.640625 -3.703125 C 7.640625 -4.109375 7.546875 -4.410156 7.359375 -4.609375 C 7.179688 -4.804688 6.875 -4.90625 6.4375 -4.90625 C 6.082031 -4.90625 5.785156 -4.796875 5.546875 -4.578125 C 5.316406 -4.367188 5.179688 -4.085938 5.140625 -3.734375 L 5.140625 0 L 4.171875 0 L 4.171875 -3.6875 C 4.171875 -4.5 3.773438 -4.90625 2.984375 -4.90625 C 2.347656 -4.90625 1.914062 -4.640625 1.6875 -4.109375 L 1.6875 0 L 0.71875 0 L 0.71875 -5.625 Z M 1.625 -5.625 "/></g></g></g><g fill="#000000" fill-opacity="1"><g transform="translate(124.895109, 18.145163)"><g><path d="M 4 -1.484375 C 4 -1.742188 3.898438 -1.945312 3.703125 -2.09375 C 3.503906 -2.238281 3.160156 -2.363281 2.671875 -2.46875 C 2.191406 -2.570312 1.804688 -2.695312 1.515625 -2.84375 C 1.234375 -2.988281 1.023438 -3.160156 0.890625 -3.359375 C 0.753906 -3.554688 0.6875 -3.796875 0.6875 -4.078125 C 0.6875 -4.535156 0.878906 -4.921875 1.265625 -5.234375 C 1.660156 -5.554688 2.160156 -5.71875 2.765625 -5.71875 C 3.398438 -5.71875 3.914062 -5.550781 4.3125 -5.21875 C 4.707031 -4.894531 4.90625 -4.476562 4.90625 -3.96875 L 3.9375 -3.96875 C 3.9375 -4.226562 3.820312 -4.453125 3.59375 -4.640625 C 3.375 -4.835938 3.097656 -4.9375 2.765625 -4.9375 C 2.410156 -4.9375 2.132812 -4.859375 1.9375 -4.703125 C 1.738281 -4.554688 1.640625 -4.359375 1.640625 -4.109375 C 1.640625 -3.878906 1.734375 -3.703125 1.921875 -3.578125 C 2.109375 -3.460938 2.441406 -3.351562 2.921875 -3.25 C 3.398438 -3.144531 3.785156 -3.015625 4.078125 -2.859375 C 4.378906 -2.710938 4.601562 -2.535156 4.75 -2.328125 C 4.894531 -2.117188 4.96875 -1.863281 4.96875 -1.5625 C 4.96875 -1.0625 4.765625 -0.65625 4.359375 -0.34375 C 3.953125 -0.0390625 3.429688 0.109375 2.796875 0.109375 C 2.347656 0.109375 1.945312 0.03125 1.59375 -0.125 C 1.25 -0.289062 0.976562 -0.515625 0.78125 -0.796875 C 0.59375 -1.085938 0.5 -1.398438 0.5 -1.734375 L 1.453125 -1.734375 C 1.472656 -1.410156 1.601562 -1.15625 1.84375 -0.96875 C 2.082031 -0.78125 2.398438 -0.6875 2.796875 -0.6875 C 3.160156 -0.6875 3.453125 -0.757812 3.671875 -0.90625 C 3.890625 -1.050781 4 -1.242188 4 -1.484375 Z M 4 -1.484375 "/></g></g></g></svg>