<svg xmlns="http://www.w3.org/2000/svg" xmlns:xlink="http://www.w3.org/1999/xlink" width="184" zoomAndPan="magnify" viewBox="0 0 138 30.000001" height="40" preserveAspectRatio="xMidYMid meet" version="1.0"><defs><g/><clipPath id="66f9b2fc21"><path d="M 2.226562 0 L 31.257812 0 L 31.257812 29 L 2.226562 29 Z M 2.226562 0 " clip-rule="nonzero"/></clipPath></defs><g clip-path="url(#66f9b2fc21)"><path fill="#ffffff" d="M 2.875 17.625 L 5.851562 18.136719 C 6.019531 18.652344 6.226562 19.152344 6.472656 19.636719 L 4.734375 22.097656 C 4.65625 22.210938 4.65625 22.324219 4.734375 22.4375 C 5.8125 24.078125 7.171875 25.441406 8.808594 26.523438 C 8.921875 26.601562 9.03125 26.601562 9.144531 26.523438 L 11.609375 24.773438 C 12.09375 25.019531 12.59375 25.226562 13.113281 25.394531 L 13.621094 28.375 C 13.640625 28.507812 13.71875 28.589844 13.851562 28.621094 C 15.773438 29.019531 17.699219 29.019531 19.625 28.621094 C 19.757812 28.589844 19.835938 28.507812 19.855469 28.375 L 20.363281 25.394531 C 20.878906 25.226562 21.378906 25.019531 21.863281 24.773438 L 24.339844 26.511719 C 24.453125 26.585938 24.566406 26.585938 24.679688 26.511719 C 26.320312 25.429688 27.683594 24.070312 28.769531 22.4375 C 28.847656 22.324219 28.847656 22.210938 28.769531 22.097656 L 27.019531 19.640625 C 27.261719 19.15625 27.46875 18.65625 27.636719 18.140625 L 30.617188 17.628906 C 30.75 17.605469 30.832031 17.53125 30.863281 17.398438 C 31.257812 15.472656 31.257812 13.542969 30.863281 11.617188 C 30.832031 11.484375 30.75 11.40625 30.617188 11.382812 L 27.640625 10.898438 C 27.46875 10.375 27.261719 9.871094 27.011719 9.382812 L 28.75 6.902344 C 28.828125 6.789062 28.828125 6.679688 28.75 6.566406 C 27.675781 4.925781 26.320312 3.5625 24.6875 2.472656 C 24.574219 2.394531 24.460938 2.394531 24.351562 2.472656 L 21.875 4.238281 C 21.390625 3.996094 20.890625 3.789062 20.375 3.613281 L 19.859375 0.628906 C 19.835938 0.5 19.761719 0.417969 19.628906 0.390625 C 17.707031 -0.0117188 15.78125 -0.0117188 13.855469 0.390625 C 13.726562 0.417969 13.648438 0.5 13.625 0.632812 L 13.113281 3.617188 C 12.601562 3.789062 12.101562 4 11.613281 4.242188 L 9.136719 2.492188 C 9.023438 2.414062 8.910156 2.414062 8.792969 2.492188 C 7.164062 3.574219 5.8125 4.933594 4.734375 6.566406 C 4.65625 6.679688 4.65625 6.789062 4.734375 6.902344 L 6.472656 9.367188 C 6.222656 9.859375 6.015625 10.371094 5.847656 10.898438 L 2.875 11.398438 C 2.738281 11.417969 2.65625 11.496094 2.628906 11.628906 C 2.234375 13.550781 2.234375 15.472656 2.632812 17.394531 C 2.660156 17.527344 2.742188 17.605469 2.875 17.625 Z M 16.742188 6.394531 C 17.273438 6.394531 17.800781 6.445312 18.324219 6.550781 C 18.84375 6.65625 19.351562 6.808594 19.84375 7.011719 C 20.335938 7.214844 20.804688 7.464844 21.246094 7.761719 C 21.6875 8.058594 22.097656 8.394531 22.472656 8.769531 C 22.851562 9.144531 23.1875 9.554688 23.480469 9.996094 C 23.777344 10.441406 24.027344 10.90625 24.230469 11.398438 C 24.433594 11.890625 24.589844 12.398438 24.691406 12.917969 C 24.796875 13.441406 24.847656 13.96875 24.847656 14.5 C 24.847656 15.035156 24.796875 15.558594 24.691406 16.082031 C 24.589844 16.605469 24.433594 17.113281 24.230469 17.601562 C 24.027344 18.09375 23.777344 18.5625 23.480469 19.003906 C 23.1875 19.445312 22.851562 19.855469 22.472656 20.234375 C 22.097656 20.609375 21.6875 20.945312 21.246094 21.242188 C 20.804688 21.535156 20.335938 21.785156 19.84375 21.992188 C 19.351562 22.195312 18.84375 22.347656 18.324219 22.453125 C 17.800781 22.554688 17.273438 22.605469 16.742188 22.605469 C 16.210938 22.605469 15.683594 22.554688 15.160156 22.453125 C 14.636719 22.347656 14.132812 22.195312 13.640625 21.992188 C 13.148438 21.785156 12.679688 21.535156 12.238281 21.242188 C 11.796875 20.945312 11.386719 20.609375 11.011719 20.234375 C 10.632812 19.855469 10.296875 19.445312 10 19.003906 C 9.707031 18.5625 9.457031 18.09375 9.253906 17.601562 C 9.050781 17.113281 8.894531 16.605469 8.792969 16.082031 C 8.6875 15.558594 8.636719 15.035156 8.636719 14.5 C 8.636719 13.96875 8.6875 13.441406 8.792969 12.917969 C 8.894531 12.398438 9.050781 11.890625 9.253906 11.398438 C 9.457031 10.90625 9.707031 10.441406 10 9.996094 C 10.296875 9.554688 10.632812 9.144531 11.011719 8.769531 C 11.386719 8.394531 11.796875 8.058594 12.238281 7.761719 C 12.679688 7.464844 13.148438 7.214844 13.640625 7.011719 C 14.132812 6.808594 14.636719 6.65625 15.160156 6.550781 C 15.683594 6.445312 16.210938 6.394531 16.742188 6.394531 Z M 11.335938 17.328125 C 11.40625 17.328125 11.476562 17.328125 11.546875 17.328125 C 11.609375 17.328125 11.675781 17.328125 11.742188 17.328125 C 11.785156 17.324219 11.824219 17.3125 11.859375 17.300781 C 11.886719 17.289062 11.90625 17.273438 11.921875 17.25 C 11.9375 17.230469 11.949219 17.210938 11.957031 17.183594 L 12.417969 15.835938 L 14.761719 15.835938 L 15.242188 17.203125 C 15.25 17.226562 15.261719 17.25 15.277344 17.269531 C 15.292969 17.289062 15.316406 17.304688 15.339844 17.3125 C 15.378906 17.324219 15.417969 17.332031 15.460938 17.332031 L 15.675781 17.332031 C 15.746094 17.335938 15.816406 17.335938 15.890625 17.332031 C 15.929688 17.332031 15.96875 17.320312 16.003906 17.292969 C 16.03125 17.269531 16.042969 17.242188 16.035156 17.207031 C 16.03125 17.152344 16.019531 17.101562 16 17.050781 L 14.121094 11.824219 C 14.109375 11.796875 14.09375 11.773438 14.074219 11.746094 C 14.046875 11.722656 14.019531 11.707031 13.984375 11.695312 C 13.9375 11.683594 13.890625 11.675781 13.839844 11.671875 L 13.390625 11.671875 C 13.34375 11.675781 13.296875 11.683594 13.253906 11.695312 C 13.222656 11.707031 13.195312 11.722656 13.171875 11.746094 C 13.148438 11.765625 13.132812 11.792969 13.125 11.824219 L 11.242188 17.042969 C 11.222656 17.089844 11.207031 17.140625 11.207031 17.195312 C 11.199219 17.230469 11.210938 17.257812 11.234375 17.285156 C 11.265625 17.308594 11.300781 17.320312 11.335938 17.328125 Z M 13.570312 12.4375 L 14.550781 15.238281 L 12.597656 15.238281 Z M 17.019531 17.300781 L 17.136719 17.328125 C 17.253906 17.339844 17.375 17.339844 17.496094 17.328125 L 17.605469 17.300781 C 17.632812 17.292969 17.652344 17.277344 17.667969 17.257812 C 17.683594 17.238281 17.6875 17.21875 17.6875 17.195312 L 17.6875 15.171875 L 18.328125 15.171875 C 18.632812 15.179688 18.933594 15.136719 19.226562 15.042969 C 19.464844 14.964844 19.675781 14.84375 19.859375 14.675781 C 20.039062 14.511719 20.171875 14.320312 20.261719 14.097656 C 20.355469 13.851562 20.402344 13.597656 20.398438 13.335938 C 20.402344 13.136719 20.371094 12.945312 20.308594 12.757812 C 20.246094 12.585938 20.160156 12.433594 20.042969 12.292969 C 19.929688 12.160156 19.796875 12.046875 19.640625 11.957031 C 19.496094 11.871094 19.339844 11.808594 19.175781 11.773438 C 19.046875 11.742188 18.914062 11.722656 18.785156 11.707031 C 18.667969 11.699219 18.550781 11.691406 18.433594 11.695312 L 17.230469 11.695312 C 17.15625 11.695312 17.085938 11.71875 17.027344 11.765625 C 16.957031 11.832031 16.925781 11.914062 16.933594 12.011719 L 16.933594 17.203125 C 16.933594 17.226562 16.941406 17.246094 16.953125 17.261719 C 16.96875 17.28125 16.992188 17.296875 17.019531 17.300781 Z M 17.6875 12.308594 L 18.378906 12.308594 C 18.511719 12.308594 18.640625 12.320312 18.773438 12.339844 C 18.910156 12.363281 19.042969 12.410156 19.160156 12.484375 C 19.292969 12.570312 19.394531 12.683594 19.460938 12.824219 C 19.554688 13.003906 19.597656 13.195312 19.589844 13.398438 C 19.59375 13.558594 19.566406 13.714844 19.511719 13.863281 C 19.464844 14.003906 19.386719 14.128906 19.285156 14.234375 C 19.175781 14.339844 19.050781 14.421875 18.90625 14.472656 C 18.726562 14.539062 18.539062 14.566406 18.34375 14.5625 L 17.6875 14.5625 Z M 21.546875 17.257812 C 21.539062 17.238281 21.539062 17.222656 21.546875 17.203125 L 21.546875 11.800781 C 21.542969 11.777344 21.550781 11.757812 21.566406 11.738281 C 21.582031 11.71875 21.605469 11.703125 21.628906 11.695312 L 21.746094 11.671875 C 21.804688 11.667969 21.859375 11.667969 21.917969 11.671875 C 21.976562 11.667969 22.039062 11.667969 22.097656 11.671875 L 22.214844 11.695312 C 22.238281 11.703125 22.261719 11.71875 22.273438 11.738281 C 22.289062 11.757812 22.292969 11.777344 22.292969 11.800781 L 22.292969 17.203125 C 22.292969 17.226562 22.289062 17.246094 22.273438 17.261719 C 22.261719 17.285156 22.238281 17.296875 22.214844 17.304688 L 22.097656 17.332031 C 22.039062 17.335938 21.976562 17.335938 21.917969 17.332031 C 21.859375 17.335938 21.800781 17.335938 21.742188 17.332031 L 21.625 17.304688 C 21.589844 17.300781 21.5625 17.285156 21.546875 17.257812 Z M 21.546875 17.257812 " fill-opacity="1" fill-rule="nonzero"/></g><g fill="#ffffff" fill-opacity="1"><g transform="translate(35.358507, 18.145163)"><g><path d="M 5.515625 -2.15625 L 2.0625 -2.15625 L 1.28125 0 L 0.15625 0 L 3.3125 -8.25 L 4.265625 -8.25 L 7.421875 0 L 6.296875 0 Z M 2.390625 -3.046875 L 5.1875 -3.046875 L 3.78125 -6.90625 Z M 2.390625 -3.046875 "/></g></g><g transform="translate(42.934112, 18.145163)"><g><path d="M 2.046875 -3.234375 L 2.046875 0 L 0.953125 0 L 0.953125 -8.25 L 4 -8.25 C 4.90625 -8.25 5.613281 -8.019531 6.125 -7.5625 C 6.632812 -7.101562 6.890625 -6.492188 6.890625 -5.734375 C 6.890625 -4.929688 6.640625 -4.3125 6.140625 -3.875 C 5.640625 -3.445312 4.921875 -3.234375 3.984375 -3.234375 Z M 2.046875 -4.125 L 4 -4.125 C 4.582031 -4.125 5.03125 -4.257812 5.34375 -4.53125 C 5.65625 -4.800781 5.8125 -5.195312 5.8125 -5.71875 C 5.8125 -6.207031 5.65625 -6.597656 5.34375 -6.890625 C 5.03125 -7.191406 4.601562 -7.347656 4.0625 -7.359375 L 2.046875 -7.359375 Z M 2.046875 -4.125 "/></g></g><g transform="translate(50.260221, 18.145163)"><g><path d="M 2.125 0 L 1.03125 0 L 1.03125 -8.25 L 2.125 -8.25 Z M 2.125 0 "/></g></g><g transform="translate(53.418613, 18.145163)"><g/></g><g transform="translate(56.293487, 18.145163)"><g><path d="M 5.515625 -3.640625 L 2.046875 -3.640625 L 2.046875 0 L 0.953125 0 L 0.953125 -8.25 L 6.078125 -8.25 L 6.078125 -7.359375 L 2.046875 -7.359375 L 2.046875 -4.53125 L 5.515625 -4.53125 Z M 5.515625 -3.640625 "/></g></g></g><g fill="#ffffff" fill-opacity="1"><g transform="translate(62.564908, 18.145163)"><g><path d="M 3.765625 -5.1875 C 3.597656 -5.21875 3.425781 -5.234375 3.25 -5.234375 C 2.550781 -5.234375 2.082031 -4.941406 1.84375 -4.359375 L 1.84375 0 L 0.796875 0 L 0.796875 -6.140625 L 1.8125 -6.140625 L 1.828125 -5.421875 C 2.171875 -5.972656 2.660156 -6.25 3.296875 -6.25 C 3.492188 -6.25 3.648438 -6.222656 3.765625 -6.171875 Z M 3.765625 -5.1875 "/></g></g></g><g fill="#ffffff" fill-opacity="1"><g transform="translate(66.267655, 18.145163)"><g><path d="M 4.578125 0 C 4.515625 -0.125 4.46875 -0.335938 4.4375 -0.640625 C 3.945312 -0.140625 3.363281 0.109375 2.6875 0.109375 C 2.082031 0.109375 1.585938 -0.0546875 1.203125 -0.390625 C 0.816406 -0.734375 0.625 -1.171875 0.625 -1.703125 C 0.625 -2.335938 0.863281 -2.832031 1.34375 -3.1875 C 1.832031 -3.539062 2.515625 -3.71875 3.390625 -3.71875 L 4.421875 -3.71875 L 4.421875 -4.203125 C 4.421875 -4.566406 4.3125 -4.859375 4.09375 -5.078125 C 3.875 -5.296875 3.550781 -5.40625 3.125 -5.40625 C 2.75 -5.40625 2.429688 -5.304688 2.171875 -5.109375 C 1.921875 -4.921875 1.796875 -4.695312 1.796875 -4.4375 L 0.75 -4.4375 C 0.75 -4.738281 0.851562 -5.03125 1.0625 -5.3125 C 1.28125 -5.601562 1.578125 -5.832031 1.953125 -6 C 2.328125 -6.164062 2.738281 -6.25 3.1875 -6.25 C 3.882812 -6.25 4.429688 -6.070312 4.828125 -5.71875 C 5.234375 -5.363281 5.445312 -4.875 5.46875 -4.25 L 5.46875 -1.4375 C 5.46875 -0.875 5.539062 -0.425781 5.6875 -0.09375 L 5.6875 0 Z M 2.84375 -0.796875 C 3.164062 -0.796875 3.472656 -0.878906 3.765625 -1.046875 C 4.066406 -1.222656 4.285156 -1.445312 4.421875 -1.71875 L 4.421875 -2.96875 L 3.59375 -2.96875 C 2.3125 -2.96875 1.671875 -2.59375 1.671875 -1.84375 C 1.671875 -1.519531 1.78125 -1.265625 2 -1.078125 C 2.21875 -0.890625 2.5 -0.796875 2.84375 -0.796875 Z M 2.84375 -0.796875 "/></g></g><g transform="translate(72.584439, 18.145163)"><g><path d="M 1.78125 -6.140625 L 1.8125 -5.453125 C 2.257812 -5.984375 2.863281 -6.25 3.625 -6.25 C 4.488281 -6.25 5.070312 -5.921875 5.375 -5.265625 C 5.582031 -5.554688 5.847656 -5.789062 6.171875 -5.96875 C 6.503906 -6.15625 6.890625 -6.25 7.328125 -6.25 C 8.679688 -6.25 9.367188 -5.535156 9.390625 -4.109375 L 9.390625 0 L 8.34375 0 L 8.34375 -4.046875 C 8.34375 -4.484375 8.238281 -4.8125 8.03125 -5.03125 C 7.832031 -5.25 7.5 -5.359375 7.03125 -5.359375 C 6.632812 -5.359375 6.304688 -5.238281 6.046875 -5 C 5.796875 -4.769531 5.648438 -4.457031 5.609375 -4.0625 L 5.609375 0 L 4.5625 0 L 4.5625 -4.015625 C 4.5625 -4.910156 4.125 -5.359375 3.25 -5.359375 C 2.5625 -5.359375 2.09375 -5.066406 1.84375 -4.484375 L 1.84375 0 L 0.78125 0 L 0.78125 -6.140625 Z M 1.78125 -6.140625 "/></g></g><g transform="translate(82.76274, 18.145163)"><g><path d="M 3.34375 0.109375 C 2.507812 0.109375 1.832031 -0.160156 1.3125 -0.703125 C 0.789062 -1.253906 0.53125 -1.984375 0.53125 -2.890625 L 0.53125 -3.09375 C 0.53125 -3.695312 0.644531 -4.238281 0.875 -4.71875 C 1.101562 -5.195312 1.425781 -5.570312 1.84375 -5.84375 C 2.269531 -6.113281 2.722656 -6.25 3.203125 -6.25 C 4.003906 -6.25 4.625 -5.984375 5.0625 -5.453125 C 5.507812 -4.929688 5.734375 -4.179688 5.734375 -3.203125 L 5.734375 -2.765625 L 1.578125 -2.765625 C 1.585938 -2.160156 1.757812 -1.671875 2.09375 -1.296875 C 2.4375 -0.929688 2.867188 -0.75 3.390625 -0.75 C 3.765625 -0.75 4.078125 -0.820312 4.328125 -0.96875 C 4.585938 -1.125 4.816406 -1.320312 5.015625 -1.5625 L 5.65625 -1.078125 C 5.132812 -0.285156 4.363281 0.109375 3.34375 0.109375 Z M 3.203125 -5.390625 C 2.785156 -5.390625 2.429688 -5.234375 2.140625 -4.921875 C 1.859375 -4.617188 1.679688 -4.1875 1.609375 -3.625 L 4.6875 -3.625 L 4.6875 -3.703125 C 4.65625 -4.234375 4.507812 -4.644531 4.25 -4.9375 C 3.988281 -5.238281 3.640625 -5.390625 3.203125 -5.390625 Z M 3.203125 -5.390625 "/></g></g><g transform="translate(88.915084, 18.145163)"><g><path d="M 6.21875 -1.453125 L 7.40625 -6.140625 L 8.453125 -6.140625 L 6.671875 0 L 5.8125 0 L 4.328125 -4.640625 L 2.875 0 L 2.03125 0 L 0.25 -6.140625 L 1.28125 -6.140625 L 2.5 -1.546875 L 3.921875 -6.140625 L 4.765625 -6.140625 Z M 6.21875 -1.453125 "/></g></g><g transform="translate(97.641773, 18.145163)"><g><path d="M 0.515625 -3.125 C 0.515625 -3.726562 0.628906 -4.269531 0.859375 -4.75 C 1.097656 -5.226562 1.425781 -5.597656 1.84375 -5.859375 C 2.269531 -6.117188 2.753906 -6.25 3.296875 -6.25 C 4.128906 -6.25 4.800781 -5.957031 5.3125 -5.375 C 5.832031 -4.800781 6.09375 -4.035156 6.09375 -3.078125 L 6.09375 -3 C 6.09375 -2.40625 5.976562 -1.867188 5.75 -1.390625 C 5.519531 -0.921875 5.191406 -0.550781 4.765625 -0.28125 C 4.347656 -0.0195312 3.863281 0.109375 3.3125 0.109375 C 2.476562 0.109375 1.800781 -0.175781 1.28125 -0.75 C 0.769531 -1.332031 0.515625 -2.097656 0.515625 -3.046875 Z M 1.5625 -3 C 1.5625 -2.320312 1.71875 -1.773438 2.03125 -1.359375 C 2.351562 -0.953125 2.78125 -0.75 3.3125 -0.75 C 3.84375 -0.75 4.265625 -0.957031 4.578125 -1.375 C 4.890625 -1.789062 5.046875 -2.375 5.046875 -3.125 C 5.046875 -3.789062 4.882812 -4.332031 4.5625 -4.75 C 4.25 -5.175781 3.828125 -5.390625 3.296875 -5.390625 C 2.773438 -5.390625 2.351562 -5.179688 2.03125 -4.765625 C 1.71875 -4.359375 1.5625 -3.769531 1.5625 -3 Z M 1.5625 -3 "/></g></g><g transform="translate(104.264756, 18.145163)"><g><path d="M 3.765625 -5.1875 C 3.597656 -5.21875 3.425781 -5.234375 3.25 -5.234375 C 2.550781 -5.234375 2.082031 -4.941406 1.84375 -4.359375 L 1.84375 0 L 0.796875 0 L 0.796875 -6.140625 L 1.8125 -6.140625 L 1.828125 -5.421875 C 2.171875 -5.972656 2.660156 -6.25 3.296875 -6.25 C 3.492188 -6.25 3.648438 -6.222656 3.765625 -6.171875 Z M 3.765625 -5.1875 "/></g></g><g transform="translate(108.194318, 18.145163)"><g><path d="M 2.5 -2.84375 L 1.84375 -2.15625 L 1.84375 0 L 0.796875 0 L 0.796875 -8.703125 L 1.84375 -8.703125 L 1.84375 -3.4375 L 2.40625 -4.109375 L 4.3125 -6.140625 L 5.59375 -6.140625 L 3.203125 -3.578125 L 5.875 0 L 4.640625 0 Z M 2.5 -2.84375 "/></g></g><g transform="translate(114.080155, 18.145163)"><g><path d="M 4.359375 -1.625 C 4.359375 -1.90625 4.25 -2.125 4.03125 -2.28125 C 3.820312 -2.4375 3.453125 -2.570312 2.921875 -2.6875 C 2.390625 -2.800781 1.96875 -2.9375 1.65625 -3.09375 C 1.351562 -3.257812 1.125 -3.453125 0.96875 -3.671875 C 0.820312 -3.890625 0.75 -4.148438 0.75 -4.453125 C 0.75 -4.953125 0.960938 -5.375 1.390625 -5.71875 C 1.816406 -6.070312 2.359375 -6.25 3.015625 -6.25 C 3.710938 -6.25 4.273438 -6.066406 4.703125 -5.703125 C 5.140625 -5.347656 5.359375 -4.890625 5.359375 -4.328125 L 4.296875 -4.328125 C 4.296875 -4.617188 4.175781 -4.867188 3.9375 -5.078125 C 3.695312 -5.285156 3.390625 -5.390625 3.015625 -5.390625 C 2.628906 -5.390625 2.328125 -5.304688 2.109375 -5.140625 C 1.898438 -4.972656 1.796875 -4.753906 1.796875 -4.484375 C 1.796875 -4.234375 1.894531 -4.039062 2.09375 -3.90625 C 2.289062 -3.78125 2.648438 -3.65625 3.171875 -3.53125 C 3.703125 -3.414062 4.128906 -3.273438 4.453125 -3.109375 C 4.773438 -2.953125 5.015625 -2.757812 5.171875 -2.53125 C 5.328125 -2.300781 5.40625 -2.023438 5.40625 -1.703125 C 5.40625 -1.148438 5.1875 -0.707031 4.75 -0.375 C 4.3125 -0.0507812 3.742188 0.109375 3.046875 0.109375 C 2.554688 0.109375 2.117188 0.0234375 1.734375 -0.140625 C 1.359375 -0.316406 1.0625 -0.5625 0.84375 -0.875 C 0.632812 -1.1875 0.53125 -1.523438 0.53125 -1.890625 L 1.59375 -1.890625 C 1.601562 -1.535156 1.738281 -1.253906 2 -1.046875 C 2.269531 -0.847656 2.617188 -0.75 3.046875 -0.75 C 3.441406 -0.75 3.757812 -0.828125 4 -0.984375 C 4.238281 -1.140625 4.359375 -1.351562 4.359375 -1.625 Z M 4.359375 -1.625 "/></g></g></g></svg>