<svg xmlns="http://www.w3.org/2000/svg" xmlns:xlink="http://www.w3.org/1999/xlink" width="184" zoomAndPan="magnify" viewBox="0 0 138 30.000001" height="40" preserveAspectRatio="xMidYMid meet" version="1.0"><defs><g/><clipPath id="8fdc982c66"><path d="M 2.226562 4.316406 L 38.515625 4.316406 L 38.515625 24.640625 L 2.226562 24.640625 Z M 2.226562 4.316406 " clip-rule="nonzero"/></clipPath></defs><g clip-path="url(#8fdc982c66)"><path fill="#ffffff" d="M 33.828125 23.582031 L 34.390625 23.582031 C 34.40625 23.585938 34.417969 23.585938 34.429688 23.585938 L 34.425781 23.585938 C 36.003906 23.585938 37.289062 22.300781 37.289062 20.722656 C 37.289062 19.144531 36.007812 17.863281 34.429688 17.859375 L 33.84375 17.859375 L 33.863281 17.230469 C 33.863281 17.179688 33.867188 17.128906 33.867188 17.078125 C 33.867188 13.488281 30.949219 10.570312 27.359375 10.570312 C 27.230469 10.570312 27.089844 10.574219 26.921875 10.585938 L 26.558594 10.609375 L 26.390625 10.289062 C 24.816406 7.296875 21.738281 5.4375 18.359375 5.4375 C 13.898438 5.4375 10.042969 8.761719 9.386719 13.167969 L 9.308594 13.691406 L 8.785156 13.640625 C 8.621094 13.625 8.46875 13.621094 8.320312 13.621094 C 5.574219 13.621094 3.339844 15.855469 3.339844 18.601562 C 3.339844 21.351562 5.574219 23.585938 8.320312 23.585938 L 33.828125 23.585938 Z M 34.425781 24.699219 C 34.421875 24.699219 34.417969 24.699219 34.414062 24.699219 L 8.320312 24.699219 C 4.957031 24.699219 2.222656 21.964844 2.222656 18.601562 C 2.222656 15.238281 4.957031 12.503906 8.320312 12.503906 C 8.335938 12.503906 8.355469 12.503906 8.371094 12.503906 C 8.8125 10.308594 9.972656 8.304688 11.675781 6.820312 C 13.53125 5.210938 15.902344 4.324219 18.359375 4.324219 C 22.035156 4.324219 25.390625 6.28125 27.207031 9.457031 C 27.257812 9.457031 27.308594 9.453125 27.359375 9.453125 C 31.464844 9.453125 34.820312 12.714844 34.976562 16.78125 C 36.910156 17.050781 38.402344 18.714844 38.402344 20.722656 C 38.402344 22.738281 36.894531 24.410156 34.945312 24.667969 L 34.945312 24.699219 L 34.457031 24.699219 C 34.445312 24.699219 34.4375 24.699219 34.425781 24.699219 " fill-opacity="1" fill-rule="nonzero"/></g><g fill="#ffffff" fill-opacity="1"><g transform="translate(39.858507, 18.145163)"><g><path d="M 7.03125 -2.625 C 6.925781 -1.75 6.601562 -1.070312 6.0625 -0.59375 C 5.519531 -0.125 4.800781 0.109375 3.90625 0.109375 C 2.925781 0.109375 2.140625 -0.238281 1.546875 -0.9375 C 0.960938 -1.632812 0.671875 -2.566406 0.671875 -3.734375 L 0.671875 -4.53125 C 0.671875 -5.300781 0.804688 -5.976562 1.078125 -6.5625 C 1.359375 -7.144531 1.75 -7.585938 2.25 -7.890625 C 2.75 -8.203125 3.332031 -8.359375 4 -8.359375 C 4.875 -8.359375 5.578125 -8.113281 6.109375 -7.625 C 6.640625 -7.144531 6.945312 -6.46875 7.03125 -5.59375 L 5.9375 -5.59375 C 5.84375 -6.257812 5.632812 -6.738281 5.3125 -7.03125 C 5 -7.320312 4.5625 -7.46875 4 -7.46875 C 3.300781 -7.46875 2.753906 -7.207031 2.359375 -6.6875 C 1.960938 -6.175781 1.765625 -5.445312 1.765625 -4.5 L 1.765625 -3.703125 C 1.765625 -2.804688 1.953125 -2.09375 2.328125 -1.5625 C 2.703125 -1.039062 3.226562 -0.78125 3.90625 -0.78125 C 4.507812 -0.78125 4.972656 -0.914062 5.296875 -1.1875 C 5.617188 -1.457031 5.832031 -1.9375 5.9375 -2.625 Z M 7.03125 -2.625 "/></g></g><g transform="translate(47.417101, 18.145163)"><g><path d="M 1.9375 0 L 0.890625 0 L 0.890625 -8.703125 L 1.9375 -8.703125 Z M 1.9375 0 "/></g></g><g transform="translate(50.235271, 18.145163)"><g><path d="M 0.515625 -3.125 C 0.515625 -3.726562 0.628906 -4.269531 0.859375 -4.75 C 1.097656 -5.226562 1.425781 -5.597656 1.84375 -5.859375 C 2.269531 -6.117188 2.753906 -6.25 3.296875 -6.25 C 4.128906 -6.25 4.800781 -5.957031 5.3125 -5.375 C 5.832031 -4.800781 6.09375 -4.035156 6.09375 -3.078125 L 6.09375 -3 C 6.09375 -2.40625 5.976562 -1.867188 5.75 -1.390625 C 5.519531 -0.921875 5.191406 -0.550781 4.765625 -0.28125 C 4.347656 -0.0195312 3.863281 0.109375 3.3125 0.109375 C 2.476562 0.109375 1.800781 -0.175781 1.28125 -0.75 C 0.769531 -1.332031 0.515625 -2.097656 0.515625 -3.046875 Z M 1.5625 -3 C 1.5625 -2.320312 1.71875 -1.773438 2.03125 -1.359375 C 2.351562 -0.953125 2.78125 -0.75 3.3125 -0.75 C 3.84375 -0.75 4.265625 -0.957031 4.578125 -1.375 C 4.890625 -1.789062 5.046875 -2.375 5.046875 -3.125 C 5.046875 -3.789062 4.882812 -4.332031 4.5625 -4.75 C 4.25 -5.175781 3.828125 -5.390625 3.296875 -5.390625 C 2.773438 -5.390625 2.351562 -5.179688 2.03125 -4.765625 C 1.71875 -4.359375 1.5625 -3.769531 1.5625 -3 Z M 1.5625 -3 "/></g></g><g transform="translate(56.858255, 18.145163)"><g><path d="M 4.578125 -0.609375 C 4.171875 -0.128906 3.570312 0.109375 2.78125 0.109375 C 2.125 0.109375 1.625 -0.078125 1.28125 -0.453125 C 0.945312 -0.835938 0.773438 -1.398438 0.765625 -2.140625 L 0.765625 -6.140625 L 1.8125 -6.140625 L 1.8125 -2.171875 C 1.8125 -1.242188 2.191406 -0.78125 2.953125 -0.78125 C 3.753906 -0.78125 4.285156 -1.078125 4.546875 -1.671875 L 4.546875 -6.140625 L 5.59375 -6.140625 L 5.59375 0 L 4.609375 0 Z M 4.578125 -0.609375 "/></g></g><g transform="translate(63.260095, 18.145163)"><g><path d="M 0.53125 -3.125 C 0.53125 -4.0625 0.753906 -4.816406 1.203125 -5.390625 C 1.648438 -5.960938 2.234375 -6.25 2.953125 -6.25 C 3.671875 -6.25 4.242188 -6.003906 4.671875 -5.515625 L 4.671875 -8.703125 L 5.71875 -8.703125 L 5.71875 0 L 4.75 0 L 4.703125 -0.65625 C 4.273438 -0.144531 3.691406 0.109375 2.953125 0.109375 C 2.234375 0.109375 1.648438 -0.175781 1.203125 -0.75 C 0.753906 -1.332031 0.53125 -2.09375 0.53125 -3.03125 Z M 1.59375 -3 C 1.59375 -2.300781 1.734375 -1.753906 2.015625 -1.359375 C 2.304688 -0.972656 2.703125 -0.78125 3.203125 -0.78125 C 3.867188 -0.78125 4.359375 -1.078125 4.671875 -1.671875 L 4.671875 -4.484375 C 4.347656 -5.066406 3.863281 -5.359375 3.21875 -5.359375 C 2.707031 -5.359375 2.304688 -5.160156 2.015625 -4.765625 C 1.734375 -4.367188 1.59375 -3.78125 1.59375 -3 Z M 1.59375 -3 "/></g></g><g transform="translate(69.809364, 18.145163)"><g/></g><g transform="translate(72.684238, 18.145163)"><g><path d="M 7.03125 -2.625 C 6.925781 -1.75 6.601562 -1.070312 6.0625 -0.59375 C 5.519531 -0.125 4.800781 0.109375 3.90625 0.109375 C 2.925781 0.109375 2.140625 -0.238281 1.546875 -0.9375 C 0.960938 -1.632812 0.671875 -2.566406 0.671875 -3.734375 L 0.671875 -4.53125 C 0.671875 -5.300781 0.804688 -5.976562 1.078125 -6.5625 C 1.359375 -7.144531 1.75 -7.585938 2.25 -7.890625 C 2.75 -8.203125 3.332031 -8.359375 4 -8.359375 C 4.875 -8.359375 5.578125 -8.113281 6.109375 -7.625 C 6.640625 -7.144531 6.945312 -6.46875 7.03125 -5.59375 L 5.9375 -5.59375 C 5.84375 -6.257812 5.632812 -6.738281 5.3125 -7.03125 C 5 -7.320312 4.5625 -7.46875 4 -7.46875 C 3.300781 -7.46875 2.753906 -7.207031 2.359375 -6.6875 C 1.960938 -6.175781 1.765625 -5.445312 1.765625 -4.5 L 1.765625 -3.703125 C 1.765625 -2.804688 1.953125 -2.09375 2.328125 -1.5625 C 2.703125 -1.039062 3.226562 -0.78125 3.90625 -0.78125 C 4.507812 -0.78125 4.972656 -0.914062 5.296875 -1.1875 C 5.617188 -1.457031 5.832031 -1.9375 5.9375 -2.625 Z M 7.03125 -2.625 "/></g></g><g transform="translate(80.242831, 18.145163)"><g><path d="M 0.515625 -3.125 C 0.515625 -3.726562 0.628906 -4.269531 0.859375 -4.75 C 1.097656 -5.226562 1.425781 -5.597656 1.84375 -5.859375 C 2.269531 -6.117188 2.753906 -6.25 3.296875 -6.25 C 4.128906 -6.25 4.800781 -5.957031 5.3125 -5.375 C 5.832031 -4.800781 6.09375 -4.035156 6.09375 -3.078125 L 6.09375 -3 C 6.09375 -2.40625 5.976562 -1.867188 5.75 -1.390625 C 5.519531 -0.921875 5.191406 -0.550781 4.765625 -0.28125 C 4.347656 -0.0195312 3.863281 0.109375 3.3125 0.109375 C 2.476562 0.109375 1.800781 -0.175781 1.28125 -0.75 C 0.769531 -1.332031 0.515625 -2.097656 0.515625 -3.046875 Z M 1.5625 -3 C 1.5625 -2.320312 1.71875 -1.773438 2.03125 -1.359375 C 2.351562 -0.953125 2.78125 -0.75 3.3125 -0.75 C 3.84375 -0.75 4.265625 -0.957031 4.578125 -1.375 C 4.890625 -1.789062 5.046875 -2.375 5.046875 -3.125 C 5.046875 -3.789062 4.882812 -4.332031 4.5625 -4.75 C 4.25 -5.175781 3.828125 -5.390625 3.296875 -5.390625 C 2.773438 -5.390625 2.351562 -5.179688 2.03125 -4.765625 C 1.71875 -4.359375 1.5625 -3.769531 1.5625 -3 Z M 1.5625 -3 "/></g></g><g transform="translate(86.865815, 18.145163)"><g><path d="M 1.78125 -6.140625 L 1.8125 -5.453125 C 2.257812 -5.984375 2.863281 -6.25 3.625 -6.25 C 4.488281 -6.25 5.070312 -5.921875 5.375 -5.265625 C 5.582031 -5.554688 5.847656 -5.789062 6.171875 -5.96875 C 6.503906 -6.15625 6.890625 -6.25 7.328125 -6.25 C 8.679688 -6.25 9.367188 -5.535156 9.390625 -4.109375 L 9.390625 0 L 8.34375 0 L 8.34375 -4.046875 C 8.34375 -4.484375 8.238281 -4.8125 8.03125 -5.03125 C 7.832031 -5.25 7.5 -5.359375 7.03125 -5.359375 C 6.632812 -5.359375 6.304688 -5.238281 6.046875 -5 C 5.796875 -4.769531 5.648438 -4.457031 5.609375 -4.0625 L 5.609375 0 L 4.5625 0 L 4.5625 -4.015625 C 4.5625 -4.910156 4.125 -5.359375 3.25 -5.359375 C 2.5625 -5.359375 2.09375 -5.066406 1.84375 -4.484375 L 1.84375 0 L 0.78125 0 L 0.78125 -6.140625 Z M 1.78125 -6.140625 "/></g></g><g transform="translate(97.044116, 18.145163)"><g><path d="M 5.96875 -3 C 5.96875 -2.0625 5.753906 -1.304688 5.328125 -0.734375 C 4.898438 -0.171875 4.320312 0.109375 3.59375 0.109375 C 2.851562 0.109375 2.269531 -0.125 1.84375 -0.59375 L 1.84375 2.359375 L 0.796875 2.359375 L 0.796875 -6.140625 L 1.75 -6.140625 L 1.796875 -5.453125 C 2.222656 -5.984375 2.816406 -6.25 3.578125 -6.25 C 4.316406 -6.25 4.898438 -5.96875 5.328125 -5.40625 C 5.753906 -4.851562 5.96875 -4.082031 5.96875 -3.09375 Z M 4.921875 -3.125 C 4.921875 -3.8125 4.773438 -4.351562 4.484375 -4.75 C 4.191406 -5.15625 3.785156 -5.359375 3.265625 -5.359375 C 2.628906 -5.359375 2.15625 -5.078125 1.84375 -4.515625 L 1.84375 -1.578125 C 2.15625 -1.023438 2.632812 -0.75 3.28125 -0.75 C 3.78125 -0.75 4.175781 -0.945312 4.46875 -1.34375 C 4.769531 -1.738281 4.921875 -2.332031 4.921875 -3.125 Z M 4.921875 -3.125 "/></g></g><g transform="translate(103.559363, 18.145163)"><g><path d="M 4.578125 -0.609375 C 4.171875 -0.128906 3.570312 0.109375 2.78125 0.109375 C 2.125 0.109375 1.625 -0.078125 1.28125 -0.453125 C 0.945312 -0.835938 0.773438 -1.398438 0.765625 -2.140625 L 0.765625 -6.140625 L 1.8125 -6.140625 L 1.8125 -2.171875 C 1.8125 -1.242188 2.191406 -0.78125 2.953125 -0.78125 C 3.753906 -0.78125 4.285156 -1.078125 4.546875 -1.671875 L 4.546875 -6.140625 L 5.59375 -6.140625 L 5.59375 0 L 4.609375 0 Z M 4.578125 -0.609375 "/></g></g><g transform="translate(109.961203, 18.145163)"><g><path d="M 2.21875 -7.625 L 2.21875 -6.140625 L 3.359375 -6.140625 L 3.359375 -5.328125 L 2.21875 -5.328125 L 2.21875 -1.515625 C 2.21875 -1.273438 2.265625 -1.09375 2.359375 -0.96875 C 2.460938 -0.84375 2.640625 -0.78125 2.890625 -0.78125 C 3.015625 -0.78125 3.179688 -0.800781 3.390625 -0.84375 L 3.390625 0 C 3.109375 0.0703125 2.835938 0.109375 2.578125 0.109375 C 2.109375 0.109375 1.753906 -0.03125 1.515625 -0.3125 C 1.285156 -0.59375 1.171875 -0.992188 1.171875 -1.515625 L 1.171875 -5.328125 L 0.046875 -5.328125 L 0.046875 -6.140625 L 1.171875 -6.140625 L 1.171875 -7.625 Z M 2.21875 -7.625 "/></g></g><g transform="translate(113.754676, 18.145163)"><g><path d="M 1.9375 0 L 0.890625 0 L 0.890625 -6.140625 L 1.9375 -6.140625 Z M 0.796875 -7.765625 C 0.796875 -7.929688 0.847656 -8.070312 0.953125 -8.1875 C 1.054688 -8.300781 1.207031 -8.359375 1.40625 -8.359375 C 1.613281 -8.359375 1.769531 -8.300781 1.875 -8.1875 C 1.988281 -8.070312 2.046875 -7.925781 2.046875 -7.75 C 2.046875 -7.582031 1.988281 -7.441406 1.875 -7.328125 C 1.769531 -7.222656 1.613281 -7.171875 1.40625 -7.171875 C 1.207031 -7.171875 1.054688 -7.222656 0.953125 -7.328125 C 0.847656 -7.441406 0.796875 -7.585938 0.796875 -7.765625 Z M 0.796875 -7.765625 "/></g></g><g transform="translate(116.572846, 18.145163)"><g><path d="M 1.78125 -6.140625 L 1.8125 -5.359375 C 2.28125 -5.953125 2.894531 -6.25 3.65625 -6.25 C 4.945312 -6.25 5.601562 -5.515625 5.625 -4.046875 L 5.625 0 L 4.5625 0 L 4.5625 -4.0625 C 4.5625 -4.5 4.460938 -4.820312 4.265625 -5.03125 C 4.066406 -5.25 3.757812 -5.359375 3.34375 -5.359375 C 3 -5.359375 2.695312 -5.265625 2.4375 -5.078125 C 2.1875 -4.898438 1.988281 -4.664062 1.84375 -4.375 L 1.84375 0 L 0.796875 0 L 0.796875 -6.140625 Z M 1.78125 -6.140625 "/></g></g><g transform="translate(122.980356, 18.145163)"><g><path d="M 0.546875 -3.125 C 0.546875 -4.070312 0.765625 -4.828125 1.203125 -5.390625 C 1.648438 -5.960938 2.238281 -6.25 2.96875 -6.25 C 3.71875 -6.25 4.300781 -5.984375 4.71875 -5.453125 L 4.765625 -6.140625 L 5.71875 -6.140625 L 5.71875 -0.140625 C 5.71875 0.648438 5.484375 1.273438 5.015625 1.734375 C 4.546875 2.191406 3.914062 2.421875 3.125 2.421875 C 2.675781 2.421875 2.238281 2.320312 1.8125 2.125 C 1.394531 1.9375 1.078125 1.679688 0.859375 1.359375 L 1.40625 0.71875 C 1.851562 1.28125 2.398438 1.5625 3.046875 1.5625 C 3.554688 1.5625 3.953125 1.414062 4.234375 1.125 C 4.523438 0.84375 4.671875 0.441406 4.671875 -0.078125 L 4.671875 -0.609375 C 4.253906 -0.128906 3.679688 0.109375 2.953125 0.109375 C 2.234375 0.109375 1.648438 -0.175781 1.203125 -0.75 C 0.765625 -1.332031 0.546875 -2.125 0.546875 -3.125 Z M 1.59375 -3 C 1.59375 -2.3125 1.734375 -1.769531 2.015625 -1.375 C 2.304688 -0.976562 2.707031 -0.78125 3.21875 -0.78125 C 3.875 -0.78125 4.359375 -1.078125 4.671875 -1.671875 L 4.671875 -4.484375 C 4.347656 -5.066406 3.863281 -5.359375 3.21875 -5.359375 C 2.707031 -5.359375 2.304688 -5.160156 2.015625 -4.765625 C 1.734375 -4.367188 1.59375 -3.78125 1.59375 -3 Z M 1.59375 -3 "/></g></g></g></svg>