<svg xmlns="http://www.w3.org/2000/svg" xmlns:xlink="http://www.w3.org/1999/xlink" width="184" zoomAndPan="magnify" viewBox="0 0 138 30.000001" height="40" preserveAspectRatio="xMidYMid meet" version="1.0"><defs><clipPath id="b73c8768f8"><path d="M 2.226562 15 L 24 15 L 24 29 L 2.226562 29 Z M 2.226562 15 " clip-rule="nonzero"/></clipPath><clipPath id="02bf420643"><path d="M 31 5 L 64.789062 5 L 64.789062 24 L 31 24 Z M 31 5 " clip-rule="nonzero"/></clipPath></defs><g clip-path="url(#b73c8768f8)"><path fill="#4e7896" d="M 9.402344 22.25 C 9.402344 22.25 8.292969 22.921875 10.171875 23.117188 C 12.429688 23.402344 13.640625 23.355469 16.148438 22.875 C 16.148438 22.875 16.820312 23.308594 17.738281 23.644531 C 12.101562 26.046875 4.96875 23.5 9.402344 22.253906 Z M 8.679688 19.128906 C 8.679688 19.128906 7.472656 20.042969 9.351562 20.234375 C 11.808594 20.472656 13.742188 20.519531 17.0625 19.847656 C 17.0625 19.847656 17.496094 20.328125 18.21875 20.570312 C 11.425781 22.589844 3.8125 20.761719 8.679688 19.128906 Z M 21.976562 24.605469 C 21.976562 24.605469 22.796875 25.277344 21.058594 25.808594 C 17.832031 26.769531 7.523438 27.058594 4.632812 25.808594 C 3.621094 25.375 5.546875 24.742188 6.171875 24.652344 C 6.800781 24.511719 7.136719 24.511719 7.136719 24.511719 C 6.03125 23.742188 -0.234375 26.097656 3.957031 26.761719 C 15.472656 28.636719 24.960938 25.945312 21.976562 24.601562 Z M 9.929688 15.859375 C 9.929688 15.859375 4.679688 17.109375 8.050781 17.542969 C 9.496094 17.734375 12.339844 17.683594 14.988281 17.492188 C 17.15625 17.300781 19.324219 16.917969 19.324219 16.917969 C 19.324219 16.917969 18.554688 17.253906 18.023438 17.589844 C 12.675781 18.980469 2.414062 18.359375 5.355469 16.917969 C 7.859375 15.714844 9.929688 15.851562 9.929688 15.851562 Z M 19.324219 21.097656 C 24.71875 18.308594 22.214844 15.621094 20.480469 15.957031 C 20.046875 16.050781 19.855469 16.148438 19.855469 16.148438 C 19.855469 16.148438 20 15.859375 20.335938 15.765625 C 23.757812 14.5625 26.453125 19.367188 19.226562 21.242188 C 19.226562 21.242188 19.277344 21.195312 19.324219 21.097656 Z M 10.460938 28.691406 C 15.664062 29.027344 23.613281 28.5 23.804688 26.046875 C 23.804688 26.046875 23.421875 27.007812 19.519531 27.730469 C 15.085938 28.546875 9.59375 28.449219 6.367188 27.921875 C 6.367188 27.921875 7.039062 28.5 10.460938 28.691406 Z M 10.460938 28.691406 " fill-opacity="1" fill-rule="nonzero"/></g><path fill="#f58219" d="M 16.050781 0 C 16.050781 0 19.035156 3.027344 13.207031 7.59375 C 8.535156 11.292969 12.140625 13.410156 13.207031 15.8125 C 10.460938 13.359375 8.484375 11.199219 9.835938 9.179688 C 11.808594 6.199219 17.253906 4.757812 16.046875 0 Z M 14.507812 13.792969 C 15.90625 15.378906 14.121094 16.820312 14.121094 16.820312 C 14.121094 16.820312 17.6875 14.996094 16.046875 12.734375 C 14.554688 10.574219 13.398438 9.515625 19.660156 5.910156 C 19.660156 5.910156 9.785156 8.363281 14.507812 13.792969 Z M 14.507812 13.792969 " fill-opacity="1" fill-rule="nonzero"/><g clip-path="url(#02bf420643)"><path fill="#4e7896" d="M 45.378906 19.496094 L 45.378906 12.191406 C 45.378906 10.328125 44.332031 9.0625 41.71875 9.0625 C 40.222656 9.0625 38.953125 9.433594 37.832031 9.878906 L 38.207031 11.222656 C 39.027344 10.925781 40.074219 10.625 41.195312 10.625 C 42.613281 10.625 43.289062 11.222656 43.289062 12.414062 L 43.289062 13.386719 L 42.546875 13.386719 C 38.957031 13.386719 37.316406 14.726562 37.316406 16.890625 C 37.316406 18.679688 38.4375 19.722656 40.453125 19.722656 C 41.722656 19.722656 42.695312 19.125 43.59375 18.378906 L 43.742188 19.5 L 45.386719 19.5 Z M 43.285156 17.113281 C 42.539062 17.785156 41.71875 18.15625 40.96875 18.15625 C 39.996094 18.15625 39.398438 17.558594 39.398438 16.515625 C 39.398438 15.472656 39.996094 14.726562 42.390625 14.726562 L 43.285156 14.726562 Z M 52.402344 19.5 L 49.789062 19.5 L 46.648438 9.285156 L 48.890625 9.285156 L 50.835938 15.546875 L 51.285156 17.414062 C 52.257812 14.730469 53.003906 11.972656 53.300781 9.289062 L 55.542969 9.289062 C 54.945312 12.640625 53.898438 16.296875 52.40625 19.5 Z M 64.511719 19.5 L 64.511719 12.191406 C 64.511719 10.328125 63.464844 9.0625 60.847656 9.0625 C 59.351562 9.0625 58.082031 9.433594 56.960938 9.878906 L 57.261719 11.222656 C 58.15625 10.925781 59.203125 10.625 60.324219 10.625 C 61.742188 10.625 62.417969 11.222656 62.417969 12.414062 L 62.417969 13.386719 L 61.671875 13.386719 C 58.082031 13.386719 56.4375 14.726562 56.4375 16.890625 C 56.4375 18.679688 57.484375 19.722656 59.503906 19.722656 C 60.847656 19.722656 61.820312 19.125 62.714844 18.378906 L 62.867188 19.5 Z M 62.417969 17.113281 C 61.671875 17.785156 60.847656 18.15625 60.101562 18.15625 C 59.128906 18.15625 58.53125 17.558594 58.53125 16.515625 C 58.53125 15.472656 59.128906 14.726562 61.519531 14.726562 L 62.417969 14.726562 Z M 34.992188 21.214844 C 34.394531 22.109375 33.496094 22.777344 32.375 23.152344 L 31.402344 21.957031 C 32.152344 21.511719 32.898438 20.839844 33.195312 20.246094 C 33.496094 19.722656 33.570312 18.976562 33.570312 17.261719 L 33.570312 5.632812 L 35.8125 5.632812 L 35.8125 17.113281 C 35.8125 19.425781 35.589844 20.316406 34.992188 21.214844 Z M 34.992188 21.214844 " fill-opacity="1" fill-rule="nonzero"/></g></svg>